<svg version="1.1" width="450" height="375" style="background-color:white;" xmlns="http://www.w3.org/2000/svg">
<style>
.txt1 { font: bold 12px sans-serif; };
</style>
<circle fill="none" cx="197.003" cy="214.201" r="32.8547" stroke="rgb(161,112,41)" stroke-width="1"/>
<circle fill="none" cx="65.4258" cy="133.319" r="11.2025" stroke="rgb(149,109,209)" stroke-width="1"/>
<circle fill="none" cx="260.359" cy="307.68" r="29.2138" stroke="rgb(177,17,187)" stroke-width="1"/>
<circle fill="none" cx="209.695" cy="118.164" r="28.7408" stroke="rgb(49,171,19)" stroke-width="1"/>
<circle fill="none" cx="275.397" cy="114.002" r="13.9631" stroke="rgb(132,149,207)" stroke-width="1"/>
<circle fill="none" cx="103.677" cy="94.5499" r="32.2042" stroke="rgb(45,16,104)" stroke-width="1"/>
<circle fill="none" cx="127.813" cy="140.303" r="33.1692" stroke="rgb(128,20,66)" stroke-width="1"/>
<circle fill="none" cx="110.2" cy="247.607" r="19.7141" stroke="rgb(88,84,112)" stroke-width="1"/>
<circle fill="none" cx="284.93" cy="128.994" r="15.8365" stroke="rgb(110,66,198)" stroke-width="1"/>
<circle fill="none" cx="140.604" cy="309.591" r="24.7527" stroke="rgb(62,164,87)" stroke-width="1"/>
<circle fill="none" cx="311.985" cy="103.396" r="23.7354" stroke="rgb(44,110,184)" stroke-width="1"/>
<circle fill="none" cx="43.7335" cy="246.958" r="21.9912" stroke="rgb(71,44,78)" stroke-width="1"/>
<circle fill="none" cx="343.966" cy="101.631" r="25.6624" stroke="rgb(65,207,81)" stroke-width="1"/>
<circle fill="none" cx="89.0049" cy="54.1312" r="29.4558" stroke="rgb(38,41,38)" stroke-width="1"/>
<circle fill="none" cx="326.053" cy="183.936" r="22.5696" stroke="rgb(42,159,172)" stroke-width="1"/>
<circle fill="none" cx="237.319" cy="225.584" r="19.1608" stroke="rgb(34,190,173)" stroke-width="1"/>
<circle fill="none" cx="308.475" cy="147.538" r="33.6557" stroke="rgb(124,103,179)" stroke-width="1"/>
<circle fill="none" cx="66.9871" cy="236.348" r="28.1159" stroke="rgb(176,176,48)" stroke-width="1"/>
<circle fill="none" cx="288.214" cy="204.77" r="13.1037" stroke="rgb(73,72,100)" stroke-width="1"/>
<circle fill="none" cx="242.027" cy="288.251" r="22.7062" stroke="rgb(57,120,49)" stroke-width="1"/>
<circle fill="none" cx="161.936" cy="257.249" r="16.7711" stroke="rgb(129,150,144)" stroke-width="1"/>
<circle fill="none" cx="105.702" cy="221.218" r="24.6821" stroke="rgb(99,206,174)" stroke-width="1"/>
<circle fill="none" cx="177.301" cy="135.24" r="14.7053" stroke="rgb(163,57,166)" stroke-width="1"/>
<circle fill="none" cx="32.5834" cy="92.1375" r="16.337" stroke="rgb(29,80,193)" stroke-width="1"/>
<circle fill="none" cx="109.152" cy="31.4413" r="16.958" stroke="rgb(52,108,137)" stroke-width="1"/>
<circle fill="none" cx="213.24" cy="289.346" r="22.7447" stroke="rgb(209,127,112)" stroke-width="1"/>
<circle fill="none" cx="219.191" cy="79.7539" r="21.5368" stroke="rgb(168,37,201)" stroke-width="1"/>
<circle fill="none" cx="52.7537" cy="165.095" r="25.8263" stroke="rgb(133,198,163)" stroke-width="1"/>
<circle fill="none" cx="66.4009" cy="262.015" r="21.6892" stroke="rgb(166,56,20)" stroke-width="1"/>
<circle fill="none" cx="42.3908" cy="49.0309" r="10.5501" stroke="rgb(51,99,126)" stroke-width="1"/>
<circle fill="none" cx="197.68" cy="137.084" r="17.1874" stroke="rgb(85,214,61)" stroke-width="1"/>
<circle fill="none" cx="298.145" cy="271.642" r="9.86589" stroke="rgb(15,98,53)" stroke-width="1"/>
<circle fill="none" cx="66.7016" cy="164.919" r="32.4231" stroke="rgb(174,47,95)" stroke-width="1"/>
<circle fill="none" cx="332.902" cy="172.799" r="11.9707" stroke="rgb(126,61,160)" stroke-width="1"/>
<circle fill="none" cx="122.493" cy="207.746" r="18.0946" stroke="rgb(104,99,54)" stroke-width="1"/>
<circle fill="none" cx="100.168" cy="242.215" r="25.8571" stroke="rgb(27,94,166)" stroke-width="1"/>
<circle fill="none" cx="213.146" cy="295.59" r="20.5741" stroke="rgb(124,47,189)" stroke-width="1"/>
<circle fill="none" cx="307.664" cy="76.8652" r="27.1689" stroke="rgb(110,165,172)" stroke-width="1"/>
<circle fill="none" cx="201.321" cy="263.315" r="28.1626" stroke="rgb(58,117,214)" stroke-width="1"/>
<circle fill="none" cx="333.635" cy="188.723" r="17.3239" stroke="rgb(64,154,98)" stroke-width="1"/>
<rect fill="none" x="16.2465" y="14.4833" width="353.382" height="322.41" stroke="rgb(250,50,20)" stroke-width="1"/>
</svg>
