<svg version="1.1" width="450" height="375" style="background-color:white;" xmlns="http://www.w3.org/2000/svg">
<style>
.txt1 { font: bold 12px sans-serif; };
</style>
<ellipse fill="none" cx="168.35" cy="83.0391" rx="9.27907" ry="6.0347" stroke="rgb(183,176,158)" stroke-width="1" transform="rotate(77.5166,168.35,83.0391)" />
<ellipse fill="none" cx="156.242" cy="224.574" rx="14.7024" ry="9.43185" stroke="rgb(190,29,209)" stroke-width="1" transform="rotate(11.0555,156.242,224.574)" />
<ellipse fill="none" cx="216.377" cy="81.6524" rx="37.2939" ry="8.58423" stroke="rgb(33,32,50)" stroke-width="1" transform="rotate(5.58665,216.377,81.6524)" />
<ellipse fill="none" cx="283.808" cy="165.265" rx="29.9432" ry="10.6353" stroke="rgb(28,168,138)" stroke-width="1" transform="rotate(-38.0371,283.808,165.265)" />
<ellipse fill="none" cx="176.729" cy="200.022" rx="15.4841" ry="5.72356" stroke="rgb(96,125,132)" stroke-width="1" transform="rotate(21.1839,176.729,200.022)" />
<ellipse fill="none" cx="241.367" cy="146.322" rx="22.3787" ry="6.34973" stroke="rgb(101,73,113)" stroke-width="1" transform="rotate(-54.5071,241.367,146.322)" />
<ellipse fill="none" cx="298.207" cy="94.0588" rx="30.5324" ry="12.9162" stroke="rgb(33,173,146)" stroke-width="1" transform="rotate(-68.2023,298.207,94.0588)" />
<ellipse fill="none" cx="181.965" cy="193.078" rx="15.6861" ry="5.38013" stroke="rgb(33,101,17)" stroke-width="1" transform="rotate(15.5402,181.965,193.078)" />
<ellipse fill="none" cx="177.153" cy="146.285" rx="22.4947" ry="11.6125" stroke="rgb(161,52,33)" stroke-width="1" transform="rotate(52.4236,177.153,146.285)" />
<ellipse fill="none" cx="246.449" cy="246.744" rx="43.6897" ry="8.66437" stroke="rgb(25,59,137)" stroke-width="1" transform="rotate(26.4242,246.449,246.744)" />
<ellipse fill="none" cx="333.718" cy="71.6539" rx="39.2846" ry="8.92304" stroke="rgb(38,28,99)" stroke-width="1" transform="rotate(-76.5525,333.718,71.6539)" />
<ellipse fill="none" cx="224.698" cy="114.523" rx="16.5105" ry="11.3486" stroke="rgb(181,203,113)" stroke-width="1" transform="rotate(3.22073,224.698,114.523)" />
<ellipse fill="none" cx="258.627" cy="238.708" rx="18.9673" ry="9.4221" stroke="rgb(175,21,130)" stroke-width="1" transform="rotate(67.7368,258.627,238.708)" />
<ellipse fill="none" cx="155.411" cy="299.969" rx="20.2087" ry="5.65791" stroke="rgb(211,35,84)" stroke-width="1" transform="rotate(-10.8272,155.411,299.969)" />
<ellipse fill="none" cx="201.25" cy="107.161" rx="11.7561" ry="8.27893" stroke="rgb(134,116,195)" stroke-width="1" transform="rotate(2.19684,201.25,107.161)" />
<ellipse fill="none" cx="308.739" cy="236.521" rx="16.4636" ry="12.6236" stroke="rgb(52,203,53)" stroke-width="1" transform="rotate(26.4919,308.739,236.521)" />
<ellipse fill="none" cx="326.646" cy="65.7418" rx="44.3509" ry="9.00671" stroke="rgb(151,21,212)" stroke-width="1" transform="rotate(-11.0167,326.646,65.7418)" />
<ellipse fill="none" cx="40.4354" cy="215.479" rx="29.1949" ry="11.6782" stroke="rgb(83,39,98)" stroke-width="1" transform="rotate(-4.17434,40.4354,215.479)" />
<ellipse fill="none" cx="55.6839" cy="151.458" rx="32.6482" ry="6.0519" stroke="rgb(85,186,135)" stroke-width="1" transform="rotate(-65.1484,55.6839,151.458)" />
<ellipse fill="none" cx="237.178" cy="170.308" rx="44.2979" ry="5.72434" stroke="rgb(103,196,180)" stroke-width="1" transform="rotate(0.810176,237.178,170.308)" />
<ellipse fill="none" cx="177.11" cy="102.213" rx="14.2955" ry="10.17" stroke="rgb(26,19,193)" stroke-width="1" transform="rotate(71.4249,177.11,102.213)" />
<ellipse fill="none" cx="136.139" cy="221.044" rx="33.1583" ry="7.17309" stroke="rgb(110,185,181)" stroke-width="1" transform="rotate(5.70026,136.139,221.044)" />
<ellipse fill="none" cx="115.025" cy="209.782" rx="33.874" ry="10.6649" stroke="rgb(208,146,188)" stroke-width="1" transform="rotate(85.298,115.025,209.782)" />
<ellipse fill="none" cx="68.1797" cy="138.379" rx="14.4671" ry="8.92666" stroke="rgb(124,142,208)" stroke-width="1" transform="rotate(-82.8597,68.1797,138.379)" />
<ellipse fill="none" cx="54.7472" cy="278.604" rx="6.52061" ry="6.1561" stroke="rgb(194,62,110)" stroke-width="1" transform="rotate(-23.8388,54.7472,278.604)" />
<ellipse fill="none" cx="211.561" cy="251.619" rx="9.022" ry="7.0088" stroke="rgb(174,99,98)" stroke-width="1" transform="rotate(-66.614,211.561,251.619)" />
<ellipse fill="none" cx="316.509" cy="85.1959" rx="12.8959" ry="8.85973" stroke="rgb(213,36,104)" stroke-width="1" transform="rotate(5.50675,316.509,85.1959)" />
<ellipse fill="none" cx="138.314" cy="250.135" rx="14.9084" ry="10.4477" stroke="rgb(210,104,129)" stroke-width="1" transform="rotate(-54.285,138.314,250.135)" />
<ellipse fill="none" cx="126.962" cy="237.007" rx="11.8205" ry="9.52011" stroke="rgb(93,174,101)" stroke-width="1" transform="rotate(-35.3507,126.962,237.007)" />
<ellipse fill="none" cx="185.201" cy="141.597" rx="35.0427" ry="11.645" stroke="rgb(214,63,82)" stroke-width="1" transform="rotate(-22.3126,185.201,141.597)" />
<ellipse fill="none" cx="218.209" cy="126.105" rx="35.2227" ry="12.9375" stroke="rgb(179,74,87)" stroke-width="1" transform="rotate(-34.994,218.209,126.105)" />
<ellipse fill="none" cx="200.081" cy="209.31" rx="11.0949" ry="9.97706" stroke="rgb(157,170,57)" stroke-width="1" transform="rotate(4.12164,200.081,209.31)" />
<ellipse fill="none" cx="147.899" cy="60.485" rx="12.3616" ry="7.19557" stroke="rgb(124,164,189)" stroke-width="1" transform="rotate(-73.91,147.899,60.485)" />
<ellipse fill="none" cx="193.374" cy="136.722" rx="31.3168" ry="8.17724" stroke="rgb(97,73,117)" stroke-width="1" transform="rotate(-83.5024,193.374,136.722)" />
<ellipse fill="none" cx="229.231" cy="181.197" rx="12.9035" ry="8.55739" stroke="rgb(90,53,165)" stroke-width="1" transform="rotate(-62.6925,229.231,181.197)" />
<ellipse fill="none" cx="284.87" cy="91.2776" rx="9.05959" ry="7.60598" stroke="rgb(186,212,49)" stroke-width="1" transform="rotate(9.70354,284.87,91.2776)" />
<ellipse fill="none" cx="104.963" cy="101.04" rx="32.8029" ry="11.0336" stroke="rgb(69,210,71)" stroke-width="1" transform="rotate(79.1787,104.963,101.04)" />
<ellipse fill="none" cx="101.153" cy="204.161" rx="34.0266" ry="12.3955" stroke="rgb(159,206,160)" stroke-width="1" transform="rotate(77.5307,101.153,204.161)" />
<ellipse fill="none" cx="90.9398" cy="178.633" rx="21.9633" ry="13.5255" stroke="rgb(73,85,119)" stroke-width="1" transform="rotate(20.2998,90.9398,178.633)" />
<ellipse fill="none" cx="101.472" cy="172.469" rx="14.1076" ry="11.0362" stroke="rgb(160,84,168)" stroke-width="1" transform="rotate(-40.0905,101.472,172.469)" />
<rect fill="none" x="11.3056" y="33.3901" width="358.908" height="273.309" stroke="rgb(250,50,20)" stroke-width="1"/>
</svg>
