<svg version="1.1" width="450" height="375" style="background-color:white;" xmlns="http://www.w3.org/2000/svg">
<style>
.txt1 { font: bold 12px sans-serif; };
</style>
<line x1="148.196" y1="60.4603" x2="158.196" y2="60.4603" stroke="rgb(117,204,15)" stroke-width="1"/>
<line x1="153.196" y1="55.4603" x2="153.196" y2="65.4603" stroke="rgb(117,204,15)" stroke-width="1"/>
<line x1="163.029" y1="83.0568" x2="173.029" y2="83.0568" stroke="rgb(71,136,159)" stroke-width="1"/>
<line x1="168.029" y1="78.0568" x2="168.029" y2="88.0568" stroke="rgb(71,136,159)" stroke-width="1"/>
<line x1="212.601" y1="64.0248" x2="222.601" y2="64.0248" stroke="rgb(42,27,169)" stroke-width="1"/>
<line x1="217.601" y1="59.0248" x2="217.601" y2="69.0248" stroke="rgb(42,27,169)" stroke-width="1"/>
<line x1="210.466" y1="54.0885" x2="220.466" y2="54.0885" stroke="rgb(19,81,117)" stroke-width="1"/>
<line x1="215.466" y1="49.0885" x2="215.466" y2="59.0885" stroke="rgb(19,81,117)" stroke-width="1"/>
<line x1="231.86" y1="228.113" x2="241.86" y2="228.113" stroke="rgb(52,118,28)" stroke-width="1"/>
<line x1="236.86" y1="223.113" x2="236.86" y2="233.113" stroke="rgb(52,118,28)" stroke-width="1"/>
<line x1="255.52" y1="278.357" x2="265.52" y2="278.357" stroke="rgb(157,104,74)" stroke-width="1"/>
<line x1="260.52" y1="273.357" x2="260.52" y2="283.357" stroke="rgb(157,104,74)" stroke-width="1"/>
<line x1="212.984" y1="121.634" x2="222.984" y2="121.634" stroke="rgb(188,96,160)" stroke-width="1"/>
<line x1="217.984" y1="116.634" x2="217.984" y2="126.634" stroke="rgb(188,96,160)" stroke-width="1"/>
<line x1="191.326" y1="123.593" x2="201.326" y2="123.593" stroke="rgb(15,80,166)" stroke-width="1"/>
<line x1="196.326" y1="118.593" x2="196.326" y2="128.593" stroke="rgb(15,80,166)" stroke-width="1"/>
<line x1="317.678" y1="257.61" x2="327.678" y2="257.61" stroke="rgb(206,55,54)" stroke-width="1"/>
<line x1="322.678" y1="252.61" x2="322.678" y2="262.61" stroke="rgb(206,55,54)" stroke-width="1"/>
<line x1="336.571" y1="226.556" x2="346.571" y2="226.556" stroke="rgb(182,74,54)" stroke-width="1"/>
<line x1="341.571" y1="221.556" x2="341.571" y2="231.556" stroke="rgb(182,74,54)" stroke-width="1"/>
<line x1="298.248" y1="126.937" x2="308.248" y2="126.937" stroke="rgb(38,177,43)" stroke-width="1"/>
<line x1="303.248" y1="121.937" x2="303.248" y2="131.937" stroke="rgb(38,177,43)" stroke-width="1"/>
<line x1="301.833" y1="137.451" x2="311.833" y2="137.451" stroke="rgb(38,33,164)" stroke-width="1"/>
<line x1="306.833" y1="132.451" x2="306.833" y2="142.451" stroke="rgb(38,33,164)" stroke-width="1"/>
<line x1="57.7553" y1="196.508" x2="67.7553" y2="196.508" stroke="rgb(183,61,177)" stroke-width="1"/>
<line x1="62.7553" y1="191.508" x2="62.7553" y2="201.508" stroke="rgb(183,61,177)" stroke-width="1"/>
<line x1="99.5096" y1="201.994" x2="109.51" y2="201.994" stroke="rgb(138,65,43)" stroke-width="1"/>
<line x1="104.51" y1="196.994" x2="104.51" y2="206.994" stroke="rgb(138,65,43)" stroke-width="1"/>
<line x1="104.28" y1="93.6204" x2="114.28" y2="93.6204" stroke="rgb(40,103,147)" stroke-width="1"/>
<line x1="109.28" y1="88.6204" x2="109.28" y2="98.6204" stroke="rgb(40,103,147)" stroke-width="1"/>
<line x1="147.498" y1="84.8978" x2="157.498" y2="84.8978" stroke="rgb(54,45,36)" stroke-width="1"/>
<line x1="152.498" y1="79.8978" x2="152.498" y2="89.8978" stroke="rgb(54,45,36)" stroke-width="1"/>
<line x1="263.841" y1="154.537" x2="273.841" y2="154.537" stroke="rgb(114,18,118)" stroke-width="1"/>
<line x1="268.841" y1="149.537" x2="268.841" y2="159.537" stroke="rgb(114,18,118)" stroke-width="1"/>
<line x1="314.319" y1="200.427" x2="324.319" y2="200.427" stroke="rgb(59,18,183)" stroke-width="1"/>
<line x1="319.319" y1="195.427" x2="319.319" y2="205.427" stroke="rgb(59,18,183)" stroke-width="1"/>
<line x1="286.04" y1="91.3537" x2="296.04" y2="91.3537" stroke="rgb(210,210,23)" stroke-width="1"/>
<line x1="291.04" y1="86.3537" x2="291.04" y2="96.3537" stroke="rgb(210,210,23)" stroke-width="1"/>
<line x1="297.55" y1="110.279" x2="307.55" y2="110.279" stroke="rgb(50,178,83)" stroke-width="1"/>
<line x1="302.55" y1="105.279" x2="302.55" y2="115.279" stroke="rgb(50,178,83)" stroke-width="1"/>
<line x1="287.603" y1="144.385" x2="297.603" y2="144.385" stroke="rgb(89,201,45)" stroke-width="1"/>
<line x1="292.603" y1="139.385" x2="292.603" y2="149.385" stroke="rgb(89,201,45)" stroke-width="1"/>
<line x1="265.856" y1="121.24" x2="275.856" y2="121.24" stroke="rgb(118,25,64)" stroke-width="1"/>
<line x1="270.856" y1="116.24" x2="270.856" y2="126.24" stroke="rgb(118,25,64)" stroke-width="1"/>
<line x1="215.288" y1="190.53" x2="225.288" y2="190.53" stroke="rgb(67,194,110)" stroke-width="1"/>
<line x1="220.288" y1="185.53" x2="220.288" y2="195.53" stroke="rgb(67,194,110)" stroke-width="1"/>
<line x1="186.369" y1="197.67" x2="196.369" y2="197.67" stroke="rgb(30,117,161)" stroke-width="1"/>
<line x1="191.369" y1="192.67" x2="191.369" y2="202.67" stroke="rgb(30,117,161)" stroke-width="1"/>
<line x1="95.0822" y1="127.223" x2="105.082" y2="127.223" stroke="rgb(59,143,49)" stroke-width="1"/>
<line x1="100.082" y1="122.223" x2="100.082" y2="132.223" stroke="rgb(59,143,49)" stroke-width="1"/>
<line x1="108.962" y1="150.836" x2="118.962" y2="150.836" stroke="rgb(191,182,79)" stroke-width="1"/>
<line x1="113.962" y1="145.836" x2="113.962" y2="155.836" stroke="rgb(191,182,79)" stroke-width="1"/>
<line x1="291.211" y1="142.789" x2="301.211" y2="142.789" stroke="rgb(213,82,83)" stroke-width="1"/>
<line x1="296.211" y1="137.789" x2="296.211" y2="147.789" stroke="rgb(213,82,83)" stroke-width="1"/>
<line x1="322.409" y1="150.796" x2="332.409" y2="150.796" stroke="rgb(116,126,87)" stroke-width="1"/>
<line x1="327.409" y1="145.796" x2="327.409" y2="155.796" stroke="rgb(116,126,87)" stroke-width="1"/>
<line x1="85.0499" y1="217.75" x2="95.0499" y2="217.75" stroke="rgb(84,122,82)" stroke-width="1"/>
<line x1="90.0499" y1="212.75" x2="90.0499" y2="222.75" stroke="rgb(84,122,82)" stroke-width="1"/>
<line x1="89.3681" y1="277.652" x2="99.3681" y2="277.652" stroke="rgb(93,157,45)" stroke-width="1"/>
<line x1="94.3681" y1="272.652" x2="94.3681" y2="282.652" stroke="rgb(93,157,45)" stroke-width="1"/>
<line x1="42.1326" y1="91.4964" x2="52.1326" y2="91.4964" stroke="rgb(162,32,32)" stroke-width="1"/>
<line x1="47.1326" y1="86.4964" x2="47.1326" y2="96.4964" stroke="rgb(162,32,32)" stroke-width="1"/>
<line x1="47.8486" y1="144.352" x2="57.8486" y2="144.352" stroke="rgb(193,135,42)" stroke-width="1"/>
<line x1="52.8486" y1="139.352" x2="52.8486" y2="149.352" stroke="rgb(193,135,42)" stroke-width="1"/>
<line x1="54.4667" y1="113.49" x2="64.4667" y2="113.49" stroke="rgb(42,188,21)" stroke-width="1"/>
<line x1="59.4667" y1="108.49" x2="59.4667" y2="118.49" stroke="rgb(42,188,21)" stroke-width="1"/>
<line x1="27.8635" y1="131.489" x2="37.8635" y2="131.489" stroke="rgb(138,203,124)" stroke-width="1"/>
<line x1="32.8635" y1="126.489" x2="32.8635" y2="136.489" stroke="rgb(138,203,124)" stroke-width="1"/>
<line x1="327.794" y1="289.384" x2="337.794" y2="289.384" stroke="rgb(84,48,52)" stroke-width="1"/>
<line x1="332.794" y1="284.384" x2="332.794" y2="294.384" stroke="rgb(84,48,52)" stroke-width="1"/>
<line x1="294.368" y1="263.837" x2="304.368" y2="263.837" stroke="rgb(119,24,20)" stroke-width="1"/>
<line x1="299.368" y1="258.837" x2="299.368" y2="268.837" stroke="rgb(119,24,20)" stroke-width="1"/>
<line x1="214.548" y1="206.965" x2="224.548" y2="206.965" stroke="rgb(183,23,87)" stroke-width="1"/>
<line x1="219.548" y1="201.965" x2="219.548" y2="211.965" stroke="rgb(183,23,87)" stroke-width="1"/>
<line x1="200.082" y1="173.954" x2="210.082" y2="173.954" stroke="rgb(52,124,199)" stroke-width="1"/>
<line x1="205.082" y1="168.954" x2="205.082" y2="178.954" stroke="rgb(52,124,199)" stroke-width="1"/>
<line x1="292.672" y1="153.903" x2="302.672" y2="153.903" stroke="rgb(124,194,107)" stroke-width="1"/>
<line x1="297.672" y1="148.903" x2="297.672" y2="158.903" stroke="rgb(124,194,107)" stroke-width="1"/>
<line x1="294.551" y1="153.673" x2="304.551" y2="153.673" stroke="rgb(191,73,50)" stroke-width="1"/>
<line x1="299.551" y1="148.673" x2="299.551" y2="158.673" stroke="rgb(191,73,50)" stroke-width="1"/>
<line x1="62.52" y1="108.206" x2="72.52" y2="108.206" stroke="rgb(22,20,67)" stroke-width="1"/>
<line x1="67.52" y1="103.206" x2="67.52" y2="113.206" stroke="rgb(22,20,67)" stroke-width="1"/>
<line x1="103.406" y1="148.577" x2="113.406" y2="148.577" stroke="rgb(39,198,187)" stroke-width="1"/>
<line x1="108.406" y1="143.577" x2="108.406" y2="153.577" stroke="rgb(39,198,187)" stroke-width="1"/>
<line x1="260.868" y1="49.39" x2="270.868" y2="49.39" stroke="rgb(67,26,160)" stroke-width="1"/>
<line x1="265.868" y1="44.39" x2="265.868" y2="54.39" stroke="rgb(67,26,160)" stroke-width="1"/>
<line x1="317.922" y1="55.7793" x2="327.922" y2="55.7793" stroke="rgb(74,149,149)" stroke-width="1"/>
<line x1="322.922" y1="50.7793" x2="322.922" y2="60.7793" stroke="rgb(74,149,149)" stroke-width="1"/>
<line x1="179.223" y1="282.388" x2="189.223" y2="282.388" stroke="rgb(184,19,182)" stroke-width="1"/>
<line x1="184.223" y1="277.388" x2="184.223" y2="287.388" stroke="rgb(184,19,182)" stroke-width="1"/>
<line x1="187.989" y1="311.061" x2="197.989" y2="311.061" stroke="rgb(21,123,192)" stroke-width="1"/>
<line x1="192.989" y1="306.061" x2="192.989" y2="316.061" stroke="rgb(21,123,192)" stroke-width="1"/>
<line x1="159.867" y1="227.904" x2="169.867" y2="227.904" stroke="rgb(27,92,200)" stroke-width="1"/>
<line x1="164.867" y1="222.904" x2="164.867" y2="232.904" stroke="rgb(27,92,200)" stroke-width="1"/>
<line x1="191.934" y1="242.923" x2="201.934" y2="242.923" stroke="rgb(100,129,110)" stroke-width="1"/>
<line x1="196.934" y1="237.923" x2="196.934" y2="247.923" stroke="rgb(100,129,110)" stroke-width="1"/>
<line x1="134.483" y1="190.971" x2="144.483" y2="190.971" stroke="rgb(85,38,90)" stroke-width="1"/>
<line x1="139.483" y1="185.971" x2="139.483" y2="195.971" stroke="rgb(85,38,90)" stroke-width="1"/>
<line x1="147.1" y1="183.885" x2="157.1" y2="183.885" stroke="rgb(177,15,148)" stroke-width="1"/>
<line x1="152.1" y1="178.885" x2="152.1" y2="188.885" stroke="rgb(177,15,148)" stroke-width="1"/>
<line x1="235.887" y1="207.674" x2="245.887" y2="207.674" stroke="rgb(213,23,154)" stroke-width="1"/>
<line x1="240.887" y1="202.674" x2="240.887" y2="212.674" stroke="rgb(213,23,154)" stroke-width="1"/>
<line x1="288.651" y1="201.422" x2="298.651" y2="201.422" stroke="rgb(65,48,138)" stroke-width="1"/>
<line x1="293.651" y1="196.422" x2="293.651" y2="206.422" stroke="rgb(65,48,138)" stroke-width="1"/>
<line x1="312.81" y1="289.383" x2="322.81" y2="289.383" stroke="rgb(38,100,149)" stroke-width="1"/>
<line x1="317.81" y1="284.383" x2="317.81" y2="294.383" stroke="rgb(38,100,149)" stroke-width="1"/>
<line x1="292.449" y1="287.548" x2="302.449" y2="287.548" stroke="rgb(184,160,84)" stroke-width="1"/>
<line x1="297.449" y1="282.548" x2="297.449" y2="292.548" stroke="rgb(184,160,84)" stroke-width="1"/>
<line x1="213.228" y1="158.344" x2="223.228" y2="158.344" stroke="rgb(118,129,89)" stroke-width="1"/>
<line x1="218.228" y1="153.344" x2="218.228" y2="163.344" stroke="rgb(118,129,89)" stroke-width="1"/>
<line x1="242.143" y1="158.64" x2="252.143" y2="158.64" stroke="rgb(86,136,197)" stroke-width="1"/>
<line x1="247.143" y1="153.64" x2="247.143" y2="163.64" stroke="rgb(86,136,197)" stroke-width="1"/>
<line x1="118.125" y1="150.509" x2="128.125" y2="150.509" stroke="rgb(64,148,75)" stroke-width="1"/>
<line x1="123.125" y1="145.509" x2="123.125" y2="155.509" stroke="rgb(64,148,75)" stroke-width="1"/>
<line x1="122.177" y1="135.271" x2="132.177" y2="135.271" stroke="rgb(50,33,189)" stroke-width="1"/>
<line x1="127.177" y1="130.271" x2="127.177" y2="140.271" stroke="rgb(50,33,189)" stroke-width="1"/>
<line x1="306.779" y1="270.314" x2="316.779" y2="270.314" stroke="rgb(145,104,213)" stroke-width="1"/>
<line x1="311.779" y1="265.314" x2="311.779" y2="275.314" stroke="rgb(145,104,213)" stroke-width="1"/>
<line x1="288.497" y1="269.674" x2="298.497" y2="269.674" stroke="rgb(21,66,213)" stroke-width="1"/>
<line x1="293.497" y1="264.674" x2="293.497" y2="274.674" stroke="rgb(21,66,213)" stroke-width="1"/>
<line x1="217.395" y1="200.973" x2="227.395" y2="200.973" stroke="rgb(154,65,21)" stroke-width="1"/>
<line x1="222.395" y1="195.973" x2="222.395" y2="205.973" stroke="rgb(154,65,21)" stroke-width="1"/>
<line x1="258.377" y1="196.933" x2="268.377" y2="196.933" stroke="rgb(94,115,54)" stroke-width="1"/>
<line x1="263.377" y1="191.933" x2="263.377" y2="201.933" stroke="rgb(94,115,54)" stroke-width="1"/>
<line x1="143.003" y1="212.803" x2="153.003" y2="212.803" stroke="rgb(17,139,140)" stroke-width="1"/>
<line x1="148.003" y1="207.803" x2="148.003" y2="217.803" stroke="rgb(17,139,140)" stroke-width="1"/>
<line x1="199.848" y1="261.42" x2="209.848" y2="261.42" stroke="rgb(152,108,85)" stroke-width="1"/>
<line x1="204.848" y1="256.42" x2="204.848" y2="266.42" stroke="rgb(152,108,85)" stroke-width="1"/>
<line x1="41.1066" y1="199.518" x2="51.1066" y2="199.518" stroke="rgb(21,212,200)" stroke-width="1"/>
<line x1="46.1066" y1="194.518" x2="46.1066" y2="204.518" stroke="rgb(21,212,200)" stroke-width="1"/>
<line x1="56.794" y1="254.317" x2="66.794" y2="254.317" stroke="rgb(96,83,121)" stroke-width="1"/>
<line x1="61.794" y1="249.317" x2="61.794" y2="259.317" stroke="rgb(96,83,121)" stroke-width="1"/>
<line x1="327.667" y1="160.727" x2="337.667" y2="160.727" stroke="rgb(79,132,54)" stroke-width="1"/>
<line x1="332.667" y1="155.727" x2="332.667" y2="165.727" stroke="rgb(79,132,54)" stroke-width="1"/>
<line x1="382.22" y1="137.922" x2="392.22" y2="137.922" stroke="rgb(139,168,73)" stroke-width="1"/>
<line x1="387.22" y1="132.922" x2="387.22" y2="142.922" stroke="rgb(139,168,73)" stroke-width="1"/>
<line x1="143.555" y1="231.511" x2="153.555" y2="231.511" stroke="rgb(113,99,162)" stroke-width="1"/>
<line x1="148.555" y1="226.511" x2="148.555" y2="236.511" stroke="rgb(113,99,162)" stroke-width="1"/>
<line x1="137.348" y1="196.61" x2="147.348" y2="196.61" stroke="rgb(111,105,214)" stroke-width="1"/>
<line x1="142.348" y1="191.61" x2="142.348" y2="201.61" stroke="rgb(111,105,214)" stroke-width="1"/>
<line x1="85.6993" y1="193.753" x2="95.6993" y2="193.753" stroke="rgb(110,45,64)" stroke-width="1"/>
<line x1="90.6993" y1="188.753" x2="90.6993" y2="198.753" stroke="rgb(110,45,64)" stroke-width="1"/>
<line x1="95.0022" y1="214.705" x2="105.002" y2="214.705" stroke="rgb(117,124,165)" stroke-width="1"/>
<line x1="100.002" y1="209.705" x2="100.002" y2="219.705" stroke="rgb(117,124,165)" stroke-width="1"/>
<line x1="293.791" y1="139.74" x2="303.791" y2="139.74" stroke="rgb(156,127,89)" stroke-width="1"/>
<line x1="298.791" y1="134.74" x2="298.791" y2="144.74" stroke="rgb(156,127,89)" stroke-width="1"/>
<line x1="306.868" y1="107.721" x2="316.868" y2="107.721" stroke="rgb(82,64,183)" stroke-width="1"/>
<line x1="311.868" y1="102.721" x2="311.868" y2="112.721" stroke="rgb(82,64,183)" stroke-width="1"/>
<line x1="272.767" y1="74.6879" x2="282.767" y2="74.6879" stroke="rgb(152,71,180)" stroke-width="1"/>
<line x1="277.767" y1="69.6879" x2="277.767" y2="79.6879" stroke="rgb(152,71,180)" stroke-width="1"/>
<line x1="305.138" y1="94.9256" x2="315.138" y2="94.9256" stroke="rgb(138,152,48)" stroke-width="1"/>
<line x1="310.138" y1="89.9256" x2="310.138" y2="99.9256" stroke="rgb(138,152,48)" stroke-width="1"/>
<line x1="184.505" y1="62.0673" x2="194.505" y2="62.0673" stroke="rgb(44,16,166)" stroke-width="1"/>
<line x1="189.505" y1="57.0673" x2="189.505" y2="67.0673" stroke="rgb(44,16,166)" stroke-width="1"/>
<line x1="240.744" y1="41.0234" x2="250.744" y2="41.0234" stroke="rgb(84,140,119)" stroke-width="1"/>
<line x1="245.744" y1="36.0234" x2="245.744" y2="46.0234" stroke="rgb(84,140,119)" stroke-width="1"/>
<line x1="52.0151" y1="252.141" x2="62.0151" y2="252.141" stroke="rgb(143,39,204)" stroke-width="1"/>
<line x1="57.0151" y1="247.141" x2="57.0151" y2="257.141" stroke="rgb(143,39,204)" stroke-width="1"/>
<line x1="33.0068" y1="281.62" x2="43.0068" y2="281.62" stroke="rgb(90,135,94)" stroke-width="1"/>
<line x1="38.0068" y1="276.62" x2="38.0068" y2="286.62" stroke="rgb(90,135,94)" stroke-width="1"/>
<rect fill="none" x="32.8635" y="41.0235" width="354.356" height="270.038" stroke="rgb(250,50,20)" stroke-width="1"/>
<circle fill="none" cx="192.989" cy="311.061" r="4" stroke="rgb(0,250,0)" stroke-width="3"/>
<circle fill="none" cx="387.22" cy="137.922" r="4" stroke="rgb(0,0,250)" stroke-width="3"/>
<circle fill="none" cx="32.8635" cy="131.489" r="4" stroke="rgb(0,250,0)" stroke-width="3"/>
<circle fill="none" cx="245.744" cy="41.0234" r="4" stroke="rgb(0,0,250)" stroke-width="3"/>
</svg>
