<svg version="1.1" width="450" height="375" style="background-color:white;" xmlns="http://www.w3.org/2000/svg">
<style>
.txt1 { font: bold 12px sans-serif; };
</style>
<line x1="164.128" y1="231.591" x2="174.128" y2="231.591" stroke="rgb(161,112,41)" stroke-width="1"/>
<line x1="169.128" y1="226.591" x2="169.128" y2="236.591" stroke="rgb(161,112,41)" stroke-width="1"/>
<line x1="219.879" y1="196.811" x2="229.879" y2="196.811" stroke="rgb(149,109,209)" stroke-width="1"/>
<line x1="224.879" y1="191.811" x2="224.879" y2="201.811" stroke="rgb(149,109,209)" stroke-width="1"/>
<line x1="63.0442" y1="144.211" x2="73.0442" y2="144.211" stroke="rgb(177,17,187)" stroke-width="1"/>
<line x1="68.0442" y1="139.211" x2="68.0442" y2="149.211" stroke="rgb(177,17,187)" stroke-width="1"/>
<line x1="57.8074" y1="122.427" x2="67.8074" y2="122.427" stroke="rgb(49,171,19)" stroke-width="1"/>
<line x1="62.8074" y1="117.427" x2="62.8074" y2="127.427" stroke="rgb(49,171,19)" stroke-width="1"/>
<line x1="249.47" y1="279.066" x2="259.47" y2="279.066" stroke="rgb(132,149,207)" stroke-width="1"/>
<line x1="254.47" y1="274.066" x2="254.47" y2="284.066" stroke="rgb(132,149,207)" stroke-width="1"/>
<line x1="261.249" y1="336.294" x2="271.249" y2="336.294" stroke="rgb(45,16,104)" stroke-width="1"/>
<line x1="266.249" y1="331.294" x2="266.249" y2="341.294" stroke="rgb(45,16,104)" stroke-width="1"/>
<line x1="188.75" y1="94.2513" x2="198.75" y2="94.2513" stroke="rgb(128,20,66)" stroke-width="1"/>
<line x1="193.75" y1="89.2513" x2="193.75" y2="99.2513" stroke="rgb(128,20,66)" stroke-width="1"/>
<line x1="220.639" y1="142.076" x2="230.639" y2="142.076" stroke="rgb(88,84,112)" stroke-width="1"/>
<line x1="225.639" y1="137.076" x2="225.639" y2="147.076" stroke="rgb(88,84,112)" stroke-width="1"/>
<line x1="262.239" y1="125.334" x2="272.239" y2="125.334" stroke="rgb(110,66,198)" stroke-width="1"/>
<line x1="267.239" y1="120.334" x2="267.239" y2="130.334" stroke="rgb(110,66,198)" stroke-width="1"/>
<line x1="278.554" y1="102.669" x2="288.554" y2="102.669" stroke="rgb(62,164,87)" stroke-width="1"/>
<line x1="283.554" y1="97.669" x2="283.554" y2="107.669" stroke="rgb(62,164,87)" stroke-width="1"/>
<line x1="77.9253" y1="69.9227" x2="87.9253" y2="69.9227" stroke="rgb(44,110,184)" stroke-width="1"/>
<line x1="82.9253" y1="64.9227" x2="82.9253" y2="74.9227" stroke="rgb(44,110,184)" stroke-width="1"/>
<line x1="119.428" y1="119.177" x2="129.428" y2="119.177" stroke="rgb(71,44,78)" stroke-width="1"/>
<line x1="124.428" y1="114.177" x2="124.428" y2="124.177" stroke="rgb(71,44,78)" stroke-width="1"/>
<line x1="100.836" y1="115.459" x2="110.836" y2="115.459" stroke="rgb(65,207,81)" stroke-width="1"/>
<line x1="105.836" y1="110.459" x2="105.836" y2="120.459" stroke="rgb(65,207,81)" stroke-width="1"/>
<line x1="144.789" y1="165.148" x2="154.789" y2="165.148" stroke="rgb(38,41,38)" stroke-width="1"/>
<line x1="149.789" y1="160.148" x2="149.789" y2="170.148" stroke="rgb(38,41,38)" stroke-width="1"/>
<line x1="108.834" y1="266.983" x2="118.834" y2="266.983" stroke="rgb(42,159,172)" stroke-width="1"/>
<line x1="113.834" y1="261.983" x2="113.834" y2="271.983" stroke="rgb(42,159,172)" stroke-width="1"/>
<line x1="101.565" y1="228.231" x2="111.565" y2="228.231" stroke="rgb(34,190,173)" stroke-width="1"/>
<line x1="106.565" y1="223.231" x2="106.565" y2="233.231" stroke="rgb(34,190,173)" stroke-width="1"/>
<line x1="294.632" y1="134.879" x2="304.632" y2="134.879" stroke="rgb(124,103,179)" stroke-width="1"/>
<line x1="299.632" y1="129.879" x2="299.632" y2="139.879" stroke="rgb(124,103,179)" stroke-width="1"/>
<line x1="265.228" y1="123.108" x2="275.228" y2="123.108" stroke="rgb(176,176,48)" stroke-width="1"/>
<line x1="270.228" y1="118.108" x2="270.228" y2="128.108" stroke="rgb(176,176,48)" stroke-width="1"/>
<line x1="121.434" y1="289.296" x2="131.434" y2="289.296" stroke="rgb(73,72,100)" stroke-width="1"/>
<line x1="126.434" y1="284.296" x2="126.434" y2="294.296" stroke="rgb(73,72,100)" stroke-width="1"/>
<line x1="149.775" y1="329.886" x2="159.775" y2="329.886" stroke="rgb(57,120,49)" stroke-width="1"/>
<line x1="154.775" y1="324.886" x2="154.775" y2="334.886" stroke="rgb(57,120,49)" stroke-width="1"/>
<line x1="325.839" y1="88.9782" x2="335.839" y2="88.9782" stroke="rgb(129,150,144)" stroke-width="1"/>
<line x1="330.839" y1="83.9782" x2="330.839" y2="93.9782" stroke="rgb(129,150,144)" stroke-width="1"/>
<line x1="288.13" y1="117.814" x2="298.13" y2="117.814" stroke="rgb(99,206,174)" stroke-width="1"/>
<line x1="293.13" y1="112.814" x2="293.13" y2="122.814" stroke="rgb(99,206,174)" stroke-width="1"/>
<line x1="57.249" y1="235.093" x2="67.249" y2="235.093" stroke="rgb(163,57,166)" stroke-width="1"/>
<line x1="62.249" y1="230.093" x2="62.249" y2="240.093" stroke="rgb(163,57,166)" stroke-width="1"/>
<line x1="20.218" y1="258.824" x2="30.218" y2="258.824" stroke="rgb(29,80,193)" stroke-width="1"/>
<line x1="25.218" y1="253.824" x2="25.218" y2="263.824" stroke="rgb(29,80,193)" stroke-width="1"/>
<line x1="321.116" y1="83.1934" x2="331.116" y2="83.1934" stroke="rgb(52,108,137)" stroke-width="1"/>
<line x1="326.116" y1="78.1934" x2="326.116" y2="88.1934" stroke="rgb(52,108,137)" stroke-width="1"/>
<line x1="356.816" y1="120.068" x2="366.816" y2="120.068" stroke="rgb(209,127,112)" stroke-width="1"/>
<line x1="361.816" y1="115.068" x2="361.816" y2="125.068" stroke="rgb(209,127,112)" stroke-width="1"/>
<line x1="54.5949" y1="55.7735" x2="64.5949" y2="55.7735" stroke="rgb(168,37,201)" stroke-width="1"/>
<line x1="59.5949" y1="50.7735" x2="59.5949" y2="60.7735" stroke="rgb(168,37,201)" stroke-width="1"/>
<line x1="113.415" y1="52.4889" x2="123.415" y2="52.4889" stroke="rgb(133,198,163)" stroke-width="1"/>
<line x1="118.415" y1="47.4889" x2="118.415" y2="57.4889" stroke="rgb(133,198,163)" stroke-width="1"/>
<line x1="300.525" y1="193.317" x2="310.525" y2="193.317" stroke="rgb(166,56,20)" stroke-width="1"/>
<line x1="305.525" y1="188.317" x2="305.525" y2="198.317" stroke="rgb(166,56,20)" stroke-width="1"/>
<line x1="341.58" y1="174.556" x2="351.58" y2="174.556" stroke="rgb(51,99,126)" stroke-width="1"/>
<line x1="346.58" y1="169.556" x2="346.58" y2="179.556" stroke="rgb(51,99,126)" stroke-width="1"/>
<line x1="222.723" y1="208.999" x2="232.723" y2="208.999" stroke="rgb(85,214,61)" stroke-width="1"/>
<line x1="227.723" y1="203.999" x2="227.723" y2="213.999" stroke="rgb(85,214,61)" stroke-width="1"/>
<line x1="241.914" y1="242.169" x2="251.914" y2="242.169" stroke="rgb(15,98,53)" stroke-width="1"/>
<line x1="246.914" y1="237.169" x2="246.914" y2="247.169" stroke="rgb(15,98,53)" stroke-width="1"/>
<line x1="322.484" y1="119.764" x2="332.484" y2="119.764" stroke="rgb(174,47,95)" stroke-width="1"/>
<line x1="327.484" y1="114.764" x2="327.484" y2="124.764" stroke="rgb(174,47,95)" stroke-width="1"/>
<line x1="284.466" y1="175.311" x2="294.466" y2="175.311" stroke="rgb(126,61,160)" stroke-width="1"/>
<line x1="289.466" y1="170.311" x2="289.466" y2="180.311" stroke="rgb(126,61,160)" stroke-width="1"/>
<line x1="35.7406" y1="246.429" x2="45.7406" y2="246.429" stroke="rgb(104,99,54)" stroke-width="1"/>
<line x1="40.7406" y1="241.429" x2="40.7406" y2="251.429" stroke="rgb(104,99,54)" stroke-width="1"/>
<line x1="88.2335" y1="226.267" x2="98.2335" y2="226.267" stroke="rgb(27,94,166)" stroke-width="1"/>
<line x1="93.2335" y1="221.267" x2="93.2335" y2="231.267" stroke="rgb(27,94,166)" stroke-width="1"/>
<line x1="289.587" y1="193.321" x2="299.587" y2="193.321" stroke="rgb(124,47,189)" stroke-width="1"/>
<line x1="294.587" y1="188.321" x2="294.587" y2="198.321" stroke="rgb(124,47,189)" stroke-width="1"/>
<line x1="276.841" y1="216.22" x2="286.841" y2="216.22" stroke="rgb(110,165,172)" stroke-width="1"/>
<line x1="281.841" y1="211.22" x2="281.841" y2="221.22" stroke="rgb(110,165,172)" stroke-width="1"/>
<line x1="227.892" y1="267.464" x2="237.892" y2="267.464" stroke="rgb(58,117,214)" stroke-width="1"/>
<line x1="232.892" y1="262.464" x2="232.892" y2="272.464" stroke="rgb(58,117,214)" stroke-width="1"/>
<line x1="246.163" y1="309.038" x2="256.163" y2="309.038" stroke="rgb(64,154,98)" stroke-width="1"/>
<line x1="251.163" y1="304.038" x2="251.163" y2="314.038" stroke="rgb(64,154,98)" stroke-width="1"/>
<line x1="140.438" y1="260.266" x2="150.438" y2="260.266" stroke="rgb(176,24,98)" stroke-width="1"/>
<line x1="145.438" y1="255.266" x2="145.438" y2="265.266" stroke="rgb(176,24,98)" stroke-width="1"/>
<line x1="173.433" y1="254.232" x2="183.433" y2="254.232" stroke="rgb(22,25,181)" stroke-width="1"/>
<line x1="178.433" y1="249.232" x2="178.433" y2="259.232" stroke="rgb(22,25,181)" stroke-width="1"/>
<line x1="109.465" y1="198.144" x2="119.465" y2="198.144" stroke="rgb(60,185,213)" stroke-width="1"/>
<line x1="114.465" y1="193.144" x2="114.465" y2="203.144" stroke="rgb(60,185,213)" stroke-width="1"/>
<line x1="91.9391" y1="244.292" x2="101.939" y2="244.292" stroke="rgb(141,96,60)" stroke-width="1"/>
<line x1="96.9391" y1="239.292" x2="96.9391" y2="249.292" stroke="rgb(141,96,60)" stroke-width="1"/>
<line x1="167.939" y1="149.284" x2="177.939" y2="149.284" stroke="rgb(87,186,144)" stroke-width="1"/>
<line x1="172.939" y1="144.284" x2="172.939" y2="154.284" stroke="rgb(87,186,144)" stroke-width="1"/>
<line x1="176.662" y1="121.197" x2="186.662" y2="121.197" stroke="rgb(126,198,23)" stroke-width="1"/>
<line x1="181.662" y1="116.197" x2="181.662" y2="126.197" stroke="rgb(126,198,23)" stroke-width="1"/>
<line x1="43.713" y1="94.7325" x2="53.713" y2="94.7325" stroke="rgb(78,107,56)" stroke-width="1"/>
<line x1="48.713" y1="89.7325" x2="48.713" y2="99.7325" stroke="rgb(78,107,56)" stroke-width="1"/>
<line x1="11.4539" y1="89.5426" x2="21.4539" y2="89.5426" stroke="rgb(52,203,206)" stroke-width="1"/>
<line x1="16.4539" y1="84.5426" x2="16.4539" y2="94.5426" stroke="rgb(52,203,206)" stroke-width="1"/>
<line x1="106.623" y1="48.2183" x2="116.623" y2="48.2183" stroke="rgb(209,47,109)" stroke-width="1"/>
<line x1="111.623" y1="43.2183" x2="111.623" y2="53.2183" stroke="rgb(209,47,109)" stroke-width="1"/>
<line x1="101.68" y1="14.6644" x2="111.68" y2="14.6644" stroke="rgb(208,97,48)" stroke-width="1"/>
<line x1="106.68" y1="9.6644" x2="106.68" y2="19.6644" stroke="rgb(208,97,48)" stroke-width="1"/>
<line x1="199.685" y1="268.271" x2="209.685" y2="268.271" stroke="rgb(92,58,58)" stroke-width="1"/>
<line x1="204.685" y1="263.271" x2="204.685" y2="273.271" stroke="rgb(92,58,58)" stroke-width="1"/>
<line x1="216.794" y1="310.42" x2="226.794" y2="310.42" stroke="rgb(175,66,68)" stroke-width="1"/>
<line x1="221.794" y1="305.42" x2="221.794" y2="315.42" stroke="rgb(175,66,68)" stroke-width="1"/>
<line x1="197.623" y1="93.5144" x2="207.623" y2="93.5144" stroke="rgb(142,112,39)" stroke-width="1"/>
<line x1="202.623" y1="88.5144" x2="202.623" y2="98.5144" stroke="rgb(142,112,39)" stroke-width="1"/>
<line x1="230.758" y1="65.9935" x2="240.758" y2="65.9935" stroke="rgb(141,38,120)" stroke-width="1"/>
<line x1="235.758" y1="60.9935" x2="235.758" y2="70.9935" stroke="rgb(141,38,120)" stroke-width="1"/>
<line x1="43.941" y1="139.552" x2="53.941" y2="139.552" stroke="rgb(187,110,92)" stroke-width="1"/>
<line x1="48.941" y1="134.552" x2="48.941" y2="144.552" stroke="rgb(187,110,92)" stroke-width="1"/>
<line x1="51.5663" y1="190.638" x2="61.5663" y2="190.638" stroke="rgb(116,21,75)" stroke-width="1"/>
<line x1="56.5663" y1="185.638" x2="56.5663" y2="195.638" stroke="rgb(116,21,75)" stroke-width="1"/>
<line x1="73.4469" y1="243.979" x2="83.4469" y2="243.979" stroke="rgb(125,85,168)" stroke-width="1"/>
<line x1="78.4469" y1="238.979" x2="78.4469" y2="248.979" stroke="rgb(125,85,168)" stroke-width="1"/>
<line x1="49.355" y1="280.052" x2="59.355" y2="280.052" stroke="rgb(166,122,157)" stroke-width="1"/>
<line x1="54.355" y1="275.052" x2="54.355" y2="285.052" stroke="rgb(166,122,157)" stroke-width="1"/>
<line x1="47.1977" y1="45.1412" x2="57.1977" y2="45.1412" stroke="rgb(158,117,190)" stroke-width="1"/>
<line x1="52.1977" y1="40.1412" x2="52.1977" y2="50.1412" stroke="rgb(158,117,190)" stroke-width="1"/>
<line x1="27.5839" y1="52.9206" x2="37.5839" y2="52.9206" stroke="rgb(52,110,72)" stroke-width="1"/>
<line x1="32.5839" y1="47.9206" x2="32.5839" y2="57.9206" stroke="rgb(52,110,72)" stroke-width="1"/>
<line x1="187.338" y1="120.748" x2="197.338" y2="120.748" stroke="rgb(85,188,116)" stroke-width="1"/>
<line x1="192.338" y1="115.748" x2="192.338" y2="125.748" stroke="rgb(85,188,116)" stroke-width="1"/>
<line x1="198.022" y1="153.42" x2="208.022" y2="153.42" stroke="rgb(129,149,167)" stroke-width="1"/>
<line x1="203.022" y1="148.42" x2="203.022" y2="158.42" stroke="rgb(129,149,167)" stroke-width="1"/>
<line x1="291.481" y1="281.367" x2="301.481" y2="281.367" stroke="rgb(182,77,64)" stroke-width="1"/>
<line x1="296.481" y1="276.367" x2="296.481" y2="286.367" stroke="rgb(182,77,64)" stroke-width="1"/>
<line x1="294.809" y1="261.918" x2="304.809" y2="261.918" stroke="rgb(206,204,87)" stroke-width="1"/>
<line x1="299.809" y1="256.918" x2="299.809" y2="266.918" stroke="rgb(206,204,87)" stroke-width="1"/>
<line x1="43.9787" y1="137.769" x2="53.9787" y2="137.769" stroke="rgb(112,176,183)" stroke-width="1"/>
<line x1="48.9787" y1="132.769" x2="48.9787" y2="142.769" stroke="rgb(112,176,183)" stroke-width="1"/>
<line x1="79.4245" y1="192.07" x2="89.4245" y2="192.07" stroke="rgb(190,78,190)" stroke-width="1"/>
<line x1="84.4245" y1="187.07" x2="84.4245" y2="197.07" stroke="rgb(190,78,190)" stroke-width="1"/>
<line x1="323.648" y1="183.989" x2="333.648" y2="183.989" stroke="rgb(50,189,60)" stroke-width="1"/>
<line x1="328.648" y1="178.989" x2="328.648" y2="188.989" stroke="rgb(50,189,60)" stroke-width="1"/>
<line x1="332.157" y1="161.61" x2="342.157" y2="161.61" stroke="rgb(204,140,167)" stroke-width="1"/>
<line x1="337.157" y1="156.61" x2="337.157" y2="166.61" stroke="rgb(204,140,167)" stroke-width="1"/>
<line x1="127.192" y1="192.47" x2="137.192" y2="192.47" stroke="rgb(146,84,69)" stroke-width="1"/>
<line x1="132.192" y1="187.47" x2="132.192" y2="197.47" stroke="rgb(146,84,69)" stroke-width="1"/>
<line x1="107.794" y1="223.021" x2="117.794" y2="223.021" stroke="rgb(121,121,165)" stroke-width="1"/>
<line x1="112.794" y1="218.021" x2="112.794" y2="228.021" stroke="rgb(121,121,165)" stroke-width="1"/>
<line x1="70.0658" y1="248.417" x2="80.0658" y2="248.417" stroke="rgb(179,192,139)" stroke-width="1"/>
<line x1="75.0658" y1="243.417" x2="75.0658" y2="253.417" stroke="rgb(179,192,139)" stroke-width="1"/>
<line x1="120.271" y1="236.014" x2="130.271" y2="236.014" stroke="rgb(80,106,74)" stroke-width="1"/>
<line x1="125.271" y1="231.014" x2="125.271" y2="241.014" stroke="rgb(80,106,74)" stroke-width="1"/>
<line x1="213.32" y1="275.677" x2="223.32" y2="275.677" stroke="rgb(32,74,136)" stroke-width="1"/>
<line x1="218.32" y1="270.677" x2="218.32" y2="280.677" stroke="rgb(32,74,136)" stroke-width="1"/>
<line x1="202.973" y1="315.503" x2="212.973" y2="315.503" stroke="rgb(82,66,126)" stroke-width="1"/>
<line x1="207.973" y1="310.503" x2="207.973" y2="320.503" stroke="rgb(82,66,126)" stroke-width="1"/>
<line x1="276.298" y1="70.3128" x2="286.298" y2="70.3128" stroke="rgb(154,164,88)" stroke-width="1"/>
<line x1="281.298" y1="65.3128" x2="281.298" y2="75.3128" stroke="rgb(154,164,88)" stroke-width="1"/>
<line x1="329.031" y1="83.4176" x2="339.031" y2="83.4176" stroke="rgb(123,139,151)" stroke-width="1"/>
<line x1="334.031" y1="78.4176" x2="334.031" y2="88.4176" stroke="rgb(123,139,151)" stroke-width="1"/>
<line x1="191.495" y1="235.569" x2="201.495" y2="235.569" stroke="rgb(98,175,126)" stroke-width="1"/>
<line x1="196.495" y1="230.569" x2="196.495" y2="240.569" stroke="rgb(98,175,126)" stroke-width="1"/>
<line x1="201.146" y1="291.061" x2="211.146" y2="291.061" stroke="rgb(143,164,52)" stroke-width="1"/>
<line x1="206.146" y1="286.061" x2="206.146" y2="296.061" stroke="rgb(143,164,52)" stroke-width="1"/>
<line x1="331.335" y1="171.611" x2="341.335" y2="171.611" stroke="rgb(95,96,121)" stroke-width="1"/>
<line x1="336.335" y1="166.611" x2="336.335" y2="176.611" stroke="rgb(95,96,121)" stroke-width="1"/>
<line x1="325.935" y1="205.835" x2="335.935" y2="205.835" stroke="rgb(150,203,28)" stroke-width="1"/>
<line x1="330.935" y1="200.835" x2="330.935" y2="210.835" stroke="rgb(150,203,28)" stroke-width="1"/>
<rect fill="none" x="16.4539" y="14.6644" width="345.363" height="321.629" stroke="rgb(250,50,20)" stroke-width="1"/>
</svg>
