<svg version="1.1" width="450" height="375" style="background-color:white;" xmlns="http://www.w3.org/2000/svg">
<style>
.txt1 { font: bold 12px sans-serif; };
</style>
<rect fill="none" x="169.128" y="196.811" width="55.7508" height="34.7791" stroke="rgb(161,112,41)" stroke-width="1"/>
<rect fill="none" x="62.8074" y="122.427" width="5.23682" height="21.7845" stroke="rgb(149,109,209)" stroke-width="1"/>
<rect fill="none" x="254.47" y="279.066" width="11.7788" height="57.228" stroke="rgb(177,17,187)" stroke-width="1"/>
<rect fill="none" x="193.75" y="94.2513" width="31.8889" height="47.8251" stroke="rgb(49,171,19)" stroke-width="1"/>
<rect fill="none" x="267.239" y="102.669" width="16.3147" height="22.665" stroke="rgb(132,149,207)" stroke-width="1"/>
<rect fill="none" x="82.9253" y="69.9227" width="41.5025" height="49.2542" stroke="rgb(45,16,104)" stroke-width="1"/>
<rect fill="none" x="105.836" y="115.459" width="43.9531" height="49.6882" stroke="rgb(128,20,66)" stroke-width="1"/>
<rect fill="none" x="106.565" y="228.231" width="7.26918" height="38.7523" stroke="rgb(88,84,112)" stroke-width="1"/>
<rect fill="none" x="270.228" y="123.108" width="29.4042" height="11.7716" stroke="rgb(110,66,198)" stroke-width="1"/>
<rect fill="none" x="126.434" y="289.296" width="28.3411" height="40.5901" stroke="rgb(62,164,87)" stroke-width="1"/>
<rect fill="none" x="293.13" y="88.9782" width="37.7094" height="28.8353" stroke="rgb(44,110,184)" stroke-width="1"/>
<rect fill="none" x="25.218" y="235.093" width="37.0311" height="23.731" stroke="rgb(71,44,78)" stroke-width="1"/>
<rect fill="none" x="326.116" y="83.1934" width="35.7001" height="36.8747" stroke="rgb(65,207,81)" stroke-width="1"/>
<rect fill="none" x="59.5949" y="52.4889" width="58.82" height="3.28466" stroke="rgb(38,41,38)" stroke-width="1"/>
<rect fill="none" x="305.525" y="174.556" width="41.0557" height="18.7609" stroke="rgb(42,159,172)" stroke-width="1"/>
<rect fill="none" x="227.723" y="208.999" width="19.1908" height="33.1702" stroke="rgb(34,190,173)" stroke-width="1"/>
<rect fill="none" x="289.466" y="119.764" width="38.0185" height="55.5465" stroke="rgb(124,103,179)" stroke-width="1"/>
<rect fill="none" x="40.7406" y="226.267" width="52.4929" height="20.1618" stroke="rgb(176,176,48)" stroke-width="1"/>
<rect fill="none" x="281.841" y="193.321" width="12.7455" height="22.8993" stroke="rgb(73,72,100)" stroke-width="1"/>
<rect fill="none" x="232.892" y="267.464" width="18.2715" height="41.5746" stroke="rgb(57,120,49)" stroke-width="1"/>
<rect fill="none" x="145.438" y="254.232" width="32.995" height="6.03382" stroke="rgb(129,150,144)" stroke-width="1"/>
<rect fill="none" x="96.9391" y="198.144" width="17.5256" height="46.1483" stroke="rgb(99,206,174)" stroke-width="1"/>
<rect fill="none" x="172.939" y="121.197" width="8.7228" height="28.0872" stroke="rgb(163,57,166)" stroke-width="1"/>
<rect fill="none" x="16.4539" y="89.5426" width="32.2592" height="5.18993" stroke="rgb(29,80,193)" stroke-width="1"/>
<rect fill="none" x="106.68" y="14.6644" width="4.94306" height="33.5539" stroke="rgb(52,108,137)" stroke-width="1"/>
<rect fill="none" x="204.685" y="268.271" width="17.1085" height="42.1496" stroke="rgb(209,127,112)" stroke-width="1"/>
<rect fill="none" x="202.623" y="65.9935" width="33.1351" height="27.5209" stroke="rgb(168,37,201)" stroke-width="1"/>
<rect fill="none" x="48.941" y="139.552" width="7.62527" height="51.0866" stroke="rgb(133,198,163)" stroke-width="1"/>
<rect fill="none" x="54.355" y="243.979" width="24.0919" height="36.0731" stroke="rgb(166,56,20)" stroke-width="1"/>
<rect fill="none" x="32.5839" y="45.1412" width="19.6138" height="7.77942" stroke="rgb(51,99,126)" stroke-width="1"/>
<rect fill="none" x="192.338" y="120.748" width="10.6838" height="32.6723" stroke="rgb(85,214,61)" stroke-width="1"/>
<rect fill="none" x="296.481" y="261.918" width="3.32716" height="19.4492" stroke="rgb(15,98,53)" stroke-width="1"/>
<rect fill="none" x="48.9787" y="137.769" width="35.4459" height="54.3012" stroke="rgb(174,47,95)" stroke-width="1"/>
<rect fill="none" x="328.648" y="161.61" width="8.50893" height="22.3783" stroke="rgb(126,61,160)" stroke-width="1"/>
<rect fill="none" x="112.794" y="192.47" width="19.398" height="30.5512" stroke="rgb(104,99,54)" stroke-width="1"/>
<rect fill="none" x="75.0658" y="236.014" width="50.2048" height="12.4033" stroke="rgb(27,94,166)" stroke-width="1"/>
<rect fill="none" x="207.973" y="275.677" width="10.3468" height="39.8261" stroke="rgb(124,47,189)" stroke-width="1"/>
<rect fill="none" x="281.298" y="70.3128" width="52.7338" height="13.1048" stroke="rgb(110,165,172)" stroke-width="1"/>
<rect fill="none" x="196.495" y="235.569" width="9.65159" height="55.4921" stroke="rgb(58,117,214)" stroke-width="1"/>
<rect fill="none" x="330.935" y="171.611" width="5.40046" height="34.2243" stroke="rgb(64,154,98)" stroke-width="1"/>
<rect fill="none" x="16.4539" y="14.6644" width="345.363" height="321.629" stroke="rgb(250,50,20)" stroke-width="1"/>
</svg>
