<svg version="1.1" width="450" height="375" style="background-color:white;" xmlns="http://www.w3.org/2000/svg">
<style>
.txt1 { font: bold 12px sans-serif; };
</style>
<line x1="169.128" y1="231.591" x2="224.879" y2="196.811" stroke="rgb(161,112,41)" stroke-width="1"/>
<line x1="62.8074" y1="122.427" x2="68.0442" y2="144.211" stroke="rgb(149,109,209)" stroke-width="1"/>
<line x1="254.47" y1="279.066" x2="266.249" y2="336.294" stroke="rgb(177,17,187)" stroke-width="1"/>
<line x1="193.75" y1="94.2513" x2="225.639" y2="142.076" stroke="rgb(49,171,19)" stroke-width="1"/>
<line x1="267.239" y1="125.334" x2="283.554" y2="102.669" stroke="rgb(132,149,207)" stroke-width="1"/>
<line x1="82.9253" y1="69.9227" x2="124.428" y2="119.177" stroke="rgb(45,16,104)" stroke-width="1"/>
<line x1="105.836" y1="115.459" x2="149.789" y2="165.148" stroke="rgb(128,20,66)" stroke-width="1"/>
<line x1="106.565" y1="228.231" x2="113.834" y2="266.983" stroke="rgb(88,84,112)" stroke-width="1"/>
<line x1="270.228" y1="123.108" x2="299.632" y2="134.879" stroke="rgb(110,66,198)" stroke-width="1"/>
<line x1="126.434" y1="289.296" x2="154.775" y2="329.886" stroke="rgb(62,164,87)" stroke-width="1"/>
<line x1="293.13" y1="117.814" x2="330.839" y2="88.9782" stroke="rgb(44,110,184)" stroke-width="1"/>
<line x1="25.218" y1="258.824" x2="62.249" y2="235.093" stroke="rgb(71,44,78)" stroke-width="1"/>
<line x1="326.116" y1="83.1934" x2="361.816" y2="120.068" stroke="rgb(65,207,81)" stroke-width="1"/>
<line x1="59.5949" y1="55.7735" x2="118.415" y2="52.4889" stroke="rgb(38,41,38)" stroke-width="1"/>
<line x1="305.525" y1="193.317" x2="346.58" y2="174.556" stroke="rgb(42,159,172)" stroke-width="1"/>
<line x1="227.723" y1="208.999" x2="246.914" y2="242.169" stroke="rgb(34,190,173)" stroke-width="1"/>
<line x1="289.466" y1="175.311" x2="327.484" y2="119.764" stroke="rgb(124,103,179)" stroke-width="1"/>
<line x1="40.7406" y1="246.429" x2="93.2335" y2="226.267" stroke="rgb(176,176,48)" stroke-width="1"/>
<line x1="281.841" y1="216.22" x2="294.587" y2="193.321" stroke="rgb(73,72,100)" stroke-width="1"/>
<line x1="232.892" y1="267.464" x2="251.163" y2="309.038" stroke="rgb(57,120,49)" stroke-width="1"/>
<line x1="145.438" y1="260.266" x2="178.433" y2="254.232" stroke="rgb(129,150,144)" stroke-width="1"/>
<line x1="96.9391" y1="244.292" x2="114.465" y2="198.144" stroke="rgb(99,206,174)" stroke-width="1"/>
<line x1="172.939" y1="149.284" x2="181.662" y2="121.197" stroke="rgb(163,57,166)" stroke-width="1"/>
<line x1="16.4539" y1="89.5426" x2="48.713" y2="94.7325" stroke="rgb(29,80,193)" stroke-width="1"/>
<line x1="106.68" y1="14.6644" x2="111.623" y2="48.2183" stroke="rgb(52,108,137)" stroke-width="1"/>
<line x1="204.685" y1="268.271" x2="221.794" y2="310.42" stroke="rgb(209,127,112)" stroke-width="1"/>
<line x1="202.623" y1="93.5144" x2="235.758" y2="65.9935" stroke="rgb(168,37,201)" stroke-width="1"/>
<line x1="48.941" y1="139.552" x2="56.5663" y2="190.638" stroke="rgb(133,198,163)" stroke-width="1"/>
<line x1="54.355" y1="280.052" x2="78.4469" y2="243.979" stroke="rgb(166,56,20)" stroke-width="1"/>
<line x1="32.5839" y1="52.9206" x2="52.1977" y2="45.1412" stroke="rgb(51,99,126)" stroke-width="1"/>
<line x1="192.338" y1="120.748" x2="203.022" y2="153.42" stroke="rgb(85,214,61)" stroke-width="1"/>
<line x1="296.481" y1="281.367" x2="299.809" y2="261.918" stroke="rgb(15,98,53)" stroke-width="1"/>
<line x1="48.9787" y1="137.769" x2="84.4245" y2="192.07" stroke="rgb(174,47,95)" stroke-width="1"/>
<line x1="328.648" y1="183.989" x2="337.157" y2="161.61" stroke="rgb(126,61,160)" stroke-width="1"/>
<line x1="112.794" y1="223.021" x2="132.192" y2="192.47" stroke="rgb(104,99,54)" stroke-width="1"/>
<line x1="75.0658" y1="248.417" x2="125.271" y2="236.014" stroke="rgb(27,94,166)" stroke-width="1"/>
<line x1="207.973" y1="315.503" x2="218.32" y2="275.677" stroke="rgb(124,47,189)" stroke-width="1"/>
<line x1="281.298" y1="70.3128" x2="334.031" y2="83.4176" stroke="rgb(110,165,172)" stroke-width="1"/>
<line x1="196.495" y1="235.569" x2="206.146" y2="291.061" stroke="rgb(58,117,214)" stroke-width="1"/>
<line x1="330.935" y1="205.835" x2="336.335" y2="171.611" stroke="rgb(64,154,98)" stroke-width="1"/>
<rect fill="none" x="16.4539" y="14.6644" width="345.363" height="321.629" stroke="rgb(250,50,20)" stroke-width="1"/>
</svg>
