<svg version="1.1" width="489" height="392" style="background-color:white;" xmlns="http://www.w3.org/2000/svg">
<style>
.txt1 { font: bold 12px sans-serif; };
</style>
<rect x="320.207" y="295.932" width="21.8263" height="37.5009" stroke="rgb(80,80,80)" stroke-width="1" fill="none" />
<line x1="314.251" y1="198.154" x2="324.251" y2="198.154" stroke="rgb(80,80,80)" stroke-width="1" />
<line x1="319.251" y1="193.154" x2="319.251" y2="203.154" stroke="rgb(80,80,80)" stroke-width="1" />
<circle cx="200.473" cy="65.2879" r="34.8346" stroke="rgb(80,80,80)" stroke-width="1" fill="none" />
<rect x="84.3344" y="131.835" width="23.6506" height="22.922" stroke="rgb(80,80,80)" stroke-width="1" fill="none" />
<line x1="58.415" y1="221.855" x2="68.415" y2="221.855" stroke="rgb(80,80,80)" stroke-width="1" />
<line x1="63.415" y1="216.855" x2="63.415" y2="226.855" stroke="rgb(80,80,80)" stroke-width="1" />
<line x1="298.633" y1="217.624" x2="308.481" y2="191.374" stroke="rgb(80,80,80)" stroke-width="1" />
<line x1="62.7967" y1="220.933" x2="72.7967" y2="220.933" stroke="rgb(80,80,80)" stroke-width="1" />
<line x1="67.7967" y1="215.933" x2="67.7967" y2="225.933" stroke="rgb(80,80,80)" stroke-width="1" />
<rect x="363.056" y="182.395" width="41.336" height="32.1451" stroke="rgb(80,80,80)" stroke-width="1" fill="none" />
<line x1="182.153" y1="293.868" x2="213.333" y2="299.831" stroke="rgb(80,80,80)" stroke-width="1" />
<circle cx="239.442" cy="220.24" r="27.1306" stroke="rgb(80,80,80)" stroke-width="1" fill="none" />
<line x1="245.15" y1="111.641" x2="259.604" y2="120.407" stroke="rgb(80,80,80)" stroke-width="1" />
<rect x="361.212" y="256.307" width="35.6796" height="18.4928" stroke="rgb(80,80,80)" stroke-width="1" fill="none" />
<circle cx="371.195" cy="114.905" r="36.346" stroke="rgb(80,80,80)" stroke-width="1" fill="none" />
<circle cx="166.989" cy="299.906" r="16.1031" stroke="rgb(80,80,80)" stroke-width="1" fill="none" />
<rect x="240.234" y="231.371" width="4.77049" height="18.1107" stroke="rgb(80,80,80)" stroke-width="1" fill="none" />
<line x1="199.999" y1="234.509" x2="242.067" y2="258.284" stroke="rgb(80,80,80)" stroke-width="1" />
<line x1="123.351" y1="287.286" x2="132.633" y2="322.483" stroke="rgb(80,80,80)" stroke-width="1" />
<rect x="129.29" y="231.529" width="0.0567188" height="21.9779" stroke="rgb(80,80,80)" stroke-width="1" fill="none" />
<rect x="256.415" y="325.789" width="10.4149" height="12.4235" stroke="rgb(80,80,80)" stroke-width="1" fill="none" />
<circle cx="344.064" cy="169.6" r="28.9174" stroke="rgb(80,80,80)" stroke-width="1" fill="none" />
<circle cx="103.172" cy="164.71" r="29.9034" stroke="rgb(80,80,80)" stroke-width="1" fill="none" />
<rect x="368.254" y="229.405" width="3.81783" height="13.3012" stroke="rgb(80,80,80)" stroke-width="1" fill="none" />
<circle cx="140.696" cy="233.921" r="34.5021" stroke="rgb(80,80,80)" stroke-width="1" fill="none" />
<line x1="157.836" y1="350.484" x2="173.799" y2="309.441" stroke="rgb(80,80,80)" stroke-width="1" />
<circle cx="272.258" cy="183.865" r="35.157" stroke="rgb(80,80,80)" stroke-width="1" fill="none" />
<line x1="69.4884" y1="218.695" x2="79.4884" y2="218.695" stroke="rgb(80,80,80)" stroke-width="1" />
<line x1="74.4884" y1="213.695" x2="74.4884" y2="223.695" stroke="rgb(80,80,80)" stroke-width="1" />
<line x1="216.562" y1="182.223" x2="226.562" y2="182.223" stroke="rgb(80,80,80)" stroke-width="1" />
<line x1="221.562" y1="177.223" x2="221.562" y2="187.223" stroke="rgb(80,80,80)" stroke-width="1" />
<line x1="200.679" y1="222.692" x2="214.084" y2="220.674" stroke="rgb(80,80,80)" stroke-width="1" />
<circle cx="121.927" cy="74.106" r="25.1203" stroke="rgb(80,80,80)" stroke-width="1" fill="none" />
<line x1="50.4199" y1="245.936" x2="60.4199" y2="245.936" stroke="rgb(80,80,80)" stroke-width="1" />
<line x1="55.4199" y1="240.936" x2="55.4199" y2="250.936" stroke="rgb(80,80,80)" stroke-width="1" />
<line x1="276.421" y1="234.73" x2="308.121" y2="248.381" stroke="rgb(80,80,80)" stroke-width="1" />
<circle cx="357.987" cy="93.2976" r="13.0039" stroke="rgb(80,80,80)" stroke-width="1" fill="none" />
<rect x="250.925" y="304.54" width="28.5756" height="41.8915" stroke="rgb(80,80,80)" stroke-width="1" fill="none" />
<line x1="183.743" y1="191.187" x2="205.496" y2="184.248" stroke="rgb(80,80,80)" stroke-width="1" />
<rect x="313.899" y="84.0315" width="30.9058" height="2.27281" stroke="rgb(80,80,80)" stroke-width="1" fill="none" />
<line x1="334.949" y1="56.8445" x2="346.618" y2="83.7258" stroke="rgb(80,80,80)" stroke-width="1" />
<line x1="96.6143" y1="187.86" x2="109.768" y2="162.256" stroke="rgb(80,80,80)" stroke-width="1" />
<line x1="65.8298" y1="281.288" x2="67.2192" y2="295.715" stroke="rgb(80,80,80)" stroke-width="1" />
<line x1="359.155" y1="253.034" x2="369.155" y2="253.034" stroke="rgb(80,80,80)" stroke-width="1" />
<line x1="364.155" y1="248.034" x2="364.155" y2="258.034" stroke="rgb(80,80,80)" stroke-width="1" />
<rect x="140.498" y="62.6204" width="12.0533" height="42.2636" stroke="rgb(80,80,80)" stroke-width="1" fill="none" />
<rect x="55.4199" y="30.4533" width="352.121" height="320.031" stroke="rgb(250,20,20)" stroke-width="1" fill="none" />
</svg>
