<svg version="1.1" width="350" height="250" style="background-color:white;" xmlns="http://www.w3.org/2000/svg">
<style>
.txt1 { font: bold 12px sans-serif; };
</style>
<rect fill="none" x="58" y="30" width="177" height="162" stroke="rgb(250,50,20)" stroke-width="1"/>
<line x1="155" y1="180" x2="165" y2="180" stroke="rgb(80,80,80)" stroke-width="1"/>
<line x1="160" y1="175" x2="160" y2="185" stroke="rgb(80,80,80)" stroke-width="1"/>
<line x1="215" y1="120" x2="225" y2="120" stroke="rgb(80,80,80)" stroke-width="1"/>
<line x1="220" y1="115" x2="220" y2="125" stroke="rgb(80,80,80)" stroke-width="1"/>
<line x1="185" y1="90" x2="195" y2="90" stroke="rgb(80,80,80)" stroke-width="1"/>
<line x1="190" y1="85" x2="190" y2="95" stroke="rgb(80,80,80)" stroke-width="1"/>
<line x1="230" y1="60" x2="240" y2="60" stroke="rgb(80,80,80)" stroke-width="1"/>
<line x1="235" y1="55" x2="235" y2="65" stroke="rgb(80,80,80)" stroke-width="1"/>
<line x1="125" y1="30" x2="135" y2="30" stroke="rgb(80,80,80)" stroke-width="1"/>
<line x1="130" y1="25" x2="130" y2="35" stroke="rgb(80,80,80)" stroke-width="1"/>
<line x1="170" y1="105" x2="180" y2="105" stroke="rgb(80,80,80)" stroke-width="1"/>
<line x1="175" y1="100" x2="175" y2="110" stroke="rgb(80,80,80)" stroke-width="1"/>
<line x1="125" y1="66" x2="135" y2="66" stroke="rgb(80,80,80)" stroke-width="1"/>
<line x1="130" y1="61" x2="130" y2="71" stroke="rgb(80,80,80)" stroke-width="1"/>
<line x1="95" y1="96" x2="105" y2="96" stroke="rgb(80,80,80)" stroke-width="1"/>
<line x1="100" y1="91" x2="100" y2="101" stroke="rgb(80,80,80)" stroke-width="1"/>
<line x1="113" y1="153" x2="123" y2="153" stroke="rgb(80,80,80)" stroke-width="1"/>
<line x1="118" y1="148" x2="118" y2="158" stroke="rgb(80,80,80)" stroke-width="1"/>
<line x1="53" y1="192" x2="63" y2="192" stroke="rgb(80,80,80)" stroke-width="1"/>
<line x1="58" y1="187" x2="58" y2="197" stroke="rgb(80,80,80)" stroke-width="1"/>
</svg>
