<svg version="1.1" width="400" height="300" style="background-color:white;" xmlns="http://www.w3.org/2000/svg">
<style>
.txt1 { font: bold 12px sans-serif; };
</style>
<g>
<polygon fill="none" stroke="rgb(0,150,150)" stroke-width="1" points="50,10 70,140 180,110 150,85 120,190 "/>
<g>
<line x1="45" y1="10" x2="55" y2="10" stroke="rgb(0,150,150)" stroke-width="1"/>
<line x1="50" y1="5" x2="50" y2="15" stroke="rgb(0,150,150)" stroke-width="1"/>
<line x1="65" y1="140" x2="75" y2="140" stroke="rgb(0,150,150)" stroke-width="1"/>
<line x1="70" y1="135" x2="70" y2="145" stroke="rgb(0,150,150)" stroke-width="1"/>
<line x1="175" y1="110" x2="185" y2="110" stroke="rgb(0,150,150)" stroke-width="1"/>
<line x1="180" y1="105" x2="180" y2="115" stroke="rgb(0,150,150)" stroke-width="1"/>
<line x1="145" y1="85" x2="155" y2="85" stroke="rgb(0,150,150)" stroke-width="1"/>
<line x1="150" y1="80" x2="150" y2="90" stroke="rgb(0,150,150)" stroke-width="1"/>
<line x1="115" y1="190" x2="125" y2="190" stroke="rgb(0,150,150)" stroke-width="1"/>
<line x1="120" y1="185" x2="120" y2="195" stroke="rgb(0,150,150)" stroke-width="1"/>
</g>
</g>
<g>
<polyline fill="none" stroke="rgb(150,150,0)" stroke-width="1" points="285,150 155,170 185,280 210,250 105,220 "/>
<g>
<circle fill="none" cx="285" cy="150" r="4" stroke="rgb(150,150,0)" stroke-width="1"/>
<circle fill="none" cx="155" cy="170" r="4" stroke="rgb(150,150,0)" stroke-width="1"/>
<circle fill="none" cx="185" cy="280" r="4" stroke="rgb(150,150,0)" stroke-width="1"/>
<circle fill="none" cx="210" cy="250" r="4" stroke="rgb(150,150,0)" stroke-width="1"/>
<circle fill="none" cx="105" cy="220" r="4" stroke="rgb(150,150,0)" stroke-width="1"/>
</g>
</g>
<circle fill="none" cx="280" cy="200" r="60" stroke="rgb(0,0,100)" stroke-width="1"/>
<ellipse fill="none" cx="150" cy="100" rx="60" ry="15" stroke="rgb(200,0,0)" stroke-width="1" transform="rotate(20,150,100)" />
<g>
<line x1="150" y1="100" x2="280" y2="200" stroke="rgb(150,0,150)" stroke-width="1"/>
<line x1="145" y1="100" x2="155" y2="100" stroke="rgb(150,0,150)" stroke-width="1"/>
<line x1="150" y1="95" x2="150" y2="105" stroke="rgb(150,0,150)" stroke-width="1"/>
<line x1="275" y1="200" x2="285" y2="200" stroke="rgb(150,0,150)" stroke-width="1"/>
<line x1="280" y1="195" x2="280" y2="205" stroke="rgb(150,0,150)" stroke-width="1"/>
</g>
<rect fill="none" x="40" y="30" width="180" height="82" stroke="rgb(150,200,0)" stroke-width="1"/>
<line x1="0" y1="243.116" x2="399" y2="150.326" stroke="rgb(0,250,0)" stroke-width="1"/>
<text x="50" y="50" font-size="20px" fill="#505050">Some Text, default size (20)</text>
<text x="160" y="100" font-size="30px" fill="#fa7800">color, size=30px</text>
<line x1="215.56" y1="191.823" x2="225.56" y2="191.823" stroke="rgb(80,80,80)" stroke-width="1"/>
<line x1="220.56" y1="186.823" x2="220.56" y2="196.823" stroke="rgb(80,80,80)" stroke-width="1"/>
<line x1="324.733" y1="166.434" x2="334.733" y2="166.434" stroke="rgb(80,80,80)" stroke-width="1"/>
<line x1="329.733" y1="161.434" x2="329.733" y2="171.434" stroke="rgb(80,80,80)" stroke-width="1"/>
<line x1="227.443" y1="163.417" x2="237.443" y2="163.417" stroke="rgb(80,80,80)" stroke-width="1"/>
<line x1="232.443" y1="158.417" x2="232.443" y2="168.417" stroke="rgb(80,80,80)" stroke-width="1"/>
<line x1="35" y1="280" x2="45" y2="280" stroke="rgb(250,0,0)" stroke-width="1"/>
<line x1="40" y1="275" x2="40" y2="285" stroke="rgb(250,0,0)" stroke-width="1"/>
<line x1="66" y1="284" x2="74" y2="276" stroke="rgb(250,0,0)" stroke-width="1"/>
<line x1="66" y1="276" x2="74" y2="284" stroke="rgb(250,0,0)" stroke-width="1"/>
<line x1="95" y1="280" x2="105" y2="280" stroke="rgb(250,0,0)" stroke-width="1"/>
<line x1="100" y1="275" x2="100" y2="285" stroke="rgb(250,0,0)" stroke-width="1"/>
<line x1="96" y1="284" x2="104" y2="276" stroke="rgb(250,0,0)" stroke-width="1"/>
<line x1="96" y1="276" x2="104" y2="284" stroke="rgb(250,0,0)" stroke-width="1"/>
<line x1="125" y1="280" x2="130" y2="275" stroke="rgb(250,0,0)" stroke-width="1"/>
<line x1="130" y1="275" x2="135" y2="280" stroke="rgb(250,0,0)" stroke-width="1"/>
<line x1="130" y1="285" x2="135" y2="280" stroke="rgb(250,0,0)" stroke-width="1"/>
<line x1="125" y1="280" x2="130" y2="285" stroke="rgb(250,0,0)" stroke-width="1"/>
<circle fill="none" cx="160" cy="280" r="4" stroke="rgb(250,0,0)" stroke-width="1"/>
</svg>
