<svg version="1.1" width="400" height="300" style="background-color:white;" xmlns="http://www.w3.org/2000/svg">
<style>
.txt1 { font: bold 12px sans-serif; };
</style>
<line x1="30" y1="-0" x2="30" y2="299" stroke="rgb(220,220,220)" stroke-width="1" />
<text x="25" y="40" font-size="20px" fill="#000000">3</text>
<line x1="80" y1="-0" x2="80" y2="299" stroke="rgb(220,220,220)" stroke-width="1" />
<text x="75" y="40" font-size="20px" fill="#000000">5</text>
<line x1="130" y1="-0" x2="130" y2="299" stroke="rgb(220,220,220)" stroke-width="1" />
<text x="125" y="40" font-size="20px" fill="#000000">7</text>
<line x1="180" y1="-0" x2="180" y2="299" stroke="rgb(220,220,220)" stroke-width="1" />
<text x="175" y="40" font-size="20px" fill="#000000">9</text>
<line x1="230" y1="-0" x2="230" y2="299" stroke="rgb(220,220,220)" stroke-width="1" />
<text x="225" y="40" font-size="20px" fill="#000000">11</text>
<line x1="0" y1="82" x2="399" y2="82" stroke="rgb(220,220,220)" stroke-width="1" />
<line x1="0" y1="124" x2="399" y2="124" stroke="rgb(220,220,220)" stroke-width="1" />
<line x1="0" y1="166" x2="399" y2="166" stroke="rgb(220,220,220)" stroke-width="1" />
<line x1="0" y1="208" x2="399" y2="208" stroke="rgb(220,220,220)" stroke-width="1" />
<line x1="0" y1="250" x2="399" y2="250" stroke="rgb(220,220,220)" stroke-width="1" />
<line x1="27" y1="82" x2="33" y2="82" stroke="rgb(0,0,250)" stroke-width="1" />
<line x1="30" y1="79" x2="30" y2="85" stroke="rgb(0,0,250)" stroke-width="1" />
<line x1="28" y1="126" x2="32" y2="122" stroke="rgb(0,0,250)" stroke-width="1" />
<line x1="28" y1="122" x2="32" y2="126" stroke="rgb(0,0,250)" stroke-width="1" />
<line x1="27" y1="166" x2="33" y2="166" stroke="rgb(0,0,250)" stroke-width="1" />
<line x1="30" y1="163" x2="30" y2="169" stroke="rgb(0,0,250)" stroke-width="1" />
<line x1="28" y1="168" x2="32" y2="164" stroke="rgb(0,0,250)" stroke-width="1" />
<line x1="28" y1="164" x2="32" y2="168" stroke="rgb(0,0,250)" stroke-width="1" />
<line x1="27" y1="208" x2="30" y2="205" stroke="rgb(0,0,250)" stroke-width="1" />
<line x1="30" y1="205" x2="33" y2="208" stroke="rgb(0,0,250)" stroke-width="1" />
<line x1="30" y1="211" x2="33" y2="208" stroke="rgb(0,0,250)" stroke-width="1" />
<line x1="27" y1="208" x2="30" y2="211" stroke="rgb(0,0,250)" stroke-width="1" />
<circle cx="30" cy="250" r="3" stroke="rgb(0,0,250)" stroke-width="1" fill="none" />
<line x1="75" y1="82" x2="85" y2="82" stroke="rgb(0,0,250)" stroke-width="1" />
<line x1="80" y1="77" x2="80" y2="87" stroke="rgb(0,0,250)" stroke-width="1" />
<line x1="76" y1="128" x2="84" y2="120" stroke="rgb(0,0,250)" stroke-width="1" />
<line x1="76" y1="120" x2="84" y2="128" stroke="rgb(0,0,250)" stroke-width="1" />
<line x1="75" y1="166" x2="85" y2="166" stroke="rgb(0,0,250)" stroke-width="1" />
<line x1="80" y1="161" x2="80" y2="171" stroke="rgb(0,0,250)" stroke-width="1" />
<line x1="76" y1="170" x2="84" y2="162" stroke="rgb(0,0,250)" stroke-width="1" />
<line x1="76" y1="162" x2="84" y2="170" stroke="rgb(0,0,250)" stroke-width="1" />
<line x1="75" y1="208" x2="80" y2="203" stroke="rgb(0,0,250)" stroke-width="1" />
<line x1="80" y1="203" x2="85" y2="208" stroke="rgb(0,0,250)" stroke-width="1" />
<line x1="80" y1="213" x2="85" y2="208" stroke="rgb(0,0,250)" stroke-width="1" />
<line x1="75" y1="208" x2="80" y2="213" stroke="rgb(0,0,250)" stroke-width="1" />
<circle cx="80" cy="250" r="5" stroke="rgb(0,0,250)" stroke-width="1" fill="none" />
<line x1="123" y1="82" x2="137" y2="82" stroke="rgb(0,0,250)" stroke-width="1" />
<line x1="130" y1="75" x2="130" y2="89" stroke="rgb(0,0,250)" stroke-width="1" />
<line x1="125" y1="129" x2="135" y2="119" stroke="rgb(0,0,250)" stroke-width="1" />
<line x1="125" y1="119" x2="135" y2="129" stroke="rgb(0,0,250)" stroke-width="1" />
<line x1="123" y1="166" x2="137" y2="166" stroke="rgb(0,0,250)" stroke-width="1" />
<line x1="130" y1="159" x2="130" y2="173" stroke="rgb(0,0,250)" stroke-width="1" />
<line x1="125" y1="171" x2="135" y2="161" stroke="rgb(0,0,250)" stroke-width="1" />
<line x1="125" y1="161" x2="135" y2="171" stroke="rgb(0,0,250)" stroke-width="1" />
<line x1="123" y1="208" x2="130" y2="201" stroke="rgb(0,0,250)" stroke-width="1" />
<line x1="130" y1="201" x2="137" y2="208" stroke="rgb(0,0,250)" stroke-width="1" />
<line x1="130" y1="215" x2="137" y2="208" stroke="rgb(0,0,250)" stroke-width="1" />
<line x1="123" y1="208" x2="130" y2="215" stroke="rgb(0,0,250)" stroke-width="1" />
<circle cx="130" cy="250" r="7" stroke="rgb(0,0,250)" stroke-width="1" fill="none" />
<line x1="171" y1="82" x2="189" y2="82" stroke="rgb(0,0,250)" stroke-width="1" />
<line x1="180" y1="73" x2="180" y2="91" stroke="rgb(0,0,250)" stroke-width="1" />
<line x1="174" y1="130" x2="186" y2="118" stroke="rgb(0,0,250)" stroke-width="1" />
<line x1="174" y1="118" x2="186" y2="130" stroke="rgb(0,0,250)" stroke-width="1" />
<line x1="171" y1="166" x2="189" y2="166" stroke="rgb(0,0,250)" stroke-width="1" />
<line x1="180" y1="157" x2="180" y2="175" stroke="rgb(0,0,250)" stroke-width="1" />
<line x1="174" y1="172" x2="186" y2="160" stroke="rgb(0,0,250)" stroke-width="1" />
<line x1="174" y1="160" x2="186" y2="172" stroke="rgb(0,0,250)" stroke-width="1" />
<line x1="171" y1="208" x2="180" y2="199" stroke="rgb(0,0,250)" stroke-width="1" />
<line x1="180" y1="199" x2="189" y2="208" stroke="rgb(0,0,250)" stroke-width="1" />
<line x1="180" y1="217" x2="189" y2="208" stroke="rgb(0,0,250)" stroke-width="1" />
<line x1="171" y1="208" x2="180" y2="217" stroke="rgb(0,0,250)" stroke-width="1" />
<circle cx="180" cy="250" r="9" stroke="rgb(0,0,250)" stroke-width="1" fill="none" />
<line x1="219" y1="82" x2="241" y2="82" stroke="rgb(0,0,250)" stroke-width="1" />
<line x1="230" y1="71" x2="230" y2="93" stroke="rgb(0,0,250)" stroke-width="1" />
<line x1="222" y1="132" x2="238" y2="116" stroke="rgb(0,0,250)" stroke-width="1" />
<line x1="222" y1="116" x2="238" y2="132" stroke="rgb(0,0,250)" stroke-width="1" />
<line x1="219" y1="166" x2="241" y2="166" stroke="rgb(0,0,250)" stroke-width="1" />
<line x1="230" y1="155" x2="230" y2="177" stroke="rgb(0,0,250)" stroke-width="1" />
<line x1="222" y1="174" x2="238" y2="158" stroke="rgb(0,0,250)" stroke-width="1" />
<line x1="222" y1="158" x2="238" y2="174" stroke="rgb(0,0,250)" stroke-width="1" />
<line x1="219" y1="208" x2="230" y2="197" stroke="rgb(0,0,250)" stroke-width="1" />
<line x1="230" y1="197" x2="241" y2="208" stroke="rgb(0,0,250)" stroke-width="1" />
<line x1="230" y1="219" x2="241" y2="208" stroke="rgb(0,0,250)" stroke-width="1" />
<line x1="219" y1="208" x2="230" y2="219" stroke="rgb(0,0,250)" stroke-width="1" />
<circle cx="230" cy="250" r="11" stroke="rgb(0,0,250)" stroke-width="1" fill="none" />
<text x="280" y="82" font-size="20px" fill="#000000">Plus</text>
<text x="280" y="124" font-size="20px" fill="#000000">Times</text>
<text x="280" y="166" font-size="20px" fill="#000000">Star</text>
<text x="280" y="208" font-size="20px" fill="#000000">Diam</text>
<text x="280" y="250" font-size="20px" fill="#000000">Dot</text>
</svg>
