<svg version="1.1" width="596" height="584" style="background-color:white;" xmlns="http://www.w3.org/2000/svg">
<style>
.txt1 { font: bold 12px sans-serif; };
</style>
<polygon stroke="rgb(80,80,80)" stroke-width="1" fill="none" points="483.135,208.494 486.595,206.784 485.635,204.254 486.995,203.084 486.275,202.494 487.605,197.524 489.955,196.174 493.135,190.714 492.415,188.494 498.215,178.234 497.415,176.404 494.795,176.804 493.095,175.614 494.435,174.044 493.465,172.754 494.805,168.004 493.665,166.184 495.505,166.544 492.645,164.884 496.805,164.684 499.015,163.134 502.595,156.394 500.975,156.244 500.015,154.384 503.015,149.664 500.285,147.114 500.735,146.214 496.305,144.764 495.185,147.484 493.185,148.584 493.635,146.894 492.095,146.614 492.055,144.844 493.885,143.684 492.035,143.904 491.955,142.924 488.055,141.734 487.605,139.224 489.045,139.234 489.535,137.464 491.275,137.784 492.735,130.894 494.015,130.134 495.185,134.644 502.165,136.664 502.025,137.814 503.485,138.584 508.725,137.004 512.245,139.274 513.975,137.724 516.395,131.634 520.355,131.444 520.475,132.264 522.915,130.854 525.915,132.894 528.715,131.354 535.325,135.644 541.115,137.154 537.655,141.034 535.185,147.454 530.305,150.294 529.975,152.504 524.795,157.574 523.175,161.144 523.425,165.484 521.865,167.014 520.375,172.994 520.885,177.184 518.745,178.764 517.635,183.744 513.915,190.024 513.615,195.384 515.805,199.234 513.075,204.974 511.955,211.134 512.715,213.934 511.205,216.174 514.515,221.884 514.175,223.644 510.675,225.864 511.985,226.574 510.615,227.024 511.175,228.394 510.235,229.354 507.865,228.564 507.425,229.474 508.865,230.044 505.995,232.424 503.595,231.864 500.055,233.084 499.595,231.984 497.015,231.704 498.335,228.634 495.455,228.084 495.895,226.754 493.525,222.574 490.175,222.004 491.855,217.734 491.465,214.594 487.455,211.634 484.385,210.924 "/>
<rect x="483.135" y="130.134" width="57.98" height="102.95" stroke="rgb(144,103,71)" stroke-width="1" fill="none" />
<polygon stroke="rgb(80,80,80)" stroke-width="1" fill="none" points="225.505,336.114 226.475,337.404 229.285,336.974 231.525,338.644 230.555,341.584 233.065,344.114 235.425,341.284 236.605,342.564 241.625,341.994 244.415,346.704 245.685,345.714 247.785,347.014 245.895,349.964 253.065,352.464 251.525,354.294 254.345,355.664 251.885,358.954 250.705,359.014 250.315,361.924 252.415,362.994 250.335,365.924 252.875,366.844 251.675,368.164 251.465,368.184 253.665,370.104 257.965,370.584 256.555,371.744 259.465,376.754 257.895,377.654 258.065,378.344 259.235,382.834 258.035,383.184 259.195,385.044 255.945,387.124 256.115,389.024 253.305,389.904 254.035,393.154 250.225,396.434 247.095,397.234 247.345,399.034 244.895,401.674 245.295,402.844 241.605,404.954 240.205,404.544 241.675,406.704 241.695,410.254 243.265,411.294 243.505,414.824 238.955,415.054 238.515,416.004 237.645,413.754 236.645,413.924 235.525,418.024 238.905,420.084 237.075,424.904 234.865,425.284 236.195,425.804 236.555,427.944 235.225,428.594 232.195,427.614 232.565,429.484 230.845,429.694 230.115,432.324 226.945,434.474 224.005,431.254 222.465,432.704 218.525,432.654 217.745,434.224 212.435,435.354 211.845,436.434 208.955,434.634 207.325,435.034 205.865,437.464 204.635,435.804 201.675,438.124 202.525,440.694 201.815,441.874 198.495,439.984 199.645,438.554 197.855,436.814 195.385,440.024 191.915,439.404 189.425,441.794 191.635,443.474 190.715,444.084 191.345,446.824 189.975,446.924 191.295,450.984 189.005,452.704 189.325,455.704 187.675,456.374 187.765,457.784 189.105,457.934 189.465,459.824 192.015,459.044 195.365,459.864 195.485,462.064 196.615,461.794 198.605,466.124 196.635,466.634 196.575,469.604 199.335,467.644 199.215,471.804 200.595,473.284 197.445,475.834 198.645,477.594 197.315,480.544 196.325,480.304 196.545,482.914 194.485,482.744 193.295,485.644 191.345,486.474 191.885,490.004 188.535,490.834 187.405,492.634 187.685,496.664 185.765,497.604 186.355,501.434 182.975,504.284 180.975,504.484 178.335,502.684 176.435,505.474 171.185,499.434 168.955,498.764 168.035,494.724 160.175,495.554 153.075,491.554 151.915,492.464 151.025,490.924 148.325,489.794 146.925,490.454 144.995,489.044 146.585,486.214 143.545,487.564 143.145,491.304 139.575,490.304 138.205,487.924 140.645,485.694 141.995,482.204 141.725,478.304 135.645,476.264 134.495,476.584 133.935,478.774 132.605,478.644 131.945,475.514 127.585,476.114 127.245,474.174 125.195,473.014 125.125,471.684 130.155,470.834 132.945,468.284 139.325,456.044 145.535,423.724 147.195,404.484 149.815,397.814 157.685,399.144 157.115,396.654 154.975,395.644 156.455,395.624 150.915,391.004 148.205,395.814 147.615,400.364 146.985,399.324 151.325,349.934 153.915,345.164 155.305,344.144 156.185,346.354 154.585,346.634 155.635,346.704 155.075,347.804 165.965,357.564 170.705,373.484 174.655,377.334 171.605,370.264 169.665,358.654 174.635,359.074 174.975,357.554 175.905,360.504 181.715,361.564 182.675,366.974 182.725,367.234 183.465,369.484 184.315,367.934 185.365,368.134 186.355,369.804 187.765,369.524 188.655,371.154 191.475,372.354 193.435,372.634 195.745,370.754 197.565,372.104 197.865,369.674 199.565,368.924 198.605,368.224 199.735,366.004 201.715,364.564 204.995,365.794 206.675,362.574 210.445,360.434 209.665,356.174 210.855,352.764 212.555,352.194 211.945,350.864 213.115,351.884 215.195,349.304 217.315,349.294 218.035,347.064 220.335,345.424 220.605,340.624 222.865,340.594 "/>
<rect x="125.125" y="336.114" width="134.34" height="169.36" stroke="rgb(32,143,168)" stroke-width="1" fill="none" />
<polygon stroke="rgb(80,80,80)" stroke-width="1" fill="none" points="196.215,475.534 195.975,471.964 195.585,471.774 195.745,473.924 194.535,474.414 195.535,475.374 "/>
<rect x="194.535" y="471.774" width="1.68" height="3.76" stroke="rgb(76,101,151)" stroke-width="1" fill="none" />
<polygon stroke="rgb(80,80,80)" stroke-width="1" fill="none" points="194.625,475.404 194.335,475.624 193.525,477.554 194.305,479.304 196.035,478.064 195.005,475.544 194.765,475.384 "/>
<rect x="193.525" y="475.384" width="2.51" height="3.92" stroke="rgb(137,109,228)" stroke-width="1" fill="none" />
<polygon stroke="rgb(80,80,80)" stroke-width="1" fill="none" points="294.015,293.774 294.755,290.744 295.785,290.734 297.345,287.964 302.585,287.004 304.645,287.814 307.885,285.754 307.435,283.274 305.885,282.414 307.105,280.574 306.035,279.384 307.485,278.634 308.435,279.404 308.285,277.494 311.495,275.784 312.085,274.174 313.965,275.884 315.525,274.804 317.505,275.354 320.595,271.294 325.185,271.174 326.295,273.814 332.175,278.324 335.055,275.874 338.285,277.864 339.625,276.134 341.345,276.054 342.845,279.824 347.165,277.564 346.615,275.524 348.665,275.434 348.325,273.174 349.835,273.594 350.395,276.484 354.475,282.814 354.705,286.634 357.345,287.834 358.735,287.074 359.985,289.674 363.345,289.384 365.405,291.254 364.425,295.054 364.785,299.234 365.605,299.314 363.195,299.664 361.225,302.404 360.955,302.474 360.595,302.524 355.775,304.604 357.465,309.164 356.815,312.214 357.995,313.604 357.325,315.704 358.395,318.934 356.595,320.474 353.015,320.694 352.685,323.044 355.245,325.664 353.625,326.604 353.915,329.964 352.525,331.294 356.335,335.214 356.185,337.204 358.125,340.744 362.695,343.904 364.815,348.764 363.925,352.294 360.845,354.704 361.475,358.294 363.285,355.824 364.845,356.064 366.195,358.654 366.295,357.394 368.395,358.184 368.815,356.864 371.825,356.474 371.455,355.354 372.855,354.834 375.115,355.044 376.735,356.874 379.325,356.274 380.685,358.154 379.195,359.244 380.825,360.204 379.925,361.784 381.435,362.874 383.515,361.784 385.785,364.834 383.995,368.494 384.405,370.944 383.505,371.474 382.975,369.924 380.935,369.484 381.975,371.234 381.975,371.764 380.835,371.684 379.815,373.434 381.185,375.774 377.725,376.784 378.445,379.494 374.755,380.074 371.915,385.344 366.855,385.384 366.595,387.644 365.425,388.444 364.695,387.684 364.935,388.934 363.315,388.034 362.245,391.434 359.665,392.854 358.595,392.644 358.895,391.224 357.505,391.664 355.495,389.554 354.755,387.374 351.565,387.924 351.845,386.294 350.045,384.854 348.535,385.174 348.325,388.074 343.735,389.044 341.195,383.854 341.125,381.314 339.295,379.364 335.745,382.184 333.925,381.674 333.685,384.474 331.855,385.944 329.345,383.544 328.425,385.754 328.185,385.754 327.995,387.624 326.895,387.394 325.805,389.584 325.515,394.504 323.135,398.654 321.265,396.584 320.225,391.844 321.285,391.104 320.595,389.964 319.255,390.214 318.065,385.254 314.465,386.334 314.525,383.054 312.975,381.344 307.485,386.924 307.305,390.064 305.205,392.314 305.635,394.254 303.115,396.064 302.465,398.294 297.005,398.884 295.935,397.144 294.625,397.264 291.375,398.324 290.855,400.204 289.455,398.994 288.965,395.674 287.755,395.614 289.495,390.264 286.155,385.314 286.645,382.574 284.925,379.344 286.575,378.914 286.925,379.004 288.305,377.854 286.465,374.424 289.555,373.124 289.825,369.904 292.015,368.234 290.705,367.304 290.425,364.934 297.305,358.154 296.845,353.724 302.325,356.194 304.305,354.894 302.615,353.294 303.875,345.314 301.535,342.844 302.565,340.194 304.045,340.114 304.125,336.084 298.505,329.254 301.335,326.824 301.515,326.784 302.835,326.964 305.495,324.004 305.815,321.444 307.775,320.534 307.365,316.784 305.225,313.734 305.875,309.604 302.405,302.144 300.295,301.184 299.875,301.964 298.475,299.064 297.525,300.334 294.925,298.364 296.235,296.624 294.305,296.074 "/>
<rect x="284.925" y="271.174" width="100.86" height="129.03" stroke="rgb(170,171,47)" stroke-width="1" fill="none" />
<polygon stroke="rgb(80,80,80)" stroke-width="1" fill="none" points="404.465,205.714 402.915,202.344 401.515,202.554 401.145,203.874 399.945,203.104 401.345,201.154 400.525,199.904 397.995,199.794 399.015,198.174 398.345,197.104 394.485,195.994 389.445,195.674 387.675,197.074 388.445,199.454 378.475,199.874 377.575,202.124 375.575,201.804 374.815,199.214 373.505,199.504 373.815,201.104 372.355,199.984 371.835,200.264 369.985,202.064 367.905,200.844 367.265,202.114 365.595,201.044 361.045,201.864 361.815,198.744 361.035,197.394 360.435,198.804 359.255,198.544 358.735,197.254 360.095,196.564 358.035,194.764 356.745,190.194 354.605,189.284 354.965,187.214 353.555,186.694 353.905,187.814 351.595,188.814 350.065,185.714 347.925,186.044 349.685,183.494 348.825,183.064 349.585,180.814 347.855,179.864 348.265,178.834 344.795,174.724 343.245,174.114 341.655,175.214 341.075,173.244 339.475,172.634 339.015,174.354 337.815,174.514 329.715,174.334 328.175,175.814 325.845,175.164 324.515,178.544 325.845,181.984 324.065,184.644 321.285,186.104 321.275,187.364 325.115,189.214 324.555,190.284 325.375,190.224 325.955,192.934 329.065,195.624 328.015,196.264 329.205,199.154 327.825,200.764 327.575,200.974 324.275,203.274 323.715,205.674 325.245,206.754 324.945,210.634 317.735,212.454 317.575,214.944 318.845,214.734 320.825,217.104 321.955,219.364 321.255,222.204 322.915,224.014 318.105,225.384 318.105,225.164 317.585,225.934 321.015,232.054 318.395,238.144 323.125,242.824 325.155,251.384 324.625,254.844 327.115,257.304 327.185,261.434 325.935,264.354 326.755,267.734 325.185,271.174 326.295,273.814 332.175,278.324 335.055,275.874 338.285,277.864 339.625,276.134 341.345,276.054 342.845,279.824 347.165,277.564 346.615,275.524 348.665,275.434 348.325,273.174 349.835,273.594 350.395,276.484 354.475,282.814 354.705,286.634 357.345,287.834 358.735,287.074 359.985,289.674 363.345,289.384 365.405,291.254 364.425,295.054 364.785,299.234 365.605,299.314 363.195,299.664 361.225,302.404 360.865,306.084 364.285,306.784 364.975,308.784 369.685,307.014 372.815,308.504 374.035,307.274 374.785,308.274 375.975,307.684 375.785,309.424 376.845,309.554 380.885,307.784 382.255,301.214 384.455,301.134 386.335,302.904 389.015,301.324 391.085,303.024 391.875,300.904 393.645,300.594 394.915,302.244 393.625,303.424 395.975,304.954 395.285,307.264 396.895,308.604 397.795,308.364 404.485,287.844 404.885,288.914 406.275,288.074 409.295,289.914 413.855,288.724 413.905,287.814 415.485,288.624 416.715,291.484 419.975,292.184 420.365,291.174 424.235,290.344 424.395,288.814 421.835,287.774 421.785,285.214 423.695,284.044 423.345,282.314 425.235,280.674 423.315,277.824 423.205,275.204 421.875,275.124 423.145,272.674 420.495,269.954 426.245,268.434 423.625,266.744 423.485,265.294 420.585,265.594 419.125,262.434 417.885,263.094 417.485,260.094 420.135,257.984 418.355,257.144 418.705,255.784 422.905,253.774 425.155,249.984 425.135,249.674 427.175,241.224 428.475,240.334 426.545,239.524 426.405,239.524 427.495,238.024 427.015,234.834 426.855,234.734 425.135,234.854 424.875,234.854 425.145,231.314 422.165,230.454 423.875,229.674 423.025,229.434 423.505,228.344 425.555,228.424 427.575,224.884 425.255,220.304 423.325,222.474 422.395,221.834 421.685,222.694 419.675,221.564 417.395,223.574 417.715,220.784 414.155,218.944 414.365,217.214 411.835,219.294 409.185,217.954 409.485,216.294 408.165,216.474 408.135,215.354 405.635,216.854 405.235,212.174 403.435,211.854 406.615,209.334 405.015,205.714 "/>
<rect x="317.575" y="172.634" width="110.9" height="136.92" stroke="rgb(235,159,72)" stroke-width="1" fill="none" />
<polygon stroke="rgb(80,80,80)" stroke-width="1" fill="none" points="64.515,235.164 65.755,236.654 68.275,236.594 69.005,238.724 72.245,239.644 71.685,241.344 64.905,240.344 63.875,237.324 "/>
<rect x="63.875" y="235.164" width="8.37" height="6.18" stroke="rgb(187,138,245)" stroke-width="1" fill="none" />
<polygon stroke="rgb(80,80,80)" stroke-width="1" fill="none" points="65.475,143.344 65.685,145.574 71.255,143.314 71.255,146.354 74.315,146.164 74.635,147.634 72.995,148.864 77.765,150.404 77.075,152.584 82.395,157.104 82.195,160.454 86.685,162.924 85.575,164.874 86.745,164.384 88.355,167.184 87.995,164.384 90.285,165.044 93.305,160.174 96.665,158.744 96.045,157.334 98.175,156.854 98.895,158.324 103.105,154.604 104.555,155.874 102.335,158.904 103.295,159.534 106.225,157.384 107.585,160.974 107.015,163.284 108.185,159.484 108.885,161.654 110.075,159.034 111.155,160.124 110.015,158.074 114.355,157.734 114.795,160.184 116.455,161.264 115.705,161.944 117.455,163.684 116.935,166.724 117.785,164.804 118.875,165.174 116.875,161.184 118.505,162.054 117.945,160.724 115.795,160.274 116.425,159.214 114.945,158.004 116.675,154.944 122.825,153.134 123.145,155.194 121.785,157.784 125.535,159.914 134.075,158.014 137.535,167.104 140.325,168.864 143.125,168.364 147.285,163.674 154.915,165.904 154.455,171.754 155.945,177.104 153.625,181.004 154.555,184.914 154.725,185.074 157.135,197.334 151.385,199.704 147.585,211.324 142.745,209.934 141.715,208.144 137.955,207.704 138.195,209.694 132.005,212.124 130.435,215.444 122.125,215.504 118.185,217.794 117.425,216.414 112.915,219.114 112.235,226.294 109.775,226.984 109.515,228.934 108.625,227.534 106.135,228.644 103.905,227.314 103.125,230.694 99.625,230.984 98.725,229.714 97.295,231.484 95.735,231.364 95.475,228.784 97.995,228.404 95.145,226.814 82.445,229.144 78.465,225.044 76.315,225.034 75.215,223.424 74.585,224.234 73.745,222.654 73.945,224.184 69.655,224.054 69.465,227.474 71.465,230.234 69.325,229.964 68.025,226.524 69.165,225.574 68.565,222.454 62.895,216.934 59.805,216.894 59.585,215.364 55.945,216.284 52.885,212.104 46.585,211.344 44.565,209.564 39.285,210.444 37.325,207.744 38.175,206.254 36.975,206.784 35.495,203.554 33.715,204.734 34.315,206.514 31.545,207.234 28.875,205.474 27.185,206.384 25.325,210.104 18.015,210.114 18.405,204.464 15.795,199.854 12.075,197.204 9.65497,197.534 7.02497,195.754 2.68497,195.114 3.93497,194.834 3.61497,193.534 15.985,190.904 20.615,192.004 22.185,189.484 20.175,184.884 14.035,182.704 12.575,183.124 10.085,186.964 9.53497,182.974 10.735,182.064 7.48497,181.734 7.20497,180.164 9.63497,180.004 9.56497,176.984 11.195,176.344 10.225,178.704 11.075,179.864 12.565,178.164 12.435,180.064 14.545,179.084 16.765,180.444 20.545,179.004 22.475,180.104 24.095,178.014 23.015,178.914 19.295,177.934 20.725,176.964 19.525,176.394 20.085,174.984 17.805,177.234 15.995,177.334 16.815,176.234 14.285,177.214 16.695,173.684 15.715,172.904 8.08497,176.484 5.02497,175.424 3.92497,176.914 1.21497,177.044 0.484973,175.054 1.67497,173.744 0.284973,171.814 1.70497,168.454 1.04497,165.444 2.99497,162.904 7.95497,161.634 8.14497,159.904 9.89497,160.294 10.785,157.854 12.575,158.844 16.635,157.834 15.165,156.754 18.925,155.334 21.005,156.124 21.015,158.064 25.195,156.924 24.065,156.494 25.565,154.724 29.155,154.194 30.845,155.394 31.095,153.534 32.985,152.184 33.245,153.174 34.525,152.194 34.455,155.534 36.125,156.244 36.375,153.984 36.455,155.534 39.665,156.384 39.295,154.564 40.275,152.994 40.725,153.854 40.605,152.694 46.565,154.774 48.055,154.164 47.445,156.494 48.915,154.774 50.625,155.774 50.555,152.364 52.005,151.064 50.515,150.304 51.245,147.914 50.415,147.224 51.755,148.134 53.845,145.134 54.385,146.324 54.835,145.244 55.715,146.624 57.005,146.294 56.475,147.724 58.245,147.594 61.485,145.194 63.845,145.444 "/>
<rect x="0.284973" y="143.314" width="156.85" height="88.17" stroke="rgb(22,80,68)" stroke-width="1" fill="none" />
<polygon stroke="rgb(80,80,80)" stroke-width="1" fill="none" points="261.685,138.794 264.255,141.944 263.535,143.214 265.715,145.154 265.015,150.084 266.895,150.984 264.825,153.744 266.285,154.624 265.865,156.114 268.515,159.304 270.545,159.284 270.295,161.624 273.535,163.094 273.065,165.614 274.135,168.524 276.965,170.164 279.475,169.124 279.375,172.304 281.435,172.584 281.875,174.954 280.615,178.254 281.225,179.614 289.155,178.964 288.665,177.874 289.895,178.164 290.795,176.124 292.565,176.884 292.545,178.964 294.765,178.104 294.985,177.694 295.975,176.814 297.275,178.384 299.155,177.894 299.965,181.374 303.845,183.474 303.865,187.114 302.435,187.264 300.795,189.794 305.595,188.734 311.665,189.824 313.685,188.464 312.945,187.134 314.045,187.964 315.545,187.014 316.395,189.424 318.335,187.794 321.275,187.364 325.115,189.214 324.555,190.284 325.375,190.224 325.955,192.934 329.065,195.624 328.015,196.264 329.205,199.154 327.825,200.764 327.575,200.974 324.275,203.274 323.715,205.674 325.245,206.754 324.945,210.634 317.735,212.454 317.575,214.944 318.845,214.734 320.825,217.104 321.955,219.364 321.255,222.204 322.915,224.014 318.105,225.384 318.105,225.164 317.585,225.934 321.015,232.054 318.395,238.144 323.125,242.824 325.155,251.384 324.625,254.844 327.115,257.304 327.185,261.434 325.935,264.354 326.755,267.734 325.185,271.174 320.595,271.294 317.505,275.354 315.525,274.804 313.965,275.884 312.085,274.174 311.495,275.784 308.285,277.494 308.435,279.404 307.485,278.634 306.035,279.384 307.105,280.574 305.885,282.414 307.435,283.274 307.885,285.754 304.645,287.814 302.585,287.004 297.345,287.964 295.785,290.734 294.755,290.744 294.015,293.774 290.535,293.254 286.045,294.364 281.495,292.374 275.695,293.414 273.365,291.564 271.895,291.944 272.415,293.434 271.125,295.544 269.325,293.854 266.955,295.674 266.165,293.674 263.485,295.404 262.695,293.354 258.105,298.194 255.555,294.974 253.865,295.264 253.465,296.674 249.935,297.014 249.545,295.554 248.255,295.864 249.015,294.854 249.655,292.934 247.115,292.044 246.845,288.524 244.715,286.754 241.675,286.784 241.455,284.934 237.145,282.874 236.395,281.174 237.855,277.274 237.245,275.294 233.195,271.534 232.415,267.874 228.605,264.634 228.075,260.354 225.005,258.304 222.935,258.394 224.205,261.364 220.355,261.264 217.575,263.044 214.535,261.834 212.805,262.974 211.465,259.334 212.355,258.854 211.955,255.644 210.515,256.164 209.555,254.404 206.785,255.164 207.685,253.184 206.925,251.744 206.105,252.604 204.975,252.224 205.195,251.144 202.705,251.504 201.615,248.774 202.565,241.614 206.925,235.504 205.705,234.424 208.555,228.254 208.745,226.594 207.415,225.864 209.065,222.344 209.015,221.824 215.305,223.964 216.105,223.454 214.505,220.934 215.285,219.464 218.025,220.964 218.635,219.384 224.115,217.724 225.065,216.424 224.105,216.714 223.685,214.904 225.385,212.814 228.495,211.884 228.115,210.884 231.275,207.874 230.935,203.654 232.145,202.964 233.035,204.414 233.205,201.714 234.595,201.224 233.335,198.384 234.315,195.684 232.445,195.224 232.295,193.154 234.345,193.004 234.435,191.634 233.115,191.344 234.265,191.074 234.675,189.244 237.365,188.904 232.465,185.464 233.815,184.264 232.065,181.324 232.815,179.574 230.705,178.914 231.315,177.494 237.295,174.354 239.865,170.134 238.205,167.874 239.475,164.934 233.355,159.404 233.215,155.774 235.215,154.664 235.745,152.924 240.415,152.304 241.275,152.304 243.505,150.234 245.665,150.974 245.925,148.284 250.115,150.254 254.675,150.054 256.335,148.804 255.905,145.454 259.985,143.094 259.475,139.844 "/>
<rect x="201.615" y="138.794" width="127.59" height="159.4" stroke="rgb(102,214,229)" stroke-width="1" fill="none" />
<polygon stroke="rgb(80,80,80)" stroke-width="1" fill="none" points="400.085,61.3239 402.605,62.4539 401.415,63.5539 401.595,65.6039 400.725,64.7239 399.435,67.0839 400.315,68.8239 398.175,73.2839 402.275,77.0939 400.565,79.8439 401.715,82.8639 400.755,84.5739 406.725,84.1239 410.835,86.5139 413.825,90.9639 418.155,90.8039 420.695,93.4839 419.965,96.2139 421.375,94.9539 423.365,95.8739 417.825,100.644 416.685,98.8839 413.725,99.2939 412.885,97.5239 411.605,97.4239 410.675,100.604 410.605,100.984 409.385,103.264 411.545,105.984 411.715,108.434 410.125,109.504 411.125,111.054 409.165,111.744 407.965,115.394 409.265,116.414 409.025,117.664 404.895,120.014 406.595,121.794 404.405,123.324 407.105,130.674 405.485,133.654 407.285,132.764 408.435,133.524 408.345,135.444 406.695,136.034 408.565,136.664 407.605,138.844 404.365,140.184 404.185,140.364 403.295,143.314 404.335,144.934 402.395,147.694 407.355,151.254 406.905,159.184 409.325,158.124 409.905,160.404 411.895,160.434 415.745,164.634 420.565,165.804 426.395,171.194 423.255,173.184 425.265,173.924 424.635,176.914 426.815,175.364 428.695,175.884 431.365,180.484 432.305,179.374 434.055,180.864 433.545,182.494 435.455,182.974 437.215,185.224 435.175,186.384 434.765,190.794 432.995,192.214 435.845,192.754 436.905,194.784 439.175,195.424 439.625,200.424 442.095,198.994 443.665,202.064 443.645,203.654 442.245,203.264 441.055,205.444 441.305,206.604 438.515,206.154 437.725,208.584 435.625,208.534 435.005,211.104 436.365,213.094 435.615,216.914 431.715,217.684 430.495,215.514 428.755,217.634 423.975,217.544 422.395,221.834 421.685,222.694 419.675,221.564 417.395,223.574 417.715,220.784 414.155,218.944 414.365,217.214 411.835,219.294 409.185,217.954 409.485,216.294 408.165,216.474 408.135,215.354 405.635,216.854 405.235,212.174 403.435,211.854 406.615,209.334 405.015,205.714 404.465,205.714 402.915,202.344 401.515,202.554 401.145,203.874 399.945,203.104 401.345,201.154 400.525,199.904 397.995,199.794 399.015,198.174 398.345,197.104 394.485,195.994 389.445,195.674 387.675,197.074 388.445,199.454 378.475,199.874 377.575,202.124 375.575,201.804 374.815,199.214 373.505,199.504 373.815,201.104 372.355,199.984 371.835,200.264 369.985,202.064 367.905,200.844 367.265,202.114 365.595,201.044 361.045,201.864 361.815,198.744 361.035,197.394 360.435,198.804 359.255,198.544 358.735,197.254 360.095,196.564 358.035,194.764 356.745,190.194 354.605,189.284 354.965,187.214 353.555,186.694 353.905,187.814 351.595,188.814 350.065,185.714 347.925,186.044 349.685,183.494 348.825,183.064 349.585,180.814 347.855,179.864 348.265,178.834 344.795,174.724 343.245,174.114 341.655,175.214 341.075,173.244 339.765,167.634 342.025,166.964 340.725,164.624 343.815,163.764 343.145,161.964 345.185,160.754 344.675,159.824 347.085,159.084 345.455,158.064 346.035,157.224 342.585,157.924 343.295,151.484 340.235,150.214 342.265,148.214 340.605,147.064 344.085,146.734 344.005,144.334 345.785,140.564 347.545,140.404 347.685,138.844 348.905,138.624 348.365,137.534 352.005,134.134 350.885,132.304 348.165,132.694 348.235,131.224 350.365,130.154 348.815,127.474 349.705,125.524 353.145,126.044 354.945,124.994 354.975,123.584 353.555,123.854 352.895,121.954 352.205,122.574 351.025,121.574 352.035,120.184 350.665,115.184 356.175,112.464 359.225,113.194 359.405,110.944 362.235,109.254 363.725,111.124 366.925,112.214 366.985,107.244 368.255,106.784 367.125,102.874 368.705,101.744 367.475,100.444 368.645,98.7639 366.385,95.5139 367.115,94.5039 370.185,94.8039 370.655,91.9239 373.095,90.5839 375.785,86.8639 373.965,85.3939 375.925,79.7239 376.025,77.4339 374.445,76.8039 375.045,73.9039 378.275,73.2339 383.935,75.2739 390.225,72.1039 394.155,71.5339 393.625,66.9839 394.545,65.1239 399.615,60.3939 "/>
<rect x="339.765" y="60.3939" width="103.9" height="163.18" stroke="rgb(89,230,151)" stroke-width="1" fill="none" />
<polygon stroke="rgb(80,80,80)" stroke-width="1" fill="none" points="563.655,571.654 564.865,568.974 567.695,568.684 569.485,566.424 565.175,564.954 563.905,565.754 563.625,563.464 560.805,564.554 560.705,563.574 558.805,563.504 561.785,561.504 561.015,560.074 563.495,559.554 563.985,558.394 562.625,557.694 564.185,557.394 563.775,555.594 564.795,554.894 562.515,552.784 561.305,554.184 556.685,554.974 557.325,552.684 556.055,551.004 558.375,550.814 558.865,548.374 562.485,546.304 560.515,542.814 558.825,543.474 556.865,541.564 555.565,541.934 555.745,540.624 554.595,540.954 556.085,539.694 554.735,539.514 555.565,537.604 553.865,535.824 560.295,534.184 558.865,532.184 556.545,532.004 556.985,529.534 554.405,530.424 554.065,528.114 556.735,527.484 556.595,525.814 558.655,525.874 558.375,524.354 559.685,522.864 558.395,522.324 559.135,520.244 561.365,519.704 560.785,517.224 561.595,516.374 561.665,517.684 562.815,517.114 564.215,518.114 564.765,515.374 567.455,515.044 570.165,512.894 573.605,513.194 575.485,512.064 575.375,510.084 578.155,508.104 582.185,507.894 585.375,511.194 587.285,507.854 587.185,504.534 585.815,502.384 587.095,500.544 586.335,498.614 587.965,497.254 587.085,493.304 590.535,492.324 592.215,493.734 593.435,503.874 591.485,511.294 595.085,518.434 596.165,538.184 595.775,543.314 590.075,551.664 589.025,568.724 587.195,569.464 587.715,570.314 585.785,569.664 584.565,571.444 584.935,572.624 586.205,570.964 588.325,571.554 587.255,573.504 584.365,575.084 584.565,578.744 582.265,579.944 581.685,581.554 584.025,580.734 583.775,581.544 582.175,584.154 580.465,584.284 579.515,582.734 576.875,582.634 578.005,580.234 575.905,579.874 576.295,577.844 574.635,579.194 572.935,577.354 572.305,578.244 569.685,577.404 567.855,575.464 566.465,575.824 566.925,574.214 564.165,573.724 564.875,572.664 "/>
<rect x="553.865" y="492.324" width="42.3" height="91.96" stroke="rgb(139,124,234)" stroke-width="1" fill="none" />
<polygon stroke="rgb(80,80,80)" stroke-width="1" fill="none" points="443.665,202.064 445.675,198.884 446.805,199.454 445.465,201.314 446.365,201.454 448.575,200.184 450.115,197.274 454.075,196.294 454.175,196.364 454.635,199.564 456.935,201.374 456.935,201.694 464.615,199.924 466.525,201.094 468.305,204.564 473.495,200.834 475.275,203.434 483.135,208.494 484.385,210.924 487.455,211.634 491.465,214.594 491.855,217.734 490.175,222.004 493.525,222.574 495.895,226.754 495.455,228.084 489.245,228.634 490.025,231.114 487.465,232.384 484.925,237.284 490.625,236.054 491.975,236.704 492.255,238.444 490.375,239.004 489.805,240.834 487.585,241.294 488.095,244.014 483.365,248.334 484.095,248.764 483.265,249.724 477.615,253.794 478.295,255.684 474.225,259.204 469.055,260.334 466.355,263.134 467.695,265.504 466.315,270.144 467.205,272.394 453.015,284.354 454.935,286.244 451.445,291.204 451.115,294.004 443.015,303.074 437.025,303.304 436.545,300.404 433.755,299.514 433.605,298.284 429.285,302.844 426.575,303.094 426.645,300.024 425.055,300.034 424.525,298.084 423.675,300.324 421.915,296.744 422.565,296.024 419.335,294.174 419.975,292.184 420.365,291.174 424.235,290.344 424.395,288.814 421.835,287.774 421.785,285.214 423.695,284.044 423.345,282.314 425.235,280.674 423.315,277.824 423.205,275.204 421.875,275.124 423.145,272.674 420.495,269.954 426.245,268.434 423.625,266.744 423.485,265.294 420.585,265.594 419.125,262.434 417.885,263.094 417.485,260.094 420.135,257.984 418.355,257.144 418.705,255.784 422.905,253.774 425.155,249.984 425.135,249.674 427.175,241.224 428.475,240.334 426.545,239.524 426.405,239.524 427.495,238.024 427.015,234.834 426.855,234.734 425.135,234.854 424.875,234.854 425.145,231.314 422.165,230.454 423.875,229.674 423.025,229.434 423.505,228.344 425.555,228.424 427.575,224.884 425.255,220.304 423.325,222.474 422.395,221.834 423.975,217.544 428.755,217.634 430.495,215.514 431.715,217.684 435.615,216.914 436.365,213.094 435.005,211.104 435.625,208.534 437.725,208.584 438.515,206.154 441.305,206.604 441.055,205.444 442.245,203.264 443.645,203.654 "/>
<rect x="417.485" y="196.294" width="78.41" height="107.01" stroke="rgb(190,136,128)" stroke-width="1" fill="none" />
<polygon stroke="rgb(80,80,80)" stroke-width="1" fill="none" points="270.075,120.404 271.575,120.884 271.055,122.744 271.435,122.734 272.185,123.964 274.215,123.344 277.525,124.774 282.455,123.944 285.735,121.764 289.455,124.724 291.445,123.724 292.045,125.504 294.225,124.964 295.395,123.274 297.215,125.704 297.935,124.964 300.635,125.794 300.395,126.614 301.465,126.144 303.285,127.604 302.725,128.324 304.465,128.734 305.305,127.174 306.595,129.994 308.645,128.184 312.845,131.184 315.925,128.914 317.735,130.584 322.595,129.244 323.375,130.534 324.265,129.244 326.655,129.644 326.795,127.634 329.635,128.324 331.795,131.864 330.825,134.254 334.305,136.764 334.855,138.884 336.525,138.264 337.525,140.824 339.125,139.544 339.765,143.094 342.365,143.824 343.005,145.254 344.005,144.334 344.085,146.734 340.605,147.064 342.265,148.214 340.235,150.214 343.295,151.484 342.585,157.924 346.035,157.224 345.455,158.064 347.085,159.084 344.675,159.824 345.185,160.754 343.145,161.964 343.815,163.764 340.725,164.624 342.025,166.964 339.765,167.634 341.075,173.244 339.475,172.634 339.015,174.354 337.815,174.514 329.715,174.334 328.175,175.814 325.845,175.164 324.515,178.544 325.845,181.984 324.065,184.644 321.285,186.104 321.275,187.364 318.335,187.794 316.395,189.424 315.545,187.014 314.045,187.964 312.945,187.134 313.685,188.464 311.665,189.824 305.595,188.734 300.795,189.794 302.435,187.264 303.865,187.114 303.845,183.474 299.965,181.374 299.155,177.894 297.275,178.384 295.975,176.814 294.985,177.694 294.765,178.104 292.545,178.964 292.565,176.884 290.795,176.124 289.895,178.164 288.665,177.874 289.155,178.964 281.225,179.614 280.615,178.254 281.875,174.954 281.435,172.584 279.375,172.304 279.475,169.124 276.965,170.164 274.135,168.524 273.065,165.614 273.535,163.094 270.295,161.624 270.545,159.284 268.515,159.304 265.865,156.114 266.285,154.624 264.825,153.744 266.895,150.984 265.015,150.084 265.715,145.154 263.535,143.214 264.255,141.944 261.685,138.794 261.325,137.104 262.425,136.384 260.405,136.554 260.745,134.144 259.485,131.654 261.155,131.834 262.035,129.634 262.485,130.654 262.705,130.654 266.705,129.634 "/>
<rect x="259.485" y="120.404" width="87.6" height="69.42" stroke="rgb(108,193,209)" stroke-width="1" fill="none" />
<polygon stroke="rgb(80,80,80)" stroke-width="1" fill="none" points="323.135,398.654 325.515,394.514 325.805,389.594 326.895,387.404 327.995,387.634 328.185,385.764 328.425,385.764 329.345,383.554 331.845,385.954 333.685,384.484 333.925,381.694 335.745,382.204 339.285,379.384 341.115,381.334 341.185,383.884 343.725,389.064 348.315,388.104 348.515,385.204 350.025,384.884 351.825,386.324 351.555,387.944 354.745,387.404 355.475,389.584 357.485,391.694 358.875,391.254 358.575,392.674 359.645,392.884 361.375,401.594 363.435,402.964 364.915,408.684 368.265,412.554 367.085,413.364 367.405,417.544 370.805,416.524 376.095,420.664 378.965,416.424 381.695,415.954 381.845,419.194 383.605,419.614 384.235,416.424 386.395,416.114 392.375,420.344 393.355,423.524 394.775,423.594 395.365,425.144 395.325,431.244 398.065,432.154 400.475,436.564 399.205,436.624 399.215,438.064 392.055,443.604 393.125,444.854 390.855,451.684 391.485,453.974 387.835,452.734 385.565,453.304 383.095,457.494 384.995,458.154 384.565,459.474 379.245,462.554 378.415,461.444 378.825,462.994 375.425,464.644 374.985,466.894 371.025,465.424 370.365,464.094 371.195,462.804 369.865,461.614 364.265,462.034 353.985,470.314 350.635,471.284 344.935,477.884 345.135,476.894 344.865,477.814 337.715,476.644 338.085,477.844 331.415,483.264 327.335,489.854 325.765,495.024 326.465,497.654 325.145,509.724 325.905,518.924 329.795,520.274 329.335,522.164 331.165,524.824 327.495,525.344 325.605,522.674 322.545,523.104 321.715,522.164 320.495,523.614 317.245,523.474 314.705,526.104 312.845,525.424 310.405,526.514 309.455,527.544 310.285,530.114 306.335,529.124 304.405,530.554 302.405,530.144 300.365,527.164 293.055,524.664 290.755,525.914 288.845,525.474 285.935,528.904 283.075,529.694 280.875,527.784 279.655,523.824 277.435,524.034 275.035,521.904 271.115,521.454 271.505,518.044 273.505,517.004 276.935,516.654 278.245,514.684 281.275,514.584 282.285,512.094 289.175,511.984 289.715,510.974 285.905,507.014 282.555,508.024 278.785,506.644 279.305,505.654 276.525,502.964 277.195,501.324 281.815,500.304 281.555,496.964 279.645,496.244 280.625,495.004 282.655,495.094 281.115,492.504 281.775,491.114 279.955,490.094 280.855,489.104 280.395,486.604 278.855,485.444 277.805,486.454 276.195,483.944 276.185,484.734 273.395,484.414 270.255,482.204 270.915,480.284 269.445,477.524 271.375,475.204 270.815,473.644 274.605,473.664 274.105,470.744 276.205,467.894 277.965,470.544 278.925,469.124 279.165,469.144 281.865,469.814 283.885,468.274 285.345,470.544 289.405,469.364 291.245,471.224 291.525,468.504 293.045,466.894 298.785,469.374 300.255,468.264 307.545,468.534 310.055,466.304 310.315,463.684 307.875,460.794 309.125,455.444 312.215,456.314 313.675,458.064 319.945,455.744 320.615,453.744 323.215,452.654 326.365,453.574 326.485,445.444 332.705,446.644 334.195,445.734 333.615,443.834 334.835,442.014 338.115,442.044 338.715,438.874 342.165,436.024 342.445,434.504 339.975,432.644 338.425,433.114 337.525,431.494 336.045,432.074 334.735,430.634 337.205,429.764 337.745,426.874 339.315,426.224 338.895,424.424 332.345,425.014 333.425,422.674 330.545,421.844 330.175,420.084 328.875,420.824 330.255,418.184 328.815,414.994 329.855,410.654 326.615,406.914 327.405,403.644 "/>
<rect x="269.445" y="379.384" width="131.03" height="151.17" stroke="rgb(239,80,69)" stroke-width="1" fill="none" />
<polygon stroke="rgb(80,80,80)" stroke-width="1" fill="none" points="280.205,523.434 282.425,524.024 281.425,521.794 "/>
<rect x="280.205" y="521.794" width="2.22" height="2.23" stroke="rgb(218,231,221)" stroke-width="1" fill="none" />
<polygon stroke="rgb(80,80,80)" stroke-width="1" fill="none" points="248.255,295.864 249.545,295.554 249.935,297.014 253.465,296.674 253.865,295.264 255.555,294.974 258.105,298.194 262.695,293.354 263.485,295.404 266.165,293.674 266.955,295.674 269.325,293.854 271.125,295.544 272.415,293.434 271.895,291.944 273.365,291.564 275.695,293.414 281.495,292.374 286.045,294.364 290.535,293.254 294.015,293.774 294.305,296.074 296.235,296.624 294.925,298.364 297.525,300.334 298.475,299.064 299.875,301.964 300.295,301.184 302.405,302.144 305.875,309.604 305.225,313.734 307.365,316.784 307.775,320.534 305.815,321.444 305.495,324.004 302.835,326.964 301.515,326.784 301.335,326.824 298.505,329.254 304.125,336.084 304.045,340.114 302.565,340.194 301.535,342.844 303.875,345.314 302.615,353.294 304.305,354.894 302.325,356.194 296.845,353.724 297.305,358.154 290.425,364.934 290.705,367.304 292.015,368.234 289.825,369.904 289.555,373.124 286.465,374.424 288.305,377.854 286.925,379.004 286.575,378.914 284.925,379.344 281.795,379.444 280.225,380.724 278.575,379.244 274.175,382.454 272.035,381.604 267.715,376.264 263.535,376.194 263.215,375.174 259.475,376.754 256.565,371.744 257.975,370.584 253.675,370.104 251.465,368.194 251.675,368.164 252.885,366.844 250.335,365.924 252.415,363.004 250.315,361.924 250.705,359.014 251.885,358.954 254.345,355.664 251.525,354.294 253.055,352.464 245.885,349.964 247.775,347.014 245.675,345.714 244.415,346.704 241.615,341.994 236.595,342.564 235.415,341.284 233.065,344.114 230.545,341.584 231.515,338.644 229.275,336.974 226.465,337.404 225.505,336.114 229.015,333.024 228.885,330.534 231.825,331.284 233.645,325.864 233.025,322.964 235.935,323.494 238.635,320.664 237.715,318.254 236.035,316.924 234.955,317.754 233.135,315.844 233.985,313.114 232.965,311.504 234.505,310.664 232.265,306.184 234.675,305.064 236.815,301.634 241.095,302.134 242.875,297.194 246.255,298.094 247.395,295.574 "/>
<rect x="225.505" y="291.564" width="82.27" height="90.89" stroke="rgb(246,216,130)" stroke-width="1" fill="none" />
<polygon stroke="rgb(80,80,80)" stroke-width="1" fill="none" points="424.305,96.8839 425.835,98.9939 426.555,103.444 430.035,101.394 432.315,102.844 433.595,100.114 437.895,100.834 439.025,99.2839 441.685,100.594 442.995,103.394 447.045,103.734 447.685,106.444 450.175,106.664 451.475,105.424 452.595,106.284 453.715,103.764 458.355,102.434 463.575,105.874 466.235,104.824 471.545,108.324 470.845,109.534 473.385,111.864 471.985,113.044 476.255,117.304 475.875,118.644 477.065,119.224 477.335,121.364 478.505,121.214 478.005,123.174 479.125,124.634 483.145,125.334 484.245,123.584 483.255,121.564 487.415,120.924 491.365,122.964 492.085,127.824 494.065,125.194 496.465,127.434 500.155,126.834 502.145,127.784 503.485,125.974 504.995,125.994 505.095,124.214 508.405,123.444 508.035,124.644 510.455,124.374 511.875,128.884 516.165,130.414 516.395,131.634 513.975,137.724 512.245,139.274 508.725,137.004 503.485,138.584 502.025,137.814 502.165,136.664 495.185,134.644 494.015,130.134 492.735,130.894 491.275,137.784 489.535,137.464 489.045,139.234 487.605,139.224 488.055,141.734 491.955,142.924 492.035,143.904 493.885,143.684 492.055,144.844 492.095,146.614 493.635,146.894 493.185,148.584 495.185,147.484 496.305,144.764 500.735,146.214 500.285,147.114 503.015,149.664 500.015,154.384 500.975,156.244 502.595,156.394 499.015,163.134 496.805,164.684 492.645,164.884 495.505,166.544 493.665,166.184 494.805,168.004 493.465,172.754 494.435,174.044 493.095,175.614 494.795,176.804 497.415,176.404 498.215,178.234 492.415,188.494 493.135,190.714 489.955,196.174 487.605,197.524 486.275,202.494 486.995,203.084 485.635,204.254 486.595,206.784 483.135,208.494 475.275,203.434 473.495,200.834 468.305,204.564 466.525,201.094 464.615,199.924 456.935,201.694 456.935,201.374 454.635,199.564 454.175,196.364 454.075,196.294 450.115,197.274 448.575,200.184 446.365,201.454 445.465,201.314 446.805,199.454 445.675,198.884 443.665,202.064 442.095,198.994 439.625,200.424 439.175,195.424 436.905,194.784 435.845,192.754 432.995,192.214 434.765,190.794 435.175,186.384 437.215,185.224 435.455,182.974 433.545,182.494 434.055,180.864 432.305,179.374 431.365,180.484 428.695,175.884 426.815,175.364 424.635,176.914 425.265,173.924 423.255,173.184 426.395,171.194 420.565,165.804 415.745,164.634 411.895,160.434 409.905,160.404 409.325,158.124 406.905,159.184 407.355,151.254 402.395,147.694 404.335,144.934 403.295,143.314 404.185,140.364 404.365,140.184 407.605,138.844 408.565,136.664 406.695,136.034 408.345,135.444 408.435,133.524 407.285,132.764 405.485,133.654 407.105,130.674 404.405,123.324 406.595,121.794 404.895,120.014 409.025,117.664 409.265,116.414 407.965,115.394 409.165,111.744 411.125,111.054 410.125,109.504 411.715,108.434 411.545,105.984 409.385,103.264 410.605,100.984 410.675,100.604 411.605,97.4239 412.885,97.5239 413.725,99.2939 416.685,98.8839 417.825,100.644 423.365,95.8739 "/>
<rect x="402.395" y="95.8739" width="114" height="112.62" stroke="rgb(68,153,249)" stroke-width="1" fill="none" />
<polygon stroke="rgb(80,80,80)" stroke-width="1" fill="none" points="194.755,475.384 194.995,475.544 196.025,478.064 194.295,479.304 193.515,477.554 194.325,475.624 194.615,475.404 "/>
<rect x="193.515" y="475.384" width="2.51" height="3.92" stroke="rgb(63,156,80)" stroke-width="1" fill="none" />
<polygon stroke="rgb(80,80,80)" stroke-width="1" fill="none" points="195.975,471.964 196.215,475.534 195.525,475.364 194.525,474.404 195.735,473.914 195.575,471.764 "/>
<rect x="194.525" y="471.764" width="1.69" height="3.77" stroke="rgb(112,238,45)" stroke-width="1" fill="none" />
<polygon stroke="rgb(80,80,80)" stroke-width="1" fill="none" points="259.475,376.754 263.215,375.174 263.535,376.194 267.715,376.264 272.035,381.614 274.175,382.464 278.575,379.254 280.225,380.734 281.805,379.454 284.925,379.354 286.645,382.584 286.155,385.324 289.495,390.264 287.755,395.624 288.975,395.674 289.465,398.994 290.855,400.204 291.385,398.324 294.635,397.264 295.955,397.144 297.015,398.884 302.475,398.294 303.125,396.074 305.645,394.264 305.225,392.324 307.325,390.064 307.495,386.934 312.995,381.354 314.545,383.064 314.485,386.344 318.085,385.264 319.275,390.224 320.615,389.964 321.305,391.104 320.245,391.844 321.295,396.584 323.155,398.644 327.465,403.594 326.675,406.864 329.915,410.604 328.875,414.944 330.315,418.134 328.935,420.774 330.235,420.034 330.605,421.794 333.485,422.624 332.405,424.964 338.955,424.374 339.375,426.174 337.805,426.824 337.265,429.714 334.795,430.584 336.105,432.024 337.585,431.444 338.485,433.064 340.035,432.594 342.505,434.454 342.225,435.974 338.775,438.824 338.175,441.994 334.895,441.964 333.675,443.784 334.255,445.684 332.765,446.594 326.545,445.394 326.425,453.524 323.275,452.604 320.675,453.694 320.005,455.694 313.735,458.014 312.275,456.264 309.185,455.394 307.935,460.744 310.375,463.634 310.115,466.254 307.605,468.484 300.315,468.214 298.845,469.324 293.105,466.844 291.585,468.454 291.305,471.174 289.465,469.314 285.405,470.494 283.945,468.224 281.925,469.764 279.225,469.094 278.985,469.074 278.025,470.494 276.265,467.844 274.165,470.694 274.665,473.614 270.875,473.594 271.435,475.154 269.505,477.474 270.975,480.234 270.315,482.154 273.455,484.364 276.245,484.684 276.255,483.894 277.865,486.404 278.915,485.394 280.455,486.554 280.915,489.054 280.015,490.044 281.835,491.064 281.175,492.454 282.715,495.044 280.685,494.954 279.705,496.194 281.615,496.914 281.875,500.254 277.255,501.274 276.585,502.914 279.365,505.604 278.845,506.594 282.615,507.974 285.965,506.964 289.775,510.924 289.235,511.934 282.345,512.044 281.335,514.534 278.305,514.634 276.995,516.604 273.565,516.954 273.805,516.184 271.035,516.054 271.445,514.554 265.775,514.004 263.755,512.364 260.825,512.594 260.735,514.694 259.065,515.334 255.715,508.794 250.505,508.314 247.965,509.394 244.225,504.904 240.265,505.004 239.285,503.924 237.865,504.854 228.815,500.764 226.765,502.024 227.225,503.944 226.175,505.174 227.075,505.604 226.055,506.754 227.545,508.354 227.445,510.344 224.185,509.524 216.925,510.364 214.335,508.494 211.605,511.344 210.165,508.964 206.705,507.774 199.305,510.704 197.035,510.294 196.545,508.874 194.735,508.404 192.745,504.344 191.605,504.964 186.415,501.444 185.825,497.614 187.745,496.674 187.465,492.644 188.595,490.844 191.945,490.014 191.405,486.484 193.355,485.654 194.545,482.754 196.605,482.924 196.385,480.314 197.375,480.554 198.705,477.604 197.505,475.844 200.655,473.294 199.275,471.814 199.395,467.654 196.635,469.614 196.695,466.644 198.665,466.134 196.675,461.804 195.545,462.074 195.425,459.874 192.075,459.054 189.525,459.834 189.165,457.944 187.825,457.794 187.735,456.384 189.385,455.714 189.065,452.714 191.355,450.994 190.035,446.934 191.405,446.834 190.775,444.094 191.695,443.484 189.485,441.804 191.975,439.414 195.445,440.034 197.915,436.824 199.705,438.564 198.555,439.994 201.875,441.884 202.585,440.704 201.735,438.134 204.695,435.814 205.925,437.474 207.385,435.044 209.015,434.644 211.905,436.444 212.495,435.364 217.805,434.234 218.585,432.664 222.525,432.714 224.065,431.264 227.005,434.484 230.175,432.334 230.905,429.704 232.625,429.494 232.255,427.624 235.285,428.604 236.615,427.954 236.255,425.814 234.925,425.294 237.135,424.914 238.965,420.094 235.585,418.034 236.705,413.934 237.705,413.764 238.575,416.014 239.015,415.064 243.565,414.834 243.325,411.304 241.755,410.264 241.735,406.714 240.265,404.554 241.665,404.964 245.355,402.854 244.955,401.684 247.405,399.044 247.155,397.244 250.285,396.444 254.105,393.154 253.375,389.904 256.185,389.024 256.015,387.124 259.265,385.044 258.105,383.184 259.305,382.834 258.135,378.344 257.965,377.654 "/>
<rect x="185.825" y="375.174" width="156.68" height="141.78" stroke="rgb(92,77,25)" stroke-width="1" fill="none" />
<polygon stroke="rgb(80,80,80)" stroke-width="1" fill="none" points="305.695,2.57393 306.225,6.03393 308.635,9.66393 306.905,11.4839 307.295,16.0839 308.775,18.5239 312.415,18.6639 315.375,24.3039 317.545,24.4039 320.025,26.4139 321.935,22.5039 330.175,20.0139 331.835,24.2539 334.715,25.7939 333.825,28.6439 335.995,37.3539 339.505,39.5139 342.465,38.5139 343.605,36.7739 345.435,37.4039 344.675,39.7639 349.155,39.1939 351.315,41.7539 351.245,47.3839 353.315,51.5639 354.955,48.5739 359.215,48.5139 361.365,50.1439 366.455,48.0639 368.605,51.1839 370.295,51.6639 371.155,54.6139 372.385,54.5939 372.185,52.5939 374.105,53.7039 374.635,54.9539 371.715,57.5339 371.895,60.7539 370.795,62.6639 373.775,62.7039 375.025,66.8139 372.115,68.1739 371.355,72.5839 369.035,73.2639 364.605,71.7039 364.675,68.4339 360.745,70.6739 360.105,68.8539 353.565,66.7739 351.455,67.8039 351.275,69.3539 349.385,69.6439 346.475,67.7339 344.275,70.0939 338.995,68.8939 337.575,70.2339 335.435,70.3339 334.645,69.1639 331.065,70.5139 327.815,67.8539 324.495,67.4439 322.695,68.5739 320.585,68.0939 318.245,69.9339 317.985,66.2639 313.395,68.4339 314.775,64.0839 312.655,63.1439 311.725,63.0739 311.575,66.0339 306.265,63.9639 306.345,62.2339 305.295,62.0639 304.495,63.9239 303.725,62.1739 302.335,62.3439 299.745,65.6339 297.975,64.2039 298.465,61.3639 302.905,58.7239 301.095,56.4039 299.225,56.1339 297.245,57.9539 296.155,55.8539 295.935,57.5339 293.565,56.5139 288.555,59.0039 287.725,57.7539 285.885,58.3339 285.515,55.0039 280.105,52.6939 279.505,51.9439 280.895,50.5139 280.145,49.8939 278.535,51.1639 274.235,47.9739 268.435,49.9739 267.465,48.5339 263.825,45.3939 265.165,36.4339 267.175,38.0639 264.735,34.4139 264.165,24.1839 264.335,23.2239 264.715,24.7939 265.465,23.7639 266.285,19.0939 264.935,14.6739 268.265,13.6939 271.735,9.86393 276.965,8.16393 275.745,7.93393 286.285,5.21393 286.815,5.89393 289.015,3.63393 288.555,4.81393 289.835,6.03393 290.525,3.63393 290.865,4.40393 297.025,2.29393 298.175,3.12393 304.975,0.333928 "/>
<rect x="263.825" y="0.333928" width="111.2" height="72.93" stroke="rgb(223,196,129)" stroke-width="1" fill="none" />
<polygon stroke="rgb(80,80,80)" stroke-width="1" fill="none" points="119.065,88.8439 121.045,90.1739 122.505,89.4139 123.645,91.1639 132.215,93.1939 132.015,94.6739 132.535,93.2639 137.565,92.5539 138.145,90.7139 146.785,90.7639 148.285,96.4739 147.205,96.0939 146.475,98.7539 146.495,97.8639 145.425,98.0639 144.945,100.274 150.875,109.234 149.425,113.854 151.375,112.074 152.995,113.264 154.705,110.344 159.245,109.864 167.965,112.944 182.965,113.954 187.735,116.524 189.225,115.994 190.085,117.284 199.275,114.484 204.605,109.624 208.615,107.934 203.935,107.734 211.175,107.624 212.865,113.524 211.645,115.054 212.805,116.284 212.225,117.114 214.435,116.244 215.305,116.984 215.305,118.334 212.685,119.344 215.755,121.734 215.365,125.314 217.355,126.124 216.005,128.304 216.795,130.254 214.625,131.684 217.965,134.024 215.315,140.564 218.185,142.664 222.245,142.944 223.485,141.774 223.855,143.094 224.935,142.724 224.715,144.174 225.805,144.194 224.685,145.594 230.805,149.674 231.465,151.534 229.555,153.464 231.285,154.194 231.365,155.814 233.225,155.784 233.375,159.414 239.495,164.944 238.225,167.884 239.885,170.134 237.325,174.364 231.335,177.504 230.725,178.924 232.835,179.574 232.085,181.324 233.835,184.264 232.485,185.464 230.005,185.834 226.505,181.134 225.895,183.044 221.605,182.064 219.695,178.244 219.275,178.964 215.655,177.514 215.245,171.094 211.865,167.594 205.375,169.044 205.895,170.044 202.335,172.094 201.785,174.024 199.335,172.794 197.255,174.214 197.265,169.434 193.275,169.074 192.155,165.724 193.325,164.634 190.755,162.404 189.015,162.364 189.335,164.114 188.085,165.924 186.015,164.984 184.685,167.374 182.875,165.764 178.175,165.824 176.465,168.064 172.305,169.874 171.805,167.304 170.755,168.364 169.035,168.044 169.735,169.514 167.815,170.384 167.035,168.554 165.585,169.184 164.275,166.434 161.635,166.604 159.695,165.314 157.685,167.064 154.965,165.884 147.335,163.654 143.175,168.344 140.375,168.844 137.585,167.084 134.125,157.994 136.595,158.894 136.645,157.794 137.495,158.724 140.185,157.464 143.175,158.124 140.765,156.444 141.815,155.414 139.275,156.694 134.225,150.934 134.045,146.234 132.385,145.394 135.435,139.304 134.525,138.714 134.735,133.344 136.935,133.724 134.615,132.604 133.875,135.004 132.975,132.594 132.355,121.224 134.295,121.034 132.345,120.214 131.835,121.784 128.495,114.214 124.235,111.414 122.645,103.054 120.995,101.124 122.955,98.7739 122.625,94.9239 121.515,93.1439 118.525,92.1239 "/>
<rect x="118.525" y="88.8439" width="121.36" height="96.99" stroke="rgb(208,137,246)" stroke-width="1" fill="none" />
<polygon stroke="rgb(80,80,80)" stroke-width="1" fill="none" points="256.555,67.1439 259.515,66.7739 259.665,68.7439 270.445,78.5739 271.365,83.1839 273.515,86.5539 271.995,86.4939 269.495,90.8839 270.205,91.7839 272.085,90.8839 269.835,94.1239 270.825,95.4639 269.975,98.0739 269.795,98.0739 271.965,100.904 270.675,103.094 271.815,104.014 272.425,102.594 273.705,103.094 272.945,105.254 272.545,105.514 270.535,109.234 271.605,109.344 270.845,110.124 272.485,111.864 272.955,116.604 274.265,117.694 273.645,119.504 272.355,117.834 270.335,118.324 270.105,120.414 266.725,129.644 262.725,130.664 262.505,130.674 262.055,129.654 261.175,131.864 259.505,131.684 260.765,134.174 260.425,136.574 262.445,136.414 261.335,137.134 261.705,138.824 259.495,139.874 260.005,143.134 255.925,145.484 256.355,148.834 254.695,150.094 250.135,150.294 245.935,148.324 245.685,151.014 243.525,150.274 241.295,152.344 240.435,152.344 235.765,152.954 235.235,154.694 233.235,155.814 231.375,155.844 231.295,154.224 229.565,153.494 231.475,151.564 230.815,149.704 224.695,145.624 225.815,144.224 224.725,144.204 224.945,142.754 223.865,143.124 223.495,141.804 222.255,142.974 218.195,142.694 215.325,140.594 217.975,134.054 214.635,131.714 216.805,130.284 216.015,128.334 217.365,126.154 215.375,125.344 215.765,121.764 212.695,119.374 215.315,118.364 215.315,117.014 214.445,116.274 212.235,117.144 212.815,116.314 211.655,115.084 212.875,113.554 211.185,107.654 211.595,106.524 210.615,107.284 204.085,105.274 202.105,102.734 205.695,94.0739 204.485,92.4639 205.795,93.0639 207.945,89.7139 213.335,87.5539 223.705,80.5139 231.425,79.3339 239.195,76.0439 241.645,76.7539 244.355,75.5339 244.775,76.6739 244.505,75.4139 248.955,73.2939 "/>
<rect x="202.105" y="66.7739" width="72.16" height="89.07" stroke="rgb(86,225,190)" stroke-width="1" fill="none" />
<polygon stroke="rgb(80,80,80)" stroke-width="1" fill="none" points="105.665,257.034 107.305,258.184 106.715,260.234 109.825,261.804 110.125,265.114 107.695,261.264 105.485,261.174 103.875,259.244 103.595,257.214 "/>
<rect x="103.595" y="257.034" width="6.53" height="8.08" stroke="rgb(46,215,20)" stroke-width="1" fill="none" />
<polygon stroke="rgb(80,80,80)" stroke-width="1" fill="none" points="154.925,165.894 157.645,167.074 159.655,165.324 161.595,166.614 164.235,166.444 165.545,169.194 166.995,168.564 167.775,170.394 169.695,169.524 168.995,168.054 170.715,168.374 171.765,167.314 172.265,169.884 176.425,168.074 178.135,165.834 182.835,165.774 184.645,167.384 185.975,164.994 188.045,165.934 189.295,164.124 188.975,162.374 190.715,162.414 193.285,164.644 192.115,165.734 193.235,169.084 197.225,169.444 197.215,174.224 199.295,172.804 201.745,174.034 202.295,172.104 205.855,170.054 205.335,169.054 211.825,167.604 215.205,171.104 215.615,177.524 219.235,178.974 219.655,178.254 221.565,182.074 225.855,183.054 226.465,181.144 229.965,185.844 232.445,185.474 237.345,188.914 234.655,189.254 234.255,191.084 233.095,191.354 234.415,191.644 234.325,193.024 232.275,193.174 232.425,195.244 234.285,195.704 233.305,198.404 234.565,201.244 233.175,201.734 233.005,204.434 232.115,202.984 230.915,203.674 231.245,207.904 228.085,210.914 228.475,211.914 225.365,212.844 223.665,214.934 224.085,216.744 225.045,216.454 224.105,217.754 218.615,219.404 218.005,220.984 215.265,219.484 214.485,220.954 216.085,223.474 215.275,223.994 208.995,221.854 209.045,222.374 207.395,225.894 208.725,226.614 208.535,228.284 205.685,234.444 206.905,235.534 202.545,241.644 201.595,248.804 200.115,248.134 199.015,249.044 197.805,253.524 195.725,252.664 193.935,255.494 191.865,254.514 193.385,252.494 191.665,252.194 190.815,253.054 188.275,252.354 182.845,253.234 182.385,254.724 179.325,255.534 180.225,253.824 178.765,253.704 176.205,254.884 176.735,256.804 174.445,258.964 171.485,258.584 169.655,259.754 166.635,258.454 163.935,260.614 162.125,260.334 163.475,261.094 162.865,262.074 164.125,262.114 163.645,262.774 165.795,263.584 164.835,265.774 167.145,268.494 167.315,268.494 168.965,269.604 169.255,269.604 170.345,270.314 169.515,271.084 169.555,271.334 169.455,273.584 172.095,276.914 171.125,277.754 172.895,279.134 171.995,280.764 173.775,281.644 173.235,284.424 174.205,287.014 172.395,287.734 174.025,291.674 172.665,295.124 173.535,295.504 174.145,294.164 176.905,295.904 172.415,299.994 170.325,299.484 169.325,300.884 164.945,298.764 164.765,298.504 163.985,299.984 162.465,299.424 160.605,300.414 159.375,299.674 160.685,296.764 155.545,298.034 154.665,299.984 152.965,300.024 149.405,300.124 149.235,302.824 144.685,298.984 145.525,301.554 143.535,298.494 138.375,298.484 136.435,294.794 130.855,293.824 124.025,289.334 122.225,282.334 118.445,277.054 110.385,269.544 109.975,265.464 111.695,265.314 111.325,264.284 114.905,260.654 115.105,258.204 117.205,256.994 112.185,251.764 106.065,250.674 109.425,248.504 109.215,242.674 107.545,242.314 103.905,244.594 100.745,241.824 98.415,243.044 93.715,241.104 95.215,239.984 95.335,238.174 93.105,235.974 97.285,232.964 97.305,231.474 98.735,229.704 99.635,230.974 103.135,230.684 103.915,227.304 106.145,228.634 108.635,227.524 109.525,228.924 109.785,226.974 112.245,226.284 112.925,219.104 117.435,216.404 118.195,217.784 122.135,215.494 130.445,215.434 132.015,212.114 138.205,209.684 137.965,207.694 141.725,208.134 142.755,209.924 147.595,211.314 151.395,199.694 157.145,197.324 154.735,185.064 154.565,184.904 153.635,180.994 155.955,177.094 154.465,171.744 "/>
<rect x="93.105" y="162.374" width="144.24" height="140.45" stroke="rgb(96,184,232)" stroke-width="1" fill="none" />
<polygon stroke="rgb(80,80,80)" stroke-width="1" fill="none" points="266.915,48.0639 267.505,48.5339 268.475,49.9739 274.275,47.9739 278.575,51.1639 280.185,49.8939 280.935,50.5139 279.545,51.9439 280.145,52.6939 285.555,55.0039 285.925,58.3339 287.765,57.7539 288.595,59.0039 293.605,56.5139 295.975,57.5339 296.195,55.8539 297.285,57.9539 299.265,56.1339 301.135,56.4039 302.945,58.7239 298.505,61.3639 298.015,64.2039 299.785,65.6339 302.375,62.3439 303.765,62.1739 304.535,63.9239 305.335,62.0639 306.385,62.2339 306.305,63.9639 311.615,66.0339 311.765,63.0739 312.695,63.1439 314.815,64.0839 313.435,68.4339 318.025,66.2639 318.285,69.9339 320.625,68.0939 322.735,68.5739 324.535,67.4439 327.855,67.8539 331.105,70.5139 334.685,69.1639 335.475,70.3339 337.615,70.2339 339.035,68.8939 344.315,70.0939 346.515,67.7339 349.425,69.6439 351.315,69.3539 351.495,67.8039 353.605,66.7739 360.145,68.8539 360.785,70.6739 364.715,68.4339 364.645,71.7039 369.075,73.2639 371.395,72.5839 375.095,73.9039 374.495,76.7939 376.075,77.4339 375.975,79.7239 374.015,85.3939 375.835,86.8639 373.145,90.5739 370.695,91.9139 370.235,94.7939 367.155,94.4939 366.425,95.5039 368.685,98.7539 367.515,100.434 368.735,101.734 367.165,102.864 368.295,106.774 367.025,107.234 366.965,112.204 363.755,111.114 362.275,109.254 359.445,110.944 359.265,113.194 356.215,112.464 350.715,115.184 352.075,120.184 351.075,121.574 352.245,122.574 352.935,121.944 353.605,123.854 355.025,123.584 354.995,124.994 353.185,126.044 349.745,125.534 348.855,127.484 350.405,130.164 348.275,131.234 348.205,132.704 350.925,132.314 352.055,134.134 348.415,137.544 348.955,138.624 347.735,138.854 347.595,140.414 345.835,140.574 344.065,144.334 343.065,145.254 342.415,143.824 339.815,143.094 339.175,139.544 337.565,140.814 336.565,138.254 334.895,138.874 334.345,136.754 330.855,134.244 331.825,131.854 329.665,128.314 326.825,127.624 326.685,129.634 324.295,129.234 323.405,130.534 322.625,129.234 317.775,130.584 315.965,128.914 312.875,131.174 308.685,128.174 306.635,129.984 305.345,127.164 304.505,128.724 302.765,128.314 303.325,127.594 301.515,126.134 300.435,126.604 300.685,125.784 297.985,124.954 297.265,125.684 295.445,123.264 294.275,124.954 292.095,125.494 291.495,123.714 289.505,124.714 285.785,121.754 282.505,123.944 277.575,124.764 274.275,123.344 272.245,123.964 271.495,122.734 271.115,122.744 271.635,120.884 270.135,120.404 270.365,118.314 272.385,117.824 273.675,119.494 274.295,117.684 272.985,116.594 272.515,111.854 270.875,110.114 271.635,109.334 270.565,109.224 272.575,105.504 272.975,105.244 273.735,103.084 272.455,102.584 271.845,104.004 270.705,103.084 271.995,100.894 269.825,98.0639 270.005,98.0639 270.855,95.4539 269.865,94.1139 272.115,90.8739 270.235,91.7739 269.525,90.8739 272.025,86.4839 273.545,86.5439 271.395,83.1739 270.475,78.5639 259.695,68.7339 259.545,66.7639 256.585,67.1339 259.665,64.2839 262.595,57.9239 264.505,57.2939 265.305,59.2139 268.265,60.0039 269.475,59.1239 263.275,53.5639 263.955,47.9139 "/>
<rect x="256.585" y="47.9139" width="119.49" height="97.34" stroke="rgb(67,180,198)" stroke-width="1" fill="none" />
<polygon stroke="rgb(80,80,80)" stroke-width="1" fill="none" points="140.925,316.034 144.745,319.244 147.965,319.854 148.035,323.134 150.105,327.244 148.255,330.824 146.675,325.994 141.785,321.654 "/>
<rect x="140.925" y="316.034" width="9.18" height="14.79" stroke="rgb(178,229,102)" stroke-width="1" fill="none" />
<polygon stroke="rgb(80,80,80)" stroke-width="1" fill="none" points="136.635,303.514 138.155,304.914 136.215,305.194 137.015,306.704 140.675,305.144 139.575,306.134 140.165,306.874 142.655,306.424 147.405,309.184 145.005,310.374 138.675,306.834 135.695,306.844 134.525,304.354 "/>
<rect x="134.525" y="303.514" width="12.88" height="6.86" stroke="rgb(178,43,238)" stroke-width="1" fill="none" />
<polygon stroke="rgb(80,80,80)" stroke-width="1" fill="none" points="153.005,299.974 154.705,299.934 155.585,297.984 160.725,296.714 159.415,299.624 160.645,300.364 162.505,299.374 164.025,299.934 164.805,298.454 164.985,298.714 169.365,300.834 170.365,299.434 172.455,299.944 176.945,295.854 174.185,294.114 173.575,295.454 172.705,295.074 174.065,291.624 172.435,287.684 174.245,286.964 173.275,284.374 173.815,281.594 172.035,280.714 172.935,279.084 171.165,277.704 172.135,276.864 169.495,273.534 169.595,271.284 169.555,271.034 170.385,270.264 169.295,269.554 169.005,269.554 167.355,268.444 167.185,268.444 164.875,265.724 165.835,263.534 163.685,262.724 164.165,262.064 162.905,262.024 163.515,261.044 162.165,260.284 163.975,260.564 166.675,258.404 169.695,259.704 171.525,258.534 174.485,258.914 176.775,256.754 176.245,254.834 178.805,253.654 180.265,253.774 179.365,255.484 182.425,254.674 182.885,253.184 188.315,252.304 190.855,253.004 191.705,252.144 193.425,252.444 191.905,254.464 193.975,255.444 195.765,252.614 197.845,253.474 199.055,248.994 200.155,248.084 201.635,248.754 202.725,251.484 205.215,251.124 204.995,252.204 206.125,252.584 206.945,251.724 207.705,253.164 206.805,255.144 209.575,254.394 210.535,256.154 211.975,255.634 212.365,258.844 211.485,259.334 212.825,262.964 214.555,261.824 217.595,263.034 220.385,261.254 224.225,261.354 222.965,258.384 225.035,258.304 228.105,260.354 228.635,264.624 232.445,267.864 233.225,271.524 237.275,275.284 237.875,277.264 236.415,281.164 237.165,282.864 241.475,284.914 241.705,286.764 244.735,286.744 246.875,288.504 247.145,292.024 249.685,292.924 249.045,294.834 248.285,295.844 247.425,295.554 246.285,298.074 242.915,297.184 241.135,302.124 236.855,301.624 234.715,305.054 232.305,306.174 234.545,310.654 233.005,311.494 234.035,313.104 233.185,315.834 235.005,317.744 236.085,316.914 237.765,318.244 238.675,320.654 235.975,323.484 233.065,322.944 233.685,325.844 231.865,331.264 228.925,330.514 229.045,333.014 225.535,336.104 222.845,340.634 220.585,340.664 220.315,345.464 218.015,347.104 217.295,349.334 215.175,349.344 213.095,351.924 211.925,350.904 212.535,352.234 210.835,352.804 209.645,356.214 210.425,360.474 206.655,362.614 204.975,365.834 201.695,364.604 199.715,366.044 198.585,368.264 199.545,368.964 197.845,369.714 197.545,372.144 195.725,370.794 193.415,372.674 191.455,372.394 188.635,371.194 187.745,369.564 186.335,369.844 185.345,368.174 184.295,367.974 183.445,369.524 182.705,367.274 182.655,367.014 181.695,361.604 175.885,360.544 174.955,357.594 174.615,359.114 169.645,358.694 167.995,352.924 165.315,349.004 159.075,344.974 156.855,341.294 149.295,336.914 148.165,337.154 148.645,338.364 148.035,337.164 147.975,331.624 152.275,330.624 150.395,327.634 153.035,327.294 154.695,324.394 153.645,322.164 154.555,321.914 154.335,320.144 152.835,318.724 155.645,318.744 153.615,313.244 151.885,312.554 152.475,311.334 150.605,310.684 151.585,309.534 149.225,310.244 147.935,309.144 149.485,306.274 153.225,303.384 152.265,300.844 "/>
<rect x="147.935" y="248.084" width="101.75" height="124.59" stroke="rgb(238,135,226)" stroke-width="1" fill="none" />
<polygon stroke="rgb(80,80,80)" stroke-width="1" fill="none" points="406.535,411.594 406.945,412.054 409.855,413.824 409.885,414.164 407.905,415.094 406.395,419.014 402.345,418.334 401.695,415.724 403.205,412.994 403.565,412.354 403.885,412.184 404.575,412.024 405.855,410.994 406.025,411.434 406.455,411.484 "/>
<rect x="401.695" y="410.994" width="8.19" height="8.02" stroke="rgb(33,208,54)" stroke-width="1" fill="none" />
<polygon stroke="rgb(80,80,80)" stroke-width="1" fill="none" points="421.095,480.794 422.505,478.424 421.275,476.994 422.425,476.234 419.735,472.474 416.385,474.334 408.975,474.554 405.655,468.844 403.585,468.454 402.495,470.004 402.995,468.604 401.995,469.194 401.135,467.164 401.825,469.684 399.775,468.594 401.145,470.194 398.845,471.094 400.755,470.964 400.085,471.644 401.865,472.784 403.465,471.394 400.125,474.404 389.565,472.554 388.565,471.394 389.915,469.034 387.535,467.324 374.955,466.864 375.395,464.614 378.795,462.964 378.385,461.414 379.215,462.524 384.535,459.444 384.965,458.124 383.065,457.464 385.535,453.274 387.805,452.704 391.455,453.944 390.825,451.654 393.095,444.824 392.025,443.574 399.185,438.034 399.175,436.594 400.445,436.534 398.035,432.124 395.295,431.214 395.335,425.114 394.745,423.564 393.325,423.494 392.345,420.314 392.395,416.874 398.125,417.844 399.385,422.804 409.385,418.174 411.405,419.914 413.165,418.064 413.825,417.754 413.215,422.554 416.435,423.754 417.245,422.594 419.275,423.994 421.645,423.574 422.875,424.384 422.795,426.984 424.975,427.184 425.785,429.054 429.375,428.284 431.875,424.894 433.445,426.254 433.095,427.254 435.055,427.494 435.225,426.504 433.585,426.044 435.375,424.624 435.385,420.534 433.745,420.534 433.305,418.584 432.115,418.264 432.995,416.684 429.615,416.874 428.515,415.684 427.345,416.444 424.735,414.294 424.265,411.384 426.665,411.724 427.535,410.694 426.145,410.084 425.875,407.104 432.355,408.714 432.955,407.054 434.425,406.924 431.645,404.514 433.755,400.574 433.555,398.254 437.125,398.994 437.965,397.654 439.635,398.154 441.335,396.004 440.025,395.074 441.195,391.984 443.515,392.744 446.355,391.924 447.565,390.694 446.285,389.334 449.115,387.534 450.725,388.674 453.945,385.854 458.655,386.574 460.485,385.294 463.155,386.404 463.255,381.464 461.785,380.614 461.835,377.984 456.875,376.964 458.585,370.844 460.595,371.574 462.225,370.684 463.535,373.794 467.115,374.864 468.595,374.684 468.335,372.464 469.585,371.504 470.885,372.064 472.395,370.654 474.585,371.524 476.345,376.824 479.285,377.154 479.565,383.524 484.235,386.744 486.175,387.114 487.225,386.054 490.825,388.314 489.885,390.314 493.045,396.474 488.315,396.824 488.535,400.174 483.875,405.404 484.815,408.204 487.735,411.124 485.425,411.604 485.205,415.024 489.655,419.784 490.155,422.344 497.645,424.334 501.455,427.824 504.095,427.514 504.695,429.294 507.485,429.474 507.735,428.424 515.535,427.314 516.295,425.744 518.255,425.864 517.525,428.374 519.525,431.094 519.145,433.494 517.375,434.284 516.935,437.414 513.395,439.274 513.035,441.904 510.495,443.244 511.935,448.424 506.775,452.074 503.985,452.444 503.745,454.524 503.005,452.784 502.555,453.994 499.975,453.774 498.595,455.974 496.435,455.834 494.975,459.614 495.945,461.604 494.945,462.184 493.995,460.524 491.515,462.564 490.585,461.654 488.375,462.164 487.305,463.764 488.125,464.734 485.415,468.614 481.185,469.764 479.355,468.954 478.165,473.214 472.285,477.514 477.375,477.834 476.045,479.184 476.705,481.644 475.075,482.384 475.285,483.464 474.205,484.004 471.735,482.234 469.045,484.404 464.395,484.774 463.545,488.064 459.815,486.094 456.195,486.444 454.675,489.254 454.885,491.434 452.395,491.314 453.815,490.444 453.605,488.464 449.325,488.524 448.505,486.954 445.445,487.164 445.245,485.894 443.585,487.154 446.345,489.104 443.995,488.484 442.675,490.314 441.385,490.134 439.915,489.064 440.545,486.434 438.815,486.384 439.045,485.094 435.845,484.824 435.465,482.774 432.785,482.394 432.045,483.904 429.205,480.814 427.685,481.814 "/>
<rect x="374.955" y="370.654" width="144.57" height="120.78" stroke="rgb(38,181,231)" stroke-width="1" fill="none" />
<polygon stroke="rgb(80,80,80)" stroke-width="1" fill="none" points="361.225,302.404 360.865,306.084 364.285,306.784 364.975,308.784 369.685,307.024 372.815,308.514 374.035,307.284 374.785,308.284 375.965,307.694 375.775,309.424 376.835,309.564 380.875,307.794 382.245,301.214 384.445,301.134 386.325,302.904 388.995,301.334 391.065,303.034 391.855,300.904 393.625,300.594 394.905,302.244 393.615,303.424 395.965,304.954 395.275,307.264 396.895,308.604 397.785,308.354 404.475,287.844 404.875,288.904 406.265,288.064 409.275,289.914 413.835,288.714 413.885,287.804 415.475,288.614 416.695,291.474 419.955,292.174 419.315,294.164 422.545,296.014 421.885,296.734 423.645,300.314 424.495,298.074 425.025,300.024 426.615,300.014 426.555,303.084 429.265,302.834 433.585,298.274 433.735,299.504 436.525,300.394 437.005,303.294 442.995,303.064 451.105,294.004 455.475,296.954 452.665,301.864 453.595,303.904 447.605,305.964 446.965,307.164 448.215,308.064 446.675,311.234 450.595,309.834 453.765,310.554 460.695,305.454 461.285,303.604 459.255,303.884 458.725,300.764 457.585,300.264 458.915,297.374 469.985,291.554 476.755,291.694 482.485,293.344 480.435,297.644 484.335,302.104 481.815,306.684 481.525,310.634 485.735,311.414 484.785,315.964 487.235,314.994 491.495,321.574 491.765,323.424 489.785,326.484 486.325,328.344 482.475,328.574 481.925,335.184 486.415,339.564 489.925,340.264 488.975,343.334 489.935,348.234 492.195,348.844 491.975,350.164 494.075,350.314 494.685,352.464 497.705,354.074 494.505,358.694 495.535,362.904 492.825,365.504 489.985,365.014 487.655,367.984 485.475,368.064 485.465,369.924 483.635,370.484 480.265,368.584 474.595,371.494 472.405,370.624 470.895,372.034 469.595,371.474 468.345,372.434 468.605,374.654 467.125,374.834 463.545,373.764 462.235,370.654 460.605,371.544 458.595,370.814 456.885,376.934 461.845,377.954 461.795,380.584 463.265,381.434 463.165,386.374 460.495,385.264 458.665,386.544 453.955,385.824 450.735,388.644 449.125,387.504 446.295,389.304 447.575,390.664 446.365,391.894 443.525,392.714 441.205,391.954 440.035,395.044 441.345,395.974 439.645,398.124 437.975,397.624 437.135,398.964 433.565,398.224 433.765,400.544 431.655,404.484 434.435,406.894 432.965,407.024 432.365,408.684 425.885,407.074 426.155,410.054 427.545,410.664 426.675,411.694 424.275,411.354 424.745,414.264 427.355,416.414 428.525,415.654 429.625,416.844 433.005,416.654 432.125,418.234 433.315,418.554 433.755,420.504 435.395,420.504 435.385,424.594 433.595,426.014 435.235,426.474 435.065,427.464 433.105,427.224 433.455,426.224 431.885,424.864 429.385,428.254 425.795,429.024 424.985,427.154 422.805,426.954 422.885,424.354 421.655,423.544 419.285,423.964 417.255,422.564 416.445,423.724 413.225,422.524 413.835,417.724 413.175,418.034 411.415,419.884 409.395,418.144 399.395,422.774 398.135,417.814 392.405,416.844 392.355,420.284 386.375,416.054 384.215,416.364 383.585,419.554 381.825,419.134 381.675,415.894 378.945,416.364 376.075,420.604 370.785,416.464 367.385,417.484 367.065,413.304 368.245,412.494 364.895,408.624 363.415,402.904 361.355,401.534 359.625,392.824 362.205,391.404 363.275,388.004 364.895,388.894 364.655,387.654 365.385,388.414 366.555,387.614 366.825,385.354 371.885,385.304 374.715,380.034 378.405,379.454 377.685,376.744 381.145,375.734 379.775,373.394 380.795,371.644 381.935,371.724 381.935,371.194 380.895,369.444 382.925,369.884 383.455,371.434 384.355,370.904 383.945,368.454 385.735,364.804 383.465,361.744 381.465,362.834 379.865,361.744 380.765,360.164 379.135,359.204 380.625,358.114 379.265,356.234 376.675,356.834 375.055,355.004 372.785,354.794 371.395,355.304 371.765,356.434 368.755,356.824 368.335,358.144 366.245,357.364 366.145,358.614 364.785,356.034 363.225,355.784 361.425,358.254 360.795,354.664 363.875,352.264 364.765,348.734 362.645,343.864 358.075,340.704 356.125,337.174 356.275,335.184 352.465,331.254 353.855,329.924 353.565,326.564 355.195,325.614 352.635,322.994 352.955,320.654 356.545,320.434 358.345,318.894 357.275,315.664 357.945,313.564 356.765,312.174 357.415,309.124 355.725,304.564 360.545,302.484 360.905,302.434 "/>
<rect x="352.465" y="287.804" width="145.24" height="141.22" stroke="rgb(148,140,119)" stroke-width="1" fill="none" />
<polygon stroke="rgb(80,80,80)" stroke-width="1" fill="none" points="403.865,412.164 403.545,412.334 403.185,412.974 401.675,415.704 402.325,418.314 406.375,418.994 407.885,415.074 409.865,414.144 409.835,413.804 406.925,412.034 406.425,411.454 405.995,411.404 405.825,410.964 404.545,411.994 "/>
<rect x="401.675" y="410.964" width="8.19" height="8.03" stroke="rgb(144,206,94)" stroke-width="1" fill="none" />
</svg>
