<svg version="1.1" width="450" height="250" style="background-color:white;" xmlns="http://www.w3.org/2000/svg">
<style>
.txt1 { font: bold 12px sans-serif; };
</style>
<line x1="25" y1="20" x2="90" y2="79.6667" stroke="rgb(250,0,0)" stroke-width="1" />
<line x1="90" y1="79.6667" x2="160" y2="63" stroke="rgb(250,0,0)" stroke-width="1" />
<line x1="85" y1="156" x2="90" y2="79.6667" stroke="rgb(250,0,0)" stroke-width="1" />
<line x1="85" y1="79.6667" x2="90" y2="74.6667" stroke="rgb(0,250,0)" stroke-width="1" />
<line x1="90" y1="74.6667" x2="95" y2="79.6667" stroke="rgb(0,250,0)" stroke-width="1" />
<line x1="90" y1="84.6667" x2="95" y2="79.6667" stroke="rgb(0,250,0)" stroke-width="1" />
<line x1="85" y1="79.6667" x2="90" y2="84.6667" stroke="rgb(0,250,0)" stroke-width="1" />
<polygon stroke="rgb(0,0,250)" stroke-width="1" fill="none" points="25,20 160,63 85,156 "/>
<line x1="185" y1="20" x2="245.819" y2="71.1871" stroke="rgb(250,0,0)" stroke-width="1" />
<line x1="245.819" y1="71.1871" x2="305" y2="53" stroke="rgb(250,0,0)" stroke-width="1" />
<line x1="245.819" y1="71.1871" x2="265" y2="136" stroke="rgb(250,0,0)" stroke-width="1" />
<line x1="205" y1="79" x2="245.819" y2="71.1871" stroke="rgb(250,0,0)" stroke-width="1" />
<line x1="240.819" y1="71.1871" x2="245.819" y2="66.1871" stroke="rgb(0,250,0)" stroke-width="1" />
<line x1="245.819" y1="66.1871" x2="250.819" y2="71.1871" stroke="rgb(0,250,0)" stroke-width="1" />
<line x1="245.819" y1="76.1871" x2="250.819" y2="71.1871" stroke="rgb(0,250,0)" stroke-width="1" />
<line x1="240.819" y1="71.1871" x2="245.819" y2="76.1871" stroke="rgb(0,250,0)" stroke-width="1" />
<polygon stroke="rgb(0,0,250)" stroke-width="1" fill="none" points="185,20 305,53 265,136 205,79 "/>
<line x1="125" y1="110" x2="175.468" y2="165.377" stroke="rgb(250,0,0)" stroke-width="1" />
<line x1="175.468" y1="165.377" x2="180" y2="143" stroke="rgb(250,0,0)" stroke-width="1" />
<line x1="175.468" y1="165.377" x2="223" y2="102" stroke="rgb(250,0,0)" stroke-width="1" />
<line x1="175.468" y1="165.377" x2="195" y2="226" stroke="rgb(250,0,0)" stroke-width="1" />
<line x1="115" y1="169" x2="175.468" y2="165.377" stroke="rgb(250,0,0)" stroke-width="1" />
<line x1="154" y1="159" x2="175.468" y2="165.377" stroke="rgb(250,0,0)" stroke-width="1" />
<line x1="170.468" y1="165.377" x2="175.468" y2="160.377" stroke="rgb(0,250,0)" stroke-width="1" />
<line x1="175.468" y1="160.377" x2="180.468" y2="165.377" stroke="rgb(0,250,0)" stroke-width="1" />
<line x1="175.468" y1="170.377" x2="180.468" y2="165.377" stroke="rgb(0,250,0)" stroke-width="1" />
<line x1="170.468" y1="165.377" x2="175.468" y2="170.377" stroke="rgb(0,250,0)" stroke-width="1" />
<polygon stroke="rgb(0,0,250)" stroke-width="1" fill="none" points="125,110 180,143 223,102 195,226 115,169 154,159 "/>
<line x1="320" y1="10" x2="361.319" y2="52.8115" stroke="rgb(250,0,0)" stroke-width="1" />
<line x1="361.319" y1="52.8115" x2="420" y2="13" stroke="rgb(250,0,0)" stroke-width="1" />
<line x1="361.319" y1="52.8115" x2="420" y2="30" stroke="rgb(250,0,0)" stroke-width="1" />
<line x1="340" y1="30" x2="361.319" y2="52.8115" stroke="rgb(250,0,0)" stroke-width="1" />
<line x1="342" y1="70" x2="361.319" y2="52.8115" stroke="rgb(250,0,0)" stroke-width="1" />
<line x1="361.319" y1="52.8115" x2="400" y2="75" stroke="rgb(250,0,0)" stroke-width="1" />
<line x1="361.319" y1="52.8115" x2="403" y2="98" stroke="rgb(250,0,0)" stroke-width="1" />
<line x1="330" y1="98" x2="361.319" y2="52.8115" stroke="rgb(250,0,0)" stroke-width="1" />
<line x1="356.319" y1="52.8115" x2="361.319" y2="47.8115" stroke="rgb(0,250,0)" stroke-width="1" />
<line x1="361.319" y1="47.8115" x2="366.319" y2="52.8115" stroke="rgb(0,250,0)" stroke-width="1" />
<line x1="361.319" y1="57.8115" x2="366.319" y2="52.8115" stroke="rgb(0,250,0)" stroke-width="1" />
<line x1="356.319" y1="52.8115" x2="361.319" y2="57.8115" stroke="rgb(0,250,0)" stroke-width="1" />
<polygon stroke="rgb(0,0,250)" stroke-width="1" fill="none" points="320,10 420,13 420,30 340,30 342,70 400,75 403,98 330,98 "/>
<line x1="320" y1="120" x2="384.589" y2="159.02" stroke="rgb(250,0,0)" stroke-width="1" />
<line x1="384.589" y1="159.02" x2="420" y2="123" stroke="rgb(250,0,0)" stroke-width="1" />
<line x1="384.589" y1="159.02" x2="420" y2="220" stroke="rgb(250,0,0)" stroke-width="1" />
<line x1="384.589" y1="159.02" x2="390" y2="240" stroke="rgb(250,0,0)" stroke-width="1" />
<line x1="384.589" y1="159.02" x2="399" y2="150" stroke="rgb(250,0,0)" stroke-width="1" />
<line x1="320" y1="150" x2="384.589" y2="159.02" stroke="rgb(250,0,0)" stroke-width="1" />
<line x1="379.589" y1="159.02" x2="384.589" y2="154.02" stroke="rgb(0,250,0)" stroke-width="1" />
<line x1="384.589" y1="154.02" x2="389.589" y2="159.02" stroke="rgb(0,250,0)" stroke-width="1" />
<line x1="384.589" y1="164.02" x2="389.589" y2="159.02" stroke="rgb(0,250,0)" stroke-width="1" />
<line x1="379.589" y1="159.02" x2="384.589" y2="164.02" stroke="rgb(0,250,0)" stroke-width="1" />
<polygon stroke="rgb(0,0,250)" stroke-width="1" fill="none" points="320,120 420,123 420,220 390,240 399,150 320,150 "/>
</svg>
