<svg version="1.1" width="300" height="250" style="background-color:white;" xmlns="http://www.w3.org/2000/svg">
<style>
.txt1 { font: bold 12px sans-serif; };
</style>
<line x1="248.39" y1="188.886" x2="258.39" y2="188.886" stroke="rgb(250,0,20)" stroke-width="1" />
<line x1="253.39" y1="183.886" x2="253.39" y2="193.886" stroke="rgb(250,0,20)" stroke-width="1" />
<line x1="21.4304" y1="195.251" x2="31.4304" y2="195.251" stroke="rgb(250,0,20)" stroke-width="1" />
<line x1="26.4304" y1="190.251" x2="26.4304" y2="200.251" stroke="rgb(250,0,20)" stroke-width="1" />
<line x1="85.2354" y1="56.4855" x2="95.2354" y2="56.4855" stroke="rgb(250,0,20)" stroke-width="1" />
<line x1="90.2354" y1="51.4855" x2="90.2354" y2="61.4855" stroke="rgb(250,0,20)" stroke-width="1" />
<line x1="261.711" y1="101.868" x2="271.711" y2="101.868" stroke="rgb(250,0,20)" stroke-width="1" />
<line x1="266.711" y1="96.8678" x2="266.711" y2="106.868" stroke="rgb(250,0,20)" stroke-width="1" />
<line x1="135.741" y1="64.2532" x2="145.741" y2="64.2532" stroke="rgb(250,0,20)" stroke-width="1" />
<line x1="140.741" y1="59.2532" x2="140.741" y2="69.2532" stroke="rgb(250,0,20)" stroke-width="1" />
<line x1="287.152" y1="146.619" x2="297.152" y2="146.619" stroke="rgb(250,0,20)" stroke-width="1" />
<line x1="292.152" y1="141.619" x2="292.152" y2="151.619" stroke="rgb(250,0,20)" stroke-width="1" />
<line x1="255.637" y1="236.686" x2="265.637" y2="236.686" stroke="rgb(250,0,20)" stroke-width="1" />
<line x1="260.637" y1="231.686" x2="260.637" y2="241.686" stroke="rgb(250,0,20)" stroke-width="1" />
<line x1="272.88" y1="94.6943" x2="282.88" y2="94.6943" stroke="rgb(250,0,20)" stroke-width="1" />
<line x1="277.88" y1="89.6943" x2="277.88" y2="99.6943" stroke="rgb(250,0,20)" stroke-width="1" />
<line x1="21.3114" y1="47.756" x2="31.3114" y2="47.756" stroke="rgb(250,0,20)" stroke-width="1" />
<line x1="26.3114" y1="42.756" x2="26.3114" y2="52.756" stroke="rgb(250,0,20)" stroke-width="1" />
<line x1="191.008" y1="113.183" x2="201.008" y2="113.183" stroke="rgb(250,0,20)" stroke-width="1" />
<line x1="196.008" y1="108.183" x2="196.008" y2="118.183" stroke="rgb(250,0,20)" stroke-width="1" />
<line x1="129.78" y1="145.225" x2="139.78" y2="145.225" stroke="rgb(250,0,20)" stroke-width="1" />
<line x1="134.78" y1="140.225" x2="134.78" y2="150.225" stroke="rgb(250,0,20)" stroke-width="1" />
<line x1="288.717" y1="48.5518" x2="298.717" y2="48.5518" stroke="rgb(250,0,20)" stroke-width="1" />
<line x1="293.717" y1="43.5518" x2="293.717" y2="53.5518" stroke="rgb(250,0,20)" stroke-width="1" />
<line x1="156.992" y1="22.4395" x2="166.992" y2="22.4395" stroke="rgb(250,0,20)" stroke-width="1" />
<line x1="161.992" y1="17.4395" x2="161.992" y2="27.4395" stroke="rgb(250,0,20)" stroke-width="1" />
<line x1="203.324" y1="181.544" x2="213.324" y2="181.544" stroke="rgb(250,0,20)" stroke-width="1" />
<line x1="208.324" y1="176.544" x2="208.324" y2="186.544" stroke="rgb(250,0,20)" stroke-width="1" />
<line x1="165.335" y1="121.428" x2="175.335" y2="121.428" stroke="rgb(250,0,20)" stroke-width="1" />
<line x1="170.335" y1="116.428" x2="170.335" y2="126.428" stroke="rgb(250,0,20)" stroke-width="1" />
<line x1="111.515" y1="150.638" x2="121.515" y2="150.638" stroke="rgb(250,0,20)" stroke-width="1" />
<line x1="116.515" y1="145.638" x2="116.515" y2="155.638" stroke="rgb(250,0,20)" stroke-width="1" />
<line x1="47.0152" y1="158.959" x2="57.0152" y2="158.959" stroke="rgb(250,0,20)" stroke-width="1" />
<line x1="52.0152" y1="153.959" x2="52.0152" y2="163.959" stroke="rgb(250,0,20)" stroke-width="1" />
<line x1="279.992" y1="37.741" x2="289.992" y2="37.741" stroke="rgb(250,0,20)" stroke-width="1" />
<line x1="284.992" y1="32.741" x2="284.992" y2="42.741" stroke="rgb(250,0,20)" stroke-width="1" />
<line x1="46.8298" y1="217.62" x2="56.8298" y2="217.62" stroke="rgb(250,0,20)" stroke-width="1" />
<line x1="51.8298" y1="212.62" x2="51.8298" y2="222.62" stroke="rgb(250,0,20)" stroke-width="1" />
<line x1="188.232" y1="247.056" x2="198.232" y2="247.056" stroke="rgb(250,0,20)" stroke-width="1" />
<line x1="193.232" y1="242.056" x2="193.232" y2="252.056" stroke="rgb(250,0,20)" stroke-width="1" />
<line x1="212.167" y1="129.26" x2="222.167" y2="129.26" stroke="rgb(250,0,20)" stroke-width="1" />
<line x1="217.167" y1="124.26" x2="217.167" y2="134.26" stroke="rgb(250,0,20)" stroke-width="1" />
<line x1="77.1005" y1="176.195" x2="87.1005" y2="176.195" stroke="rgb(250,0,20)" stroke-width="1" />
<line x1="82.1005" y1="171.195" x2="82.1005" y2="181.195" stroke="rgb(250,0,20)" stroke-width="1" />
<line x1="114.189" y1="77.01" x2="124.189" y2="77.01" stroke="rgb(250,0,20)" stroke-width="1" />
<line x1="119.189" y1="72.01" x2="119.189" y2="82.01" stroke="rgb(250,0,20)" stroke-width="1" />
<line x1="235.741" y1="249.331" x2="245.741" y2="249.331" stroke="rgb(250,0,20)" stroke-width="1" />
<line x1="240.741" y1="244.331" x2="240.741" y2="254.331" stroke="rgb(250,0,20)" stroke-width="1" />
<line x1="195.232" y1="49.6012" x2="205.232" y2="49.6012" stroke="rgb(250,0,20)" stroke-width="1" />
<line x1="200.232" y1="44.6012" x2="200.232" y2="54.6012" stroke="rgb(250,0,20)" stroke-width="1" />
<line x1="140.467" y1="148.291" x2="150.467" y2="148.291" stroke="rgb(250,0,20)" stroke-width="1" />
<line x1="145.467" y1="143.291" x2="145.467" y2="153.291" stroke="rgb(250,0,20)" stroke-width="1" />
<line x1="84.7836" y1="242.882" x2="94.7836" y2="242.882" stroke="rgb(250,0,20)" stroke-width="1" />
<line x1="89.7836" y1="237.882" x2="89.7836" y2="247.882" stroke="rgb(250,0,20)" stroke-width="1" />
<line x1="171.876" y1="235.09" x2="181.876" y2="235.09" stroke="rgb(250,0,20)" stroke-width="1" />
<line x1="176.876" y1="230.09" x2="176.876" y2="240.09" stroke="rgb(250,0,20)" stroke-width="1" />
<line x1="176.311" y1="26.0095" x2="186.311" y2="26.0095" stroke="rgb(250,0,20)" stroke-width="1" />
<line x1="181.311" y1="21.0095" x2="181.311" y2="31.0095" stroke="rgb(250,0,20)" stroke-width="1" />
<line x1="94.8208" y1="234.855" x2="104.821" y2="234.855" stroke="rgb(250,0,20)" stroke-width="1" />
<line x1="99.8208" y1="229.855" x2="99.8208" y2="239.855" stroke="rgb(250,0,20)" stroke-width="1" />
<line x1="178.977" y1="113.197" x2="188.977" y2="113.197" stroke="rgb(250,0,20)" stroke-width="1" />
<line x1="183.977" y1="108.197" x2="183.977" y2="118.197" stroke="rgb(250,0,20)" stroke-width="1" />
<line x1="139.577" y1="73.7709" x2="149.577" y2="73.7709" stroke="rgb(250,0,20)" stroke-width="1" />
<line x1="144.577" y1="68.7709" x2="144.577" y2="78.7709" stroke="rgb(250,0,20)" stroke-width="1" />
<line x1="105.562" y1="94.6402" x2="115.562" y2="94.6402" stroke="rgb(250,0,20)" stroke-width="1" />
<line x1="110.562" y1="89.6402" x2="110.562" y2="99.6402" stroke="rgb(250,0,20)" stroke-width="1" />
<line x1="100.814" y1="121.993" x2="110.814" y2="121.993" stroke="rgb(250,0,20)" stroke-width="1" />
<line x1="105.814" y1="116.993" x2="105.814" y2="126.993" stroke="rgb(250,0,20)" stroke-width="1" />
<line x1="41.7119" y1="235.872" x2="51.7119" y2="235.872" stroke="rgb(250,0,20)" stroke-width="1" />
<line x1="46.7119" y1="230.872" x2="46.7119" y2="240.872" stroke="rgb(250,0,20)" stroke-width="1" />
<line x1="109.859" y1="206.566" x2="119.859" y2="206.566" stroke="rgb(250,0,20)" stroke-width="1" />
<line x1="114.859" y1="201.566" x2="114.859" y2="211.566" stroke="rgb(250,0,20)" stroke-width="1" />
<line x1="105.158" y1="150.8" x2="115.158" y2="150.8" stroke="rgb(250,0,20)" stroke-width="1" />
<line x1="110.158" y1="145.8" x2="110.158" y2="155.8" stroke="rgb(250,0,20)" stroke-width="1" />
<line x1="126.314" y1="177.79" x2="136.314" y2="177.79" stroke="rgb(250,0,20)" stroke-width="1" />
<line x1="131.314" y1="172.79" x2="131.314" y2="182.79" stroke="rgb(250,0,20)" stroke-width="1" />
<line x1="240.372" y1="46.7125" x2="250.372" y2="46.7125" stroke="rgb(250,0,20)" stroke-width="1" />
<line x1="245.372" y1="41.7125" x2="245.372" y2="51.7125" stroke="rgb(250,0,20)" stroke-width="1" />
<line x1="179.545" y1="108.003" x2="189.545" y2="108.003" stroke="rgb(250,0,20)" stroke-width="1" />
<line x1="184.545" y1="103.003" x2="184.545" y2="113.003" stroke="rgb(250,0,20)" stroke-width="1" />
<line x1="274.552" y1="134.467" x2="284.552" y2="134.467" stroke="rgb(250,0,20)" stroke-width="1" />
<line x1="279.552" y1="129.467" x2="279.552" y2="139.467" stroke="rgb(250,0,20)" stroke-width="1" />
<line x1="272.471" y1="117.024" x2="282.471" y2="117.024" stroke="rgb(250,0,20)" stroke-width="1" />
<line x1="277.471" y1="112.024" x2="277.471" y2="122.024" stroke="rgb(250,0,20)" stroke-width="1" />
<line x1="110.467" y1="118.985" x2="120.467" y2="118.985" stroke="rgb(250,0,20)" stroke-width="1" />
<line x1="115.467" y1="113.985" x2="115.467" y2="123.985" stroke="rgb(250,0,20)" stroke-width="1" />
<line x1="138.64" y1="166.074" x2="148.64" y2="166.074" stroke="rgb(250,0,20)" stroke-width="1" />
<line x1="143.64" y1="161.074" x2="143.64" y2="171.074" stroke="rgb(250,0,20)" stroke-width="1" />
<line x1="67.1418" y1="84.7386" x2="77.1418" y2="84.7386" stroke="rgb(250,0,20)" stroke-width="1" />
<line x1="72.1418" y1="79.7386" x2="72.1418" y2="89.7386" stroke="rgb(250,0,20)" stroke-width="1" />
<line x1="215.078" y1="34.5538" x2="225.078" y2="34.5538" stroke="rgb(250,0,20)" stroke-width="1" />
<line x1="220.078" y1="29.5538" x2="220.078" y2="39.5538" stroke="rgb(250,0,20)" stroke-width="1" />
<line x1="256.344" y1="175.967" x2="266.344" y2="175.967" stroke="rgb(250,0,20)" stroke-width="1" />
<line x1="261.344" y1="170.967" x2="261.344" y2="180.967" stroke="rgb(250,0,20)" stroke-width="1" />
<line x1="166.897" y1="63.8813" x2="176.897" y2="63.8813" stroke="rgb(250,0,20)" stroke-width="1" />
<line x1="171.897" y1="58.8813" x2="171.897" y2="68.8813" stroke="rgb(250,0,20)" stroke-width="1" />
<line x1="91.5082" y1="84.3905" x2="101.508" y2="84.3905" stroke="rgb(250,0,20)" stroke-width="1" />
<line x1="96.5082" y1="79.3905" x2="96.5082" y2="89.3905" stroke="rgb(250,0,20)" stroke-width="1" />
<line x1="99.7125" y1="220.877" x2="109.713" y2="220.877" stroke="rgb(250,0,20)" stroke-width="1" />
<line x1="104.713" y1="215.877" x2="104.713" y2="225.877" stroke="rgb(250,0,20)" stroke-width="1" />
<line x1="197.872" y1="146.907" x2="207.872" y2="146.907" stroke="rgb(250,0,20)" stroke-width="1" />
<line x1="202.872" y1="141.907" x2="202.872" y2="151.907" stroke="rgb(250,0,20)" stroke-width="1" />
<line x1="246.065" y1="138.686" x2="256.065" y2="138.686" stroke="rgb(250,0,20)" stroke-width="1" />
<line x1="251.065" y1="133.686" x2="251.065" y2="143.686" stroke="rgb(250,0,20)" stroke-width="1" />
<line x1="273.852" y1="90.9305" x2="283.852" y2="90.9305" stroke="rgb(250,0,20)" stroke-width="1" />
<line x1="278.852" y1="85.9305" x2="278.852" y2="95.9305" stroke="rgb(250,0,20)" stroke-width="1" />
<line x1="22.3171" y1="88.7431" x2="32.3171" y2="88.7431" stroke="rgb(250,0,20)" stroke-width="1" />
<line x1="27.3171" y1="83.7431" x2="27.3171" y2="93.7431" stroke="rgb(250,0,20)" stroke-width="1" />
<line x1="275.405" y1="89.9376" x2="285.405" y2="89.9376" stroke="rgb(250,0,20)" stroke-width="1" />
<line x1="280.405" y1="84.9376" x2="280.405" y2="94.9376" stroke="rgb(250,0,20)" stroke-width="1" />
<line x1="85.1084" y1="226.274" x2="95.1084" y2="226.274" stroke="rgb(250,0,20)" stroke-width="1" />
<line x1="90.1084" y1="221.274" x2="90.1084" y2="231.274" stroke="rgb(250,0,20)" stroke-width="1" />
<line x1="40.2155" y1="249.885" x2="50.2155" y2="249.885" stroke="rgb(250,0,20)" stroke-width="1" />
<line x1="45.2155" y1="244.885" x2="45.2155" y2="254.885" stroke="rgb(250,0,20)" stroke-width="1" />
<line x1="275.206" y1="207.745" x2="285.206" y2="207.745" stroke="rgb(250,0,20)" stroke-width="1" />
<line x1="280.206" y1="202.745" x2="280.206" y2="212.745" stroke="rgb(250,0,20)" stroke-width="1" />
<line x1="235.231" y1="215.559" x2="245.231" y2="215.559" stroke="rgb(250,0,20)" stroke-width="1" />
<line x1="240.231" y1="210.559" x2="240.231" y2="220.559" stroke="rgb(250,0,20)" stroke-width="1" />
<line x1="259.369" y1="80.1065" x2="269.369" y2="80.1065" stroke="rgb(250,0,20)" stroke-width="1" />
<line x1="264.369" y1="75.1065" x2="264.369" y2="85.1065" stroke="rgb(250,0,20)" stroke-width="1" />
<line x1="164.396" y1="80.0341" x2="174.396" y2="80.0341" stroke="rgb(250,0,20)" stroke-width="1" />
<line x1="169.396" y1="75.0341" x2="169.396" y2="85.0341" stroke="rgb(250,0,20)" stroke-width="1" />
<line x1="276.93" y1="46.8901" x2="286.93" y2="46.8901" stroke="rgb(250,0,20)" stroke-width="1" />
<line x1="281.93" y1="41.8901" x2="281.93" y2="51.8901" stroke="rgb(250,0,20)" stroke-width="1" />
<line x1="239.33" y1="180.829" x2="249.33" y2="180.829" stroke="rgb(250,0,20)" stroke-width="1" />
<line x1="244.33" y1="175.829" x2="244.33" y2="185.829" stroke="rgb(250,0,20)" stroke-width="1" />
<line x1="189.692" y1="198.316" x2="199.692" y2="198.316" stroke="rgb(250,0,20)" stroke-width="1" />
<line x1="194.692" y1="193.316" x2="194.692" y2="203.316" stroke="rgb(250,0,20)" stroke-width="1" />
<line x1="96.5298" y1="131.287" x2="106.53" y2="131.287" stroke="rgb(250,0,20)" stroke-width="1" />
<line x1="101.53" y1="126.287" x2="101.53" y2="136.287" stroke="rgb(250,0,20)" stroke-width="1" />
<line x1="231.036" y1="236.25" x2="241.036" y2="236.25" stroke="rgb(250,0,20)" stroke-width="1" />
<line x1="236.036" y1="231.25" x2="236.036" y2="241.25" stroke="rgb(250,0,20)" stroke-width="1" />
<line x1="222.03" y1="151.568" x2="232.03" y2="151.568" stroke="rgb(250,0,20)" stroke-width="1" />
<line x1="227.03" y1="146.568" x2="227.03" y2="156.568" stroke="rgb(250,0,20)" stroke-width="1" />
<line x1="123.394" y1="213.538" x2="133.394" y2="213.538" stroke="rgb(250,0,20)" stroke-width="1" />
<line x1="128.394" y1="208.538" x2="128.394" y2="218.538" stroke="rgb(250,0,20)" stroke-width="1" />
<line x1="148.744" y1="77.1671" x2="158.744" y2="77.1671" stroke="rgb(250,0,20)" stroke-width="1" />
<line x1="153.744" y1="72.1671" x2="153.744" y2="82.1671" stroke="rgb(250,0,20)" stroke-width="1" />
<line x1="172.539" y1="125.892" x2="182.539" y2="125.892" stroke="rgb(250,0,20)" stroke-width="1" />
<line x1="177.539" y1="120.892" x2="177.539" y2="130.892" stroke="rgb(250,0,20)" stroke-width="1" />
<line x1="140.809" y1="84.808" x2="150.809" y2="84.808" stroke="rgb(250,0,20)" stroke-width="1" />
<line x1="145.809" y1="79.808" x2="145.809" y2="89.808" stroke="rgb(250,0,20)" stroke-width="1" />
<line x1="76.7418" y1="78.4816" x2="86.7418" y2="78.4816" stroke="rgb(250,0,20)" stroke-width="1" />
<line x1="81.7418" y1="73.4816" x2="81.7418" y2="83.4816" stroke="rgb(250,0,20)" stroke-width="1" />
<line x1="164.897" y1="60.8918" x2="174.897" y2="60.8918" stroke="rgb(250,0,20)" stroke-width="1" />
<line x1="169.897" y1="55.8918" x2="169.897" y2="65.8918" stroke="rgb(250,0,20)" stroke-width="1" />
<line x1="136.111" y1="64.1544" x2="146.111" y2="64.1544" stroke="rgb(250,0,20)" stroke-width="1" />
<line x1="141.111" y1="59.1544" x2="141.111" y2="69.1544" stroke="rgb(250,0,20)" stroke-width="1" />
<line x1="46.5618" y1="57.8676" x2="56.5618" y2="57.8676" stroke="rgb(250,0,20)" stroke-width="1" />
<line x1="51.5618" y1="52.8676" x2="51.5618" y2="62.8676" stroke="rgb(250,0,20)" stroke-width="1" />
<line x1="260.98" y1="191.878" x2="270.98" y2="191.878" stroke="rgb(250,0,20)" stroke-width="1" />
<line x1="265.98" y1="186.878" x2="265.98" y2="196.878" stroke="rgb(250,0,20)" stroke-width="1" />
<line x1="274.42" y1="42.9247" x2="284.42" y2="42.9247" stroke="rgb(250,0,20)" stroke-width="1" />
<line x1="279.42" y1="37.9247" x2="279.42" y2="47.9247" stroke="rgb(250,0,20)" stroke-width="1" />
<line x1="54.7976" y1="235.43" x2="64.7976" y2="235.43" stroke="rgb(250,0,20)" stroke-width="1" />
<line x1="59.7976" y1="230.43" x2="59.7976" y2="240.43" stroke="rgb(250,0,20)" stroke-width="1" />
<line x1="131.357" y1="233.194" x2="141.357" y2="233.194" stroke="rgb(250,0,20)" stroke-width="1" />
<line x1="136.357" y1="228.194" x2="136.357" y2="238.194" stroke="rgb(250,0,20)" stroke-width="1" />
<line x1="256.977" y1="124.205" x2="266.977" y2="124.205" stroke="rgb(250,0,20)" stroke-width="1" />
<line x1="261.977" y1="119.205" x2="261.977" y2="129.205" stroke="rgb(250,0,20)" stroke-width="1" />
<line x1="162.01" y1="61.9764" x2="172.01" y2="61.9764" stroke="rgb(250,0,20)" stroke-width="1" />
<line x1="167.01" y1="56.9764" x2="167.01" y2="66.9764" stroke="rgb(250,0,20)" stroke-width="1" />
<line x1="133.972" y1="199.025" x2="143.972" y2="199.025" stroke="rgb(250,0,20)" stroke-width="1" />
<line x1="138.972" y1="194.025" x2="138.972" y2="204.025" stroke="rgb(250,0,20)" stroke-width="1" />
<line x1="122.825" y1="223.984" x2="132.825" y2="223.984" stroke="rgb(250,0,20)" stroke-width="1" />
<line x1="127.825" y1="218.984" x2="127.825" y2="228.984" stroke="rgb(250,0,20)" stroke-width="1" />
<line x1="29.959" y1="138.747" x2="39.959" y2="138.747" stroke="rgb(250,0,20)" stroke-width="1" />
<line x1="34.959" y1="133.747" x2="34.959" y2="143.747" stroke="rgb(250,0,20)" stroke-width="1" />
<line x1="233.637" y1="108.345" x2="243.637" y2="108.345" stroke="rgb(250,0,20)" stroke-width="1" />
<line x1="238.637" y1="103.345" x2="238.637" y2="113.345" stroke="rgb(250,0,20)" stroke-width="1" />
<line x1="156.79" y1="53.1235" x2="166.79" y2="53.1235" stroke="rgb(250,0,20)" stroke-width="1" />
<line x1="161.79" y1="48.1235" x2="161.79" y2="58.1235" stroke="rgb(250,0,20)" stroke-width="1" />
<line x1="174" y1="164.46" x2="184" y2="164.46" stroke="rgb(250,0,20)" stroke-width="1" />
<line x1="179" y1="159.46" x2="179" y2="169.46" stroke="rgb(250,0,20)" stroke-width="1" />
<line x1="100.189" y1="107.483" x2="110.189" y2="107.483" stroke="rgb(250,0,20)" stroke-width="1" />
<line x1="105.189" y1="102.483" x2="105.189" y2="112.483" stroke="rgb(250,0,20)" stroke-width="1" />
<line x1="94.6057" y1="57.1745" x2="104.606" y2="57.1745" stroke="rgb(250,0,20)" stroke-width="1" />
<line x1="99.6057" y1="52.1745" x2="99.6057" y2="62.1745" stroke="rgb(250,0,20)" stroke-width="1" />
<line x1="147.489" y1="119.503" x2="157.489" y2="119.503" stroke="rgb(250,0,20)" stroke-width="1" />
<line x1="152.489" y1="114.503" x2="152.489" y2="124.503" stroke="rgb(250,0,20)" stroke-width="1" />
<line x1="18.1251" y1="227.371" x2="28.1251" y2="227.371" stroke="rgb(250,0,20)" stroke-width="1" />
<line x1="23.1251" y1="222.371" x2="23.1251" y2="232.371" stroke="rgb(250,0,20)" stroke-width="1" />
<line x1="90.2366" y1="204.284" x2="100.237" y2="204.284" stroke="rgb(250,0,20)" stroke-width="1" />
<line x1="95.2366" y1="199.284" x2="95.2366" y2="209.284" stroke="rgb(250,0,20)" stroke-width="1" />
<line x1="252.974" y1="34.345" x2="262.974" y2="34.345" stroke="rgb(250,0,20)" stroke-width="1" />
<line x1="257.974" y1="29.345" x2="257.974" y2="39.345" stroke="rgb(250,0,20)" stroke-width="1" />
<line x1="61.1869" y1="90.8204" x2="71.1869" y2="90.8204" stroke="rgb(250,0,20)" stroke-width="1" />
<line x1="66.1869" y1="85.8204" x2="66.1869" y2="95.8204" stroke="rgb(250,0,20)" stroke-width="1" />
<line x1="82.5856" y1="106.232" x2="92.5856" y2="106.232" stroke="rgb(250,0,20)" stroke-width="1" />
<line x1="87.5856" y1="101.232" x2="87.5856" y2="111.232" stroke="rgb(250,0,20)" stroke-width="1" />
<line x1="80.7386" y1="175.465" x2="90.7386" y2="175.465" stroke="rgb(250,0,20)" stroke-width="1" />
<line x1="85.7386" y1="170.465" x2="85.7386" y2="180.465" stroke="rgb(250,0,20)" stroke-width="1" />
<line x1="33.3075" y1="164.636" x2="43.3075" y2="164.636" stroke="rgb(250,0,20)" stroke-width="1" />
<line x1="38.3075" y1="159.636" x2="38.3075" y2="169.636" stroke="rgb(250,0,20)" stroke-width="1" />
<line x1="146.339" y1="29.0889" x2="156.339" y2="29.0889" stroke="rgb(250,0,20)" stroke-width="1" />
<line x1="151.339" y1="24.0889" x2="151.339" y2="34.0889" stroke="rgb(250,0,20)" stroke-width="1" />
<line x1="58.1304" y1="141.915" x2="68.1304" y2="141.915" stroke="rgb(250,0,20)" stroke-width="1" />
<line x1="63.1304" y1="136.915" x2="63.1304" y2="146.915" stroke="rgb(250,0,20)" stroke-width="1" />
<line x1="168.403" y1="238.139" x2="178.403" y2="238.139" stroke="rgb(250,0,20)" stroke-width="1" />
<line x1="173.403" y1="233.139" x2="173.403" y2="243.139" stroke="rgb(250,0,20)" stroke-width="1" />
<line x1="16.5155" y1="112.759" x2="26.5155" y2="112.759" stroke="rgb(250,0,20)" stroke-width="1" />
<line x1="21.5155" y1="107.759" x2="21.5155" y2="117.759" stroke="rgb(250,0,20)" stroke-width="1" />
<line x1="183.546" y1="92.254" x2="193.546" y2="92.254" stroke="rgb(250,0,20)" stroke-width="1" />
<line x1="188.546" y1="87.254" x2="188.546" y2="97.254" stroke="rgb(250,0,20)" stroke-width="1" />
<line x1="231.291" y1="226.793" x2="241.291" y2="226.793" stroke="rgb(250,0,20)" stroke-width="1" />
<line x1="236.291" y1="221.793" x2="236.291" y2="231.793" stroke="rgb(250,0,20)" stroke-width="1" />
<line x1="146.314" y1="60.6499" x2="156.314" y2="60.6499" stroke="rgb(250,0,20)" stroke-width="1" />
<line x1="151.314" y1="55.6499" x2="151.314" y2="65.6499" stroke="rgb(250,0,20)" stroke-width="1" />
<line x1="82.5546" y1="132.033" x2="92.5546" y2="132.033" stroke="rgb(250,0,20)" stroke-width="1" />
<line x1="87.5546" y1="127.033" x2="87.5546" y2="137.033" stroke="rgb(250,0,20)" stroke-width="1" />
<line x1="70.5804" y1="216.333" x2="80.5804" y2="216.333" stroke="rgb(250,0,20)" stroke-width="1" />
<line x1="75.5804" y1="211.333" x2="75.5804" y2="221.333" stroke="rgb(250,0,20)" stroke-width="1" />
<line x1="175.005" y1="104.806" x2="185.005" y2="104.806" stroke="rgb(250,0,20)" stroke-width="1" />
<line x1="180.005" y1="99.8061" x2="180.005" y2="109.806" stroke="rgb(250,0,20)" stroke-width="1" />
<line x1="35.5844" y1="209.659" x2="45.5844" y2="209.659" stroke="rgb(250,0,20)" stroke-width="1" />
<line x1="40.5844" y1="204.659" x2="40.5844" y2="214.659" stroke="rgb(250,0,20)" stroke-width="1" />
<line x1="220.245" y1="91.9358" x2="230.245" y2="91.9358" stroke="rgb(250,0,20)" stroke-width="1" />
<line x1="225.245" y1="86.9358" x2="225.245" y2="96.9358" stroke="rgb(250,0,20)" stroke-width="1" />
<line x1="129.149" y1="206.294" x2="139.149" y2="206.294" stroke="rgb(250,0,20)" stroke-width="1" />
<line x1="134.149" y1="201.294" x2="134.149" y2="211.294" stroke="rgb(250,0,20)" stroke-width="1" />
<line x1="274.887" y1="224.573" x2="284.887" y2="224.573" stroke="rgb(250,0,20)" stroke-width="1" />
<line x1="279.887" y1="219.573" x2="279.887" y2="229.573" stroke="rgb(250,0,20)" stroke-width="1" />
<line x1="249.459" y1="22.5141" x2="259.459" y2="22.5141" stroke="rgb(250,0,20)" stroke-width="1" />
<line x1="254.459" y1="17.5141" x2="254.459" y2="27.5141" stroke="rgb(250,0,20)" stroke-width="1" />
<line x1="106.785" y1="93.2189" x2="116.785" y2="93.2189" stroke="rgb(250,0,20)" stroke-width="1" />
<line x1="111.785" y1="88.2189" x2="111.785" y2="98.2189" stroke="rgb(250,0,20)" stroke-width="1" />
<line x1="279.784" y1="56.7474" x2="289.784" y2="56.7474" stroke="rgb(250,0,20)" stroke-width="1" />
<line x1="284.784" y1="51.7474" x2="284.784" y2="61.7474" stroke="rgb(250,0,20)" stroke-width="1" />
<line x1="98.0562" y1="241.917" x2="108.056" y2="241.917" stroke="rgb(250,0,20)" stroke-width="1" />
<line x1="103.056" y1="236.917" x2="103.056" y2="246.917" stroke="rgb(250,0,20)" stroke-width="1" />
<line x1="170.408" y1="229.668" x2="180.408" y2="229.668" stroke="rgb(250,0,20)" stroke-width="1" />
<line x1="175.408" y1="224.668" x2="175.408" y2="234.668" stroke="rgb(250,0,20)" stroke-width="1" />
<line x1="68.0046" y1="79.7492" x2="78.0046" y2="79.7492" stroke="rgb(250,0,20)" stroke-width="1" />
<line x1="73.0046" y1="74.7492" x2="73.0046" y2="84.7492" stroke="rgb(250,0,20)" stroke-width="1" />
<line x1="214.753" y1="173.599" x2="224.753" y2="173.599" stroke="rgb(250,0,20)" stroke-width="1" />
<line x1="219.753" y1="168.599" x2="219.753" y2="178.599" stroke="rgb(250,0,20)" stroke-width="1" />
<line x1="135.479" y1="242.756" x2="145.479" y2="242.756" stroke="rgb(250,0,20)" stroke-width="1" />
<line x1="140.479" y1="237.756" x2="140.479" y2="247.756" stroke="rgb(250,0,20)" stroke-width="1" />
<line x1="33.758" y1="118.42" x2="43.758" y2="118.42" stroke="rgb(250,0,20)" stroke-width="1" />
<line x1="38.758" y1="113.42" x2="38.758" y2="123.42" stroke="rgb(250,0,20)" stroke-width="1" />
<line x1="125.099" y1="81.9487" x2="135.099" y2="81.9487" stroke="rgb(250,0,20)" stroke-width="1" />
<line x1="130.099" y1="76.9487" x2="130.099" y2="86.9487" stroke="rgb(250,0,20)" stroke-width="1" />
<line x1="68.7044" y1="245.087" x2="78.7044" y2="245.087" stroke="rgb(250,0,20)" stroke-width="1" />
<line x1="73.7044" y1="240.087" x2="73.7044" y2="250.087" stroke="rgb(250,0,20)" stroke-width="1" />
<line x1="191.106" y1="81.9073" x2="201.106" y2="81.9073" stroke="rgb(250,0,20)" stroke-width="1" />
<line x1="196.106" y1="76.9073" x2="196.106" y2="86.9073" stroke="rgb(250,0,20)" stroke-width="1" />
<line x1="212.695" y1="87.7925" x2="222.695" y2="87.7925" stroke="rgb(250,0,20)" stroke-width="1" />
<line x1="217.695" y1="82.7925" x2="217.695" y2="92.7925" stroke="rgb(250,0,20)" stroke-width="1" />
<line x1="175.612" y1="29.8697" x2="185.612" y2="29.8697" stroke="rgb(250,0,20)" stroke-width="1" />
<line x1="180.612" y1="24.8697" x2="180.612" y2="34.8697" stroke="rgb(250,0,20)" stroke-width="1" />
<line x1="19.9037" y1="120.415" x2="29.9037" y2="120.415" stroke="rgb(250,0,20)" stroke-width="1" />
<line x1="24.9037" y1="115.415" x2="24.9037" y2="125.415" stroke="rgb(250,0,20)" stroke-width="1" />
<line x1="272.331" y1="219.469" x2="282.331" y2="219.469" stroke="rgb(250,0,20)" stroke-width="1" />
<line x1="277.331" y1="214.469" x2="277.331" y2="224.469" stroke="rgb(250,0,20)" stroke-width="1" />
<line x1="138.515" y1="60.9299" x2="148.515" y2="60.9299" stroke="rgb(250,0,20)" stroke-width="1" />
<line x1="143.515" y1="55.9299" x2="143.515" y2="65.9299" stroke="rgb(250,0,20)" stroke-width="1" />
<line x1="42.2256" y1="93.583" x2="52.2256" y2="93.583" stroke="rgb(250,0,20)" stroke-width="1" />
<line x1="47.2256" y1="88.583" x2="47.2256" y2="98.583" stroke="rgb(250,0,20)" stroke-width="1" />
<line x1="108.213" y1="111.902" x2="118.213" y2="111.902" stroke="rgb(250,0,20)" stroke-width="1" />
<line x1="113.213" y1="106.902" x2="113.213" y2="116.902" stroke="rgb(250,0,20)" stroke-width="1" />
<line x1="69.5993" y1="227.184" x2="79.5993" y2="227.184" stroke="rgb(250,0,20)" stroke-width="1" />
<line x1="74.5993" y1="222.184" x2="74.5993" y2="232.184" stroke="rgb(250,0,20)" stroke-width="1" />
<line x1="76.8836" y1="109.67" x2="86.8836" y2="109.67" stroke="rgb(250,0,20)" stroke-width="1" />
<line x1="81.8836" y1="104.67" x2="81.8836" y2="114.67" stroke="rgb(250,0,20)" stroke-width="1" />
<line x1="35.32" y1="238.031" x2="45.32" y2="238.031" stroke="rgb(250,0,20)" stroke-width="1" />
<line x1="40.32" y1="233.031" x2="40.32" y2="243.031" stroke="rgb(250,0,20)" stroke-width="1" />
<line x1="243.944" y1="28.9006" x2="253.944" y2="28.9006" stroke="rgb(250,0,20)" stroke-width="1" />
<line x1="248.944" y1="23.9006" x2="248.944" y2="33.9006" stroke="rgb(250,0,20)" stroke-width="1" />
<line x1="273.903" y1="52.5362" x2="283.903" y2="52.5362" stroke="rgb(250,0,20)" stroke-width="1" />
<line x1="278.903" y1="47.5362" x2="278.903" y2="57.5362" stroke="rgb(250,0,20)" stroke-width="1" />
<line x1="100.019" y1="30.5065" x2="110.019" y2="30.5065" stroke="rgb(250,0,20)" stroke-width="1" />
<line x1="105.019" y1="25.5065" x2="105.019" y2="35.5065" stroke="rgb(250,0,20)" stroke-width="1" />
<line x1="24.1476" y1="237.604" x2="34.1476" y2="237.604" stroke="rgb(250,0,20)" stroke-width="1" />
<line x1="29.1476" y1="232.604" x2="29.1476" y2="242.604" stroke="rgb(250,0,20)" stroke-width="1" />
<line x1="101.897" y1="192.369" x2="111.897" y2="192.369" stroke="rgb(250,0,20)" stroke-width="1" />
<line x1="106.897" y1="187.369" x2="106.897" y2="197.369" stroke="rgb(250,0,20)" stroke-width="1" />
<line x1="57.476" y1="226.257" x2="67.476" y2="226.257" stroke="rgb(250,0,20)" stroke-width="1" />
<line x1="62.476" y1="221.257" x2="62.476" y2="231.257" stroke="rgb(250,0,20)" stroke-width="1" />
<line x1="233.686" y1="59.4831" x2="243.686" y2="59.4831" stroke="rgb(250,0,20)" stroke-width="1" />
<line x1="238.686" y1="54.4831" x2="238.686" y2="64.483" stroke="rgb(250,0,20)" stroke-width="1" />
<line x1="83.0067" y1="166.681" x2="93.0067" y2="166.681" stroke="rgb(250,0,20)" stroke-width="1" />
<line x1="88.0067" y1="161.681" x2="88.0067" y2="171.681" stroke="rgb(250,0,20)" stroke-width="1" />
<line x1="240.133" y1="31.6403" x2="250.133" y2="31.6403" stroke="rgb(250,0,20)" stroke-width="1" />
<line x1="245.133" y1="26.6403" x2="245.133" y2="36.6403" stroke="rgb(250,0,20)" stroke-width="1" />
<line x1="294.822" y1="35.2882" x2="304.822" y2="35.2882" stroke="rgb(250,0,20)" stroke-width="1" />
<line x1="299.822" y1="30.2882" x2="299.822" y2="40.2882" stroke="rgb(250,0,20)" stroke-width="1" />
<line x1="139.25" y1="48.684" x2="149.25" y2="48.684" stroke="rgb(250,0,20)" stroke-width="1" />
<line x1="144.25" y1="43.684" x2="144.25" y2="53.684" stroke="rgb(250,0,20)" stroke-width="1" />
<line x1="281.967" y1="175.111" x2="291.967" y2="175.111" stroke="rgb(250,0,20)" stroke-width="1" />
<line x1="286.967" y1="170.111" x2="286.967" y2="180.111" stroke="rgb(250,0,20)" stroke-width="1" />
<line x1="162.77" y1="131.623" x2="172.77" y2="131.623" stroke="rgb(250,0,20)" stroke-width="1" />
<line x1="167.77" y1="126.623" x2="167.77" y2="136.623" stroke="rgb(250,0,20)" stroke-width="1" />
<line x1="143.086" y1="83.9291" x2="153.086" y2="83.9291" stroke="rgb(250,0,20)" stroke-width="1" />
<line x1="148.086" y1="78.9291" x2="148.086" y2="88.9291" stroke="rgb(250,0,20)" stroke-width="1" />
<line x1="159.628" y1="92.4909" x2="169.628" y2="92.4909" stroke="rgb(250,0,20)" stroke-width="1" />
<line x1="164.628" y1="87.4909" x2="164.628" y2="97.4909" stroke="rgb(250,0,20)" stroke-width="1" />
<line x1="130.758" y1="211.373" x2="140.758" y2="211.373" stroke="rgb(250,0,20)" stroke-width="1" />
<line x1="135.758" y1="206.373" x2="135.758" y2="216.373" stroke="rgb(250,0,20)" stroke-width="1" />
<line x1="114.597" y1="124.088" x2="124.597" y2="124.088" stroke="rgb(250,0,20)" stroke-width="1" />
<line x1="119.597" y1="119.088" x2="119.597" y2="129.088" stroke="rgb(250,0,20)" stroke-width="1" />
<line x1="205.772" y1="175.411" x2="215.772" y2="175.411" stroke="rgb(250,0,20)" stroke-width="1" />
<line x1="210.772" y1="170.411" x2="210.772" y2="180.411" stroke="rgb(250,0,20)" stroke-width="1" />
<line x1="46.7485" y1="214.374" x2="56.7485" y2="214.374" stroke="rgb(250,0,20)" stroke-width="1" />
<line x1="51.7485" y1="209.374" x2="51.7485" y2="219.374" stroke="rgb(250,0,20)" stroke-width="1" />
<line x1="149.002" y1="228.696" x2="159.002" y2="228.696" stroke="rgb(250,0,20)" stroke-width="1" />
<line x1="154.002" y1="223.696" x2="154.002" y2="233.696" stroke="rgb(250,0,20)" stroke-width="1" />
<line x1="141.452" y1="242.809" x2="151.452" y2="242.809" stroke="rgb(250,0,20)" stroke-width="1" />
<line x1="146.452" y1="237.809" x2="146.452" y2="247.809" stroke="rgb(250,0,20)" stroke-width="1" />
<line x1="108.531" y1="62.9875" x2="118.531" y2="62.9875" stroke="rgb(250,0,20)" stroke-width="1" />
<line x1="113.531" y1="57.9875" x2="113.531" y2="67.9875" stroke="rgb(250,0,20)" stroke-width="1" />
<line x1="84.9309" y1="107.991" x2="94.9309" y2="107.991" stroke="rgb(250,0,20)" stroke-width="1" />
<line x1="89.9309" y1="102.991" x2="89.9309" y2="112.991" stroke="rgb(250,0,20)" stroke-width="1" />
<line x1="122.773" y1="50.748" x2="132.773" y2="50.748" stroke="rgb(250,0,20)" stroke-width="1" />
<line x1="127.773" y1="45.748" x2="127.773" y2="55.748" stroke="rgb(250,0,20)" stroke-width="1" />
<line x1="39.1843" y1="136.244" x2="49.1843" y2="136.244" stroke="rgb(250,0,20)" stroke-width="1" />
<line x1="44.1843" y1="131.244" x2="44.1843" y2="141.244" stroke="rgb(250,0,20)" stroke-width="1" />
<line x1="98.7453" y1="146.892" x2="108.745" y2="146.892" stroke="rgb(250,0,20)" stroke-width="1" />
<line x1="103.745" y1="141.892" x2="103.745" y2="151.892" stroke="rgb(250,0,20)" stroke-width="1" />
<line x1="231.208" y1="210.311" x2="241.208" y2="210.311" stroke="rgb(250,0,20)" stroke-width="1" />
<line x1="236.208" y1="205.311" x2="236.208" y2="215.311" stroke="rgb(250,0,20)" stroke-width="1" />
<line x1="254.259" y1="46.6387" x2="264.259" y2="46.6387" stroke="rgb(250,0,20)" stroke-width="1" />
<line x1="259.259" y1="41.6387" x2="259.259" y2="51.6387" stroke="rgb(250,0,20)" stroke-width="1" />
<line x1="173.021" y1="52.38" x2="183.021" y2="52.38" stroke="rgb(250,0,20)" stroke-width="1" />
<line x1="178.021" y1="47.38" x2="178.021" y2="57.38" stroke="rgb(250,0,20)" stroke-width="1" />
<line x1="171.872" y1="60.6609" x2="181.872" y2="60.6609" stroke="rgb(250,0,20)" stroke-width="1" />
<line x1="176.872" y1="55.6609" x2="176.872" y2="65.6609" stroke="rgb(250,0,20)" stroke-width="1" />
<line x1="240.35" y1="177.184" x2="250.35" y2="177.184" stroke="rgb(250,0,20)" stroke-width="1" />
<line x1="245.35" y1="172.184" x2="245.35" y2="182.184" stroke="rgb(250,0,20)" stroke-width="1" />
<line x1="154.056" y1="238.891" x2="164.056" y2="238.891" stroke="rgb(250,0,20)" stroke-width="1" />
<line x1="159.056" y1="233.891" x2="159.056" y2="243.891" stroke="rgb(250,0,20)" stroke-width="1" />
<line x1="276.36" y1="241.256" x2="286.36" y2="241.256" stroke="rgb(250,0,20)" stroke-width="1" />
<line x1="281.36" y1="236.256" x2="281.36" y2="246.256" stroke="rgb(250,0,20)" stroke-width="1" />
<line x1="245.04" y1="65.7424" x2="255.04" y2="65.7424" stroke="rgb(250,0,20)" stroke-width="1" />
<line x1="250.04" y1="60.7424" x2="250.04" y2="70.7424" stroke="rgb(250,0,20)" stroke-width="1" />
<line x1="32.0927" y1="196.149" x2="42.0927" y2="196.149" stroke="rgb(250,0,20)" stroke-width="1" />
<line x1="37.0927" y1="191.149" x2="37.0927" y2="201.149" stroke="rgb(250,0,20)" stroke-width="1" />
<line x1="143.243" y1="92.5196" x2="153.243" y2="92.5196" stroke="rgb(250,0,20)" stroke-width="1" />
<line x1="148.243" y1="87.5196" x2="148.243" y2="97.5196" stroke="rgb(250,0,20)" stroke-width="1" />
<line x1="31.968" y1="216.68" x2="41.968" y2="216.68" stroke="rgb(250,0,20)" stroke-width="1" />
<line x1="36.968" y1="211.68" x2="36.968" y2="221.68" stroke="rgb(250,0,20)" stroke-width="1" />
<line x1="138.921" y1="27.2423" x2="148.921" y2="27.2423" stroke="rgb(250,0,20)" stroke-width="1" />
<line x1="143.921" y1="22.2423" x2="143.921" y2="32.2423" stroke="rgb(250,0,20)" stroke-width="1" />
<line x1="200.814" y1="143.421" x2="210.814" y2="143.421" stroke="rgb(250,0,20)" stroke-width="1" />
<line x1="205.814" y1="138.421" x2="205.814" y2="148.421" stroke="rgb(250,0,20)" stroke-width="1" />
<line x1="163.184" y1="244.633" x2="173.184" y2="244.633" stroke="rgb(250,0,20)" stroke-width="1" />
<line x1="168.184" y1="239.633" x2="168.184" y2="249.633" stroke="rgb(250,0,20)" stroke-width="1" />
<line x1="15.3755" y1="73.6601" x2="25.3755" y2="73.6601" stroke="rgb(250,0,20)" stroke-width="1" />
<line x1="20.3755" y1="68.6601" x2="20.3755" y2="78.6601" stroke="rgb(250,0,20)" stroke-width="1" />
<rect x="48" y="80" width="162" height="120" stroke="rgb(0,250,0)" stroke-width="1" fill="none" />
<line x1="191.008" y1="113.183" x2="201.008" y2="113.183" stroke="rgb(20,0,250)" stroke-width="1" />
<line x1="196.008" y1="108.183" x2="196.008" y2="118.183" stroke="rgb(20,0,250)" stroke-width="1" />
<line x1="129.78" y1="145.225" x2="139.78" y2="145.225" stroke="rgb(20,0,250)" stroke-width="1" />
<line x1="134.78" y1="140.225" x2="134.78" y2="150.225" stroke="rgb(20,0,250)" stroke-width="1" />
<line x1="203.324" y1="181.544" x2="213.324" y2="181.544" stroke="rgb(20,0,250)" stroke-width="1" />
<line x1="208.324" y1="176.544" x2="208.324" y2="186.544" stroke="rgb(20,0,250)" stroke-width="1" />
<line x1="165.335" y1="121.428" x2="175.335" y2="121.428" stroke="rgb(20,0,250)" stroke-width="1" />
<line x1="170.335" y1="116.428" x2="170.335" y2="126.428" stroke="rgb(20,0,250)" stroke-width="1" />
<line x1="111.515" y1="150.638" x2="121.515" y2="150.638" stroke="rgb(20,0,250)" stroke-width="1" />
<line x1="116.515" y1="145.638" x2="116.515" y2="155.638" stroke="rgb(20,0,250)" stroke-width="1" />
<line x1="47.0152" y1="158.959" x2="57.0152" y2="158.959" stroke="rgb(20,0,250)" stroke-width="1" />
<line x1="52.0152" y1="153.959" x2="52.0152" y2="163.959" stroke="rgb(20,0,250)" stroke-width="1" />
<line x1="77.1005" y1="176.195" x2="87.1005" y2="176.195" stroke="rgb(20,0,250)" stroke-width="1" />
<line x1="82.1005" y1="171.195" x2="82.1005" y2="181.195" stroke="rgb(20,0,250)" stroke-width="1" />
<line x1="140.467" y1="148.291" x2="150.467" y2="148.291" stroke="rgb(20,0,250)" stroke-width="1" />
<line x1="145.467" y1="143.291" x2="145.467" y2="153.291" stroke="rgb(20,0,250)" stroke-width="1" />
<line x1="178.977" y1="113.197" x2="188.977" y2="113.197" stroke="rgb(20,0,250)" stroke-width="1" />
<line x1="183.977" y1="108.197" x2="183.977" y2="118.197" stroke="rgb(20,0,250)" stroke-width="1" />
<line x1="105.562" y1="94.6402" x2="115.562" y2="94.6402" stroke="rgb(20,0,250)" stroke-width="1" />
<line x1="110.562" y1="89.6402" x2="110.562" y2="99.6402" stroke="rgb(20,0,250)" stroke-width="1" />
<line x1="100.814" y1="121.993" x2="110.814" y2="121.993" stroke="rgb(20,0,250)" stroke-width="1" />
<line x1="105.814" y1="116.993" x2="105.814" y2="126.993" stroke="rgb(20,0,250)" stroke-width="1" />
<line x1="105.158" y1="150.8" x2="115.158" y2="150.8" stroke="rgb(20,0,250)" stroke-width="1" />
<line x1="110.158" y1="145.8" x2="110.158" y2="155.8" stroke="rgb(20,0,250)" stroke-width="1" />
<line x1="126.314" y1="177.79" x2="136.314" y2="177.79" stroke="rgb(20,0,250)" stroke-width="1" />
<line x1="131.314" y1="172.79" x2="131.314" y2="182.79" stroke="rgb(20,0,250)" stroke-width="1" />
<line x1="179.545" y1="108.003" x2="189.545" y2="108.003" stroke="rgb(20,0,250)" stroke-width="1" />
<line x1="184.545" y1="103.003" x2="184.545" y2="113.003" stroke="rgb(20,0,250)" stroke-width="1" />
<line x1="110.467" y1="118.985" x2="120.467" y2="118.985" stroke="rgb(20,0,250)" stroke-width="1" />
<line x1="115.467" y1="113.985" x2="115.467" y2="123.985" stroke="rgb(20,0,250)" stroke-width="1" />
<line x1="138.64" y1="166.074" x2="148.64" y2="166.074" stroke="rgb(20,0,250)" stroke-width="1" />
<line x1="143.64" y1="161.074" x2="143.64" y2="171.074" stroke="rgb(20,0,250)" stroke-width="1" />
<line x1="67.1418" y1="84.7386" x2="77.1418" y2="84.7386" stroke="rgb(20,0,250)" stroke-width="1" />
<line x1="72.1418" y1="79.7386" x2="72.1418" y2="89.7386" stroke="rgb(20,0,250)" stroke-width="1" />
<line x1="91.5082" y1="84.3905" x2="101.508" y2="84.3905" stroke="rgb(20,0,250)" stroke-width="1" />
<line x1="96.5082" y1="79.3905" x2="96.5082" y2="89.3905" stroke="rgb(20,0,250)" stroke-width="1" />
<line x1="197.872" y1="146.907" x2="207.872" y2="146.907" stroke="rgb(20,0,250)" stroke-width="1" />
<line x1="202.872" y1="141.907" x2="202.872" y2="151.907" stroke="rgb(20,0,250)" stroke-width="1" />
<line x1="164.396" y1="80.0341" x2="174.396" y2="80.0341" stroke="rgb(20,0,250)" stroke-width="1" />
<line x1="169.396" y1="75.0341" x2="169.396" y2="85.0341" stroke="rgb(20,0,250)" stroke-width="1" />
<line x1="189.692" y1="198.316" x2="199.692" y2="198.316" stroke="rgb(20,0,250)" stroke-width="1" />
<line x1="194.692" y1="193.316" x2="194.692" y2="203.316" stroke="rgb(20,0,250)" stroke-width="1" />
<line x1="96.5298" y1="131.287" x2="106.53" y2="131.287" stroke="rgb(20,0,250)" stroke-width="1" />
<line x1="101.53" y1="126.287" x2="101.53" y2="136.287" stroke="rgb(20,0,250)" stroke-width="1" />
<line x1="172.539" y1="125.892" x2="182.539" y2="125.892" stroke="rgb(20,0,250)" stroke-width="1" />
<line x1="177.539" y1="120.892" x2="177.539" y2="130.892" stroke="rgb(20,0,250)" stroke-width="1" />
<line x1="140.809" y1="84.808" x2="150.809" y2="84.808" stroke="rgb(20,0,250)" stroke-width="1" />
<line x1="145.809" y1="79.808" x2="145.809" y2="89.808" stroke="rgb(20,0,250)" stroke-width="1" />
<line x1="133.972" y1="199.025" x2="143.972" y2="199.025" stroke="rgb(20,0,250)" stroke-width="1" />
<line x1="138.972" y1="194.025" x2="138.972" y2="204.025" stroke="rgb(20,0,250)" stroke-width="1" />
<line x1="174" y1="164.46" x2="184" y2="164.46" stroke="rgb(20,0,250)" stroke-width="1" />
<line x1="179" y1="159.46" x2="179" y2="169.46" stroke="rgb(20,0,250)" stroke-width="1" />
<line x1="100.189" y1="107.483" x2="110.189" y2="107.483" stroke="rgb(20,0,250)" stroke-width="1" />
<line x1="105.189" y1="102.483" x2="105.189" y2="112.483" stroke="rgb(20,0,250)" stroke-width="1" />
<line x1="147.489" y1="119.503" x2="157.489" y2="119.503" stroke="rgb(20,0,250)" stroke-width="1" />
<line x1="152.489" y1="114.503" x2="152.489" y2="124.503" stroke="rgb(20,0,250)" stroke-width="1" />
<line x1="61.1869" y1="90.8204" x2="71.1869" y2="90.8204" stroke="rgb(20,0,250)" stroke-width="1" />
<line x1="66.1869" y1="85.8204" x2="66.1869" y2="95.8204" stroke="rgb(20,0,250)" stroke-width="1" />
<line x1="82.5856" y1="106.232" x2="92.5856" y2="106.232" stroke="rgb(20,0,250)" stroke-width="1" />
<line x1="87.5856" y1="101.232" x2="87.5856" y2="111.232" stroke="rgb(20,0,250)" stroke-width="1" />
<line x1="80.7386" y1="175.465" x2="90.7386" y2="175.465" stroke="rgb(20,0,250)" stroke-width="1" />
<line x1="85.7386" y1="170.465" x2="85.7386" y2="180.465" stroke="rgb(20,0,250)" stroke-width="1" />
<line x1="58.1304" y1="141.915" x2="68.1304" y2="141.915" stroke="rgb(20,0,250)" stroke-width="1" />
<line x1="63.1304" y1="136.915" x2="63.1304" y2="146.915" stroke="rgb(20,0,250)" stroke-width="1" />
<line x1="183.546" y1="92.254" x2="193.546" y2="92.254" stroke="rgb(20,0,250)" stroke-width="1" />
<line x1="188.546" y1="87.254" x2="188.546" y2="97.254" stroke="rgb(20,0,250)" stroke-width="1" />
<line x1="82.5546" y1="132.033" x2="92.5546" y2="132.033" stroke="rgb(20,0,250)" stroke-width="1" />
<line x1="87.5546" y1="127.033" x2="87.5546" y2="137.033" stroke="rgb(20,0,250)" stroke-width="1" />
<line x1="175.005" y1="104.806" x2="185.005" y2="104.806" stroke="rgb(20,0,250)" stroke-width="1" />
<line x1="180.005" y1="99.8061" x2="180.005" y2="109.806" stroke="rgb(20,0,250)" stroke-width="1" />
<line x1="106.785" y1="93.2189" x2="116.785" y2="93.2189" stroke="rgb(20,0,250)" stroke-width="1" />
<line x1="111.785" y1="88.2189" x2="111.785" y2="98.2189" stroke="rgb(20,0,250)" stroke-width="1" />
<line x1="125.099" y1="81.9487" x2="135.099" y2="81.9487" stroke="rgb(20,0,250)" stroke-width="1" />
<line x1="130.099" y1="76.9487" x2="130.099" y2="86.9487" stroke="rgb(20,0,250)" stroke-width="1" />
<line x1="191.106" y1="81.9073" x2="201.106" y2="81.9073" stroke="rgb(20,0,250)" stroke-width="1" />
<line x1="196.106" y1="76.9073" x2="196.106" y2="86.9073" stroke="rgb(20,0,250)" stroke-width="1" />
<line x1="108.213" y1="111.902" x2="118.213" y2="111.902" stroke="rgb(20,0,250)" stroke-width="1" />
<line x1="113.213" y1="106.902" x2="113.213" y2="116.902" stroke="rgb(20,0,250)" stroke-width="1" />
<line x1="76.8836" y1="109.67" x2="86.8836" y2="109.67" stroke="rgb(20,0,250)" stroke-width="1" />
<line x1="81.8836" y1="104.67" x2="81.8836" y2="114.67" stroke="rgb(20,0,250)" stroke-width="1" />
<line x1="101.897" y1="192.369" x2="111.897" y2="192.369" stroke="rgb(20,0,250)" stroke-width="1" />
<line x1="106.897" y1="187.369" x2="106.897" y2="197.369" stroke="rgb(20,0,250)" stroke-width="1" />
<line x1="83.0067" y1="166.681" x2="93.0067" y2="166.681" stroke="rgb(20,0,250)" stroke-width="1" />
<line x1="88.0067" y1="161.681" x2="88.0067" y2="171.681" stroke="rgb(20,0,250)" stroke-width="1" />
<line x1="162.77" y1="131.623" x2="172.77" y2="131.623" stroke="rgb(20,0,250)" stroke-width="1" />
<line x1="167.77" y1="126.623" x2="167.77" y2="136.623" stroke="rgb(20,0,250)" stroke-width="1" />
<line x1="143.086" y1="83.9291" x2="153.086" y2="83.9291" stroke="rgb(20,0,250)" stroke-width="1" />
<line x1="148.086" y1="78.9291" x2="148.086" y2="88.9291" stroke="rgb(20,0,250)" stroke-width="1" />
<line x1="159.628" y1="92.4909" x2="169.628" y2="92.4909" stroke="rgb(20,0,250)" stroke-width="1" />
<line x1="164.628" y1="87.4909" x2="164.628" y2="97.4909" stroke="rgb(20,0,250)" stroke-width="1" />
<line x1="114.597" y1="124.088" x2="124.597" y2="124.088" stroke="rgb(20,0,250)" stroke-width="1" />
<line x1="119.597" y1="119.088" x2="119.597" y2="129.088" stroke="rgb(20,0,250)" stroke-width="1" />
<line x1="84.9309" y1="107.991" x2="94.9309" y2="107.991" stroke="rgb(20,0,250)" stroke-width="1" />
<line x1="89.9309" y1="102.991" x2="89.9309" y2="112.991" stroke="rgb(20,0,250)" stroke-width="1" />
<line x1="98.7453" y1="146.892" x2="108.745" y2="146.892" stroke="rgb(20,0,250)" stroke-width="1" />
<line x1="103.745" y1="141.892" x2="103.745" y2="151.892" stroke="rgb(20,0,250)" stroke-width="1" />
<line x1="143.243" y1="92.5196" x2="153.243" y2="92.5196" stroke="rgb(20,0,250)" stroke-width="1" />
<line x1="148.243" y1="87.5196" x2="148.243" y2="97.5196" stroke="rgb(20,0,250)" stroke-width="1" />
<line x1="200.814" y1="143.421" x2="210.814" y2="143.421" stroke="rgb(20,0,250)" stroke-width="1" />
<line x1="205.814" y1="138.421" x2="205.814" y2="148.421" stroke="rgb(20,0,250)" stroke-width="1" />
</svg>
